solid OpenSCAD_Model
  facet normal -1 0 0
    outer loop
      vertex -9.5 2.7 3
      vertex -9.5 6 0
      vertex -9.5 -2.7 3
    endloop
  endfacet
  facet normal -1 0 0
    outer loop
      vertex -9.5 -6 0
      vertex -9.5 -6 6.76346
      vertex -9.5 -2.7 3
    endloop
  endfacet
  facet normal -1 0 0
    outer loop
      vertex -9.5 -6 0
      vertex -9.5 -2.7 3
      vertex -9.5 6 0
    endloop
  endfacet
  facet normal -1 0 0
    outer loop
      vertex -9.5 6 0
      vertex -9.5 2.7 3
      vertex -9.5 2.7 6.76346
    endloop
  endfacet
  facet normal -1 0 0
    outer loop
      vertex -9.5 6 0
      vertex -9.5 2.7 6.76346
      vertex -9.5 6 6.76346
    endloop
  endfacet
  facet normal -1 0 0
    outer loop
      vertex -9.5 -2.7 3
      vertex -9.5 -6 6.76346
      vertex -9.5 -2.7 6.76346
    endloop
  endfacet
  facet normal 0 -1 0
    outer loop
      vertex 1.3 -6 1.24
      vertex -9.5 -6 0
      vertex 10.5 -6 0
    endloop
  endfacet
  facet normal 0 -1 0
    outer loop
      vertex 0.612 -6 1.24
      vertex -9.5 -6 0
      vertex 1.3 -6 1.24
    endloop
  endfacet
  facet normal 0 -1 0
    outer loop
      vertex -0.713909 -6 1.3254
      vertex -0.713909 -6 2.1746
      vertex -9.5 -6 6.76346
    endloop
  endfacet
  facet normal 0 -1 0
    outer loop
      vertex -9.5 -6 6.76346
      vertex -9.5 -6 0
      vertex -0.67174 -6 1.24
    endloop
  endfacet
  facet normal 0 -1 0
    outer loop
      vertex -9.5 -6 6.76346
      vertex -0.67174 -6 1.24
      vertex -0.69156 -6 1.2553
    endloop
  endfacet
  facet normal 0 -1 0
    outer loop
      vertex -0.69156 -6 2.2447
      vertex -0.63342 -6 2.28958
      vertex -9.5 -6 6.76346
    endloop
  endfacet
  facet normal 0 -1 0
    outer loop
      vertex -9.5 -6 6.76346
      vertex -0.69156 -6 1.2553
      vertex -0.713909 -6 1.3254
    endloop
  endfacet
  facet normal 0 -1 0
    outer loop
      vertex -0.69156 -6 7.3447
      vertex -0.63342 -6 7.38958
      vertex -0.08058 -6 8.65948
    endloop
  endfacet
  facet normal 0 -1 0
    outer loop
      vertex -9.5 -6 6.76346
      vertex -0.713909 -6 2.1746
      vertex -0.69156 -6 2.2447
    endloop
  endfacet
  facet normal 0 -1 0
    outer loop
      vertex 0.612 -6 1.24
      vertex -0.67174 -6 1.24
      vertex -9.5 -6 0
    endloop
  endfacet
  facet normal 0 -1 0
    outer loop
      vertex -0.63342 -6 12.4896
      vertex -0.02244 -6 12.7354
      vertex -5.11986e-16 -6 12.8058
    endloop
  endfacet
  facet normal 0 -1 0
    outer loop
      vertex -9.5 -6 6.76346
      vertex -0.63342 -6 2.28958
      vertex -0.08058 -6 2.49052
    endloop
  endfacet
  facet normal 0 -1 0
    outer loop
      vertex -0.63342 -6 12.4896
      vertex -0.08058 -6 12.6905
      vertex -0.02244 -6 12.7354
    endloop
  endfacet
  facet normal 0 -1 0
    outer loop
      vertex -9.5 -6 6.76346
      vertex -0.08058 -6 2.49052
      vertex -0.02244 -6 2.5354
    endloop
  endfacet
  facet normal 0 -1 0
    outer loop
      vertex -9.5 -6 6.76346
      vertex -0.02244 -6 2.5354
      vertex 1.75287e-15 -6 2.60578
    endloop
  endfacet
  facet normal 0 -1 0
    outer loop
      vertex -9.5 -6 6.76346
      vertex 1.75287e-15 -6 2.60578
      vertex 1.5667e-15 -6 3.44422
    endloop
  endfacet
  facet normal 0 -1 0
    outer loop
      vertex -9.5 -6 6.76346
      vertex 1.5667e-15 -6 3.44422
      vertex -0.02244 -6 3.5146
    endloop
  endfacet
  facet normal 0 -1 0
    outer loop
      vertex -9.5 -6 6.76346
      vertex -0.02244 -6 3.5146
      vertex -0.08058 -6 3.55948
    endloop
  endfacet
  facet normal 0 -1 0
    outer loop
      vertex -9.5 -6 6.76346
      vertex -0.08058 -6 3.55948
      vertex -0.63342 -6 3.76042
    endloop
  endfacet
  facet normal 0 -1 0
    outer loop
      vertex -0.713909 -6 3.8754
      vertex -9.5 -6 6.76346
      vertex -0.69156 -6 3.8053
    endloop
  endfacet
  facet normal 0 -1 0
    outer loop
      vertex -0.713909 -6 4.7246
      vertex -9.5 -6 6.76346
      vertex -0.713909 -6 3.8754
    endloop
  endfacet
  facet normal 0 -1 0
    outer loop
      vertex -0.69156 -6 4.7947
      vertex -9.5 -6 6.76346
      vertex -0.713909 -6 4.7246
    endloop
  endfacet
  facet normal 0 -1 0
    outer loop
      vertex -0.63342 -6 4.83958
      vertex -9.5 -6 6.76346
      vertex -0.69156 -6 4.7947
    endloop
  endfacet
  facet normal 0 -1 0
    outer loop
      vertex -0.08058 -6 5.04052
      vertex -9.5 -6 6.76346
      vertex -0.63342 -6 4.83958
    endloop
  endfacet
  facet normal 0 -1 0
    outer loop
      vertex -0.02244 -6 5.0854
      vertex -9.5 -6 6.76346
      vertex -0.08058 -6 5.04052
    endloop
  endfacet
  facet normal 0 -1 0
    outer loop
      vertex 1.18666e-15 -6 5.15578
      vertex -9.5 -6 6.76346
      vertex -0.02244 -6 5.0854
    endloop
  endfacet
  facet normal 0 -1 0
    outer loop
      vertex 1.00048e-15 -6 5.99422
      vertex -9.5 -6 6.76346
      vertex 1.18666e-15 -6 5.15578
    endloop
  endfacet
  facet normal 0 -1 0
    outer loop
      vertex -0.02244 -6 6.0646
      vertex -9.5 -6 6.76346
      vertex 1.00048e-15 -6 5.99422
    endloop
  endfacet
  facet normal 0 -1 0
    outer loop
      vertex -0.08058 -6 6.10948
      vertex -9.5 -6 6.76346
      vertex -0.02244 -6 6.0646
    endloop
  endfacet
  facet normal 0 -1 0
    outer loop
      vertex -0.63342 -6 6.31042
      vertex -9.5 -6 6.76346
      vertex -0.08058 -6 6.10948
    endloop
  endfacet
  facet normal 0 -1 0
    outer loop
      vertex -0.713909 -6 6.4254
      vertex -9.5 -6 6.76346
      vertex -0.69156 -6 6.3553
    endloop
  endfacet
  facet normal 0 -1 0
    outer loop
      vertex -0.713909 -6 7.2746
      vertex -9.5 -6 6.76346
      vertex -0.713909 -6 6.4254
    endloop
  endfacet
  facet normal 0 -1 0
    outer loop
      vertex -0.69156 -6 7.3447
      vertex -9.5 -6 6.76346
      vertex -0.713909 -6 7.2746
    endloop
  endfacet
  facet normal 0 -1 0
    outer loop
      vertex -0.63342 -6 8.86042
      vertex -9.5 -6 6.76346
      vertex -0.69156 -6 7.3447
    endloop
  endfacet
  facet normal 0 -1 0
    outer loop
      vertex -0.63342 -6 9.93958
      vertex -0.08058 -6 10.1405
      vertex 5.42277e-17 -6 10.2558
    endloop
  endfacet
  facet normal 0 -1 0
    outer loop
      vertex 6.20441e-16 -6 7.70578
      vertex -0.08058 -6 7.59052
      vertex -0.02244 -6 7.6354
    endloop
  endfacet
  facet normal 0 -1 0
    outer loop
      vertex -0.02244 -6 8.6146
      vertex -0.63342 -6 7.38958
      vertex 4.3427e-16 -6 8.54422
    endloop
  endfacet
  facet normal 0 -1 0
    outer loop
      vertex -0.69156 -6 8.9053
      vertex -9.5 -6 6.76346
      vertex -0.63342 -6 8.86042
    endloop
  endfacet
  facet normal 0 -1 0
    outer loop
      vertex -0.713909 -6 8.9754
      vertex -9.5 -6 6.76346
      vertex -0.69156 -6 8.9053
    endloop
  endfacet
  facet normal 0 -1 0
    outer loop
      vertex -0.713909 -6 9.8246
      vertex -9.5 -6 6.76346
      vertex -0.713909 -6 8.9754
    endloop
  endfacet
  facet normal 0 -1 0
    outer loop
      vertex -0.69156 -6 9.8947
      vertex -9.5 -6 6.76346
      vertex -0.713909 -6 9.8246
    endloop
  endfacet
  facet normal 0 -1 0
    outer loop
      vertex -1.31943e-16 -6 11.0942
      vertex -9.5 -6 6.76346
      vertex -0.69156 -6 9.8947
    endloop
  endfacet
  facet normal 0 -1 0
    outer loop
      vertex 5.42277e-17 -6 10.2558
      vertex -0.08058 -6 10.1405
      vertex -0.02244 -6 10.1854
    endloop
  endfacet
  facet normal 0 -1 0
    outer loop
      vertex -0.02244 -6 11.1646
      vertex -9.5 -6 6.76346
      vertex -1.31943e-16 -6 11.0942
    endloop
  endfacet
  facet normal 0 -1 0
    outer loop
      vertex -0.08058 -6 11.2095
      vertex -9.5 -6 6.76346
      vertex -0.02244 -6 11.1646
    endloop
  endfacet
  facet normal 0 -1 0
    outer loop
      vertex -0.63342 -6 11.4104
      vertex -9.5 -6 6.76346
      vertex -0.08058 -6 11.2095
    endloop
  endfacet
  facet normal 0 -1 0
    outer loop
      vertex -0.69156 -6 11.4553
      vertex -9.5 -6 6.76346
      vertex -0.63342 -6 11.4104
    endloop
  endfacet
  facet normal 0 -1 0
    outer loop
      vertex -0.713909 -6 11.5254
      vertex -9.5 -6 6.76346
      vertex -0.69156 -6 11.4553
    endloop
  endfacet
  facet normal 0 -1 0
    outer loop
      vertex -0.69156 -6 12.4447
      vertex -9.5 -6 6.76346
      vertex -0.713909 -6 12.3746
    endloop
  endfacet
  facet normal 0 -1 0
    outer loop
      vertex -5.11986e-16 -6 12.8058
      vertex -6.98157e-16 -6 13.6442
      vertex -0.63342 -6 12.4896
    endloop
  endfacet
  facet normal 0 -1 0
    outer loop
      vertex -0.63342 -6 12.4896
      vertex -6.98157e-16 -6 13.6442
      vertex -9.5 -6 6.76346
    endloop
  endfacet
  facet normal 0 -1 0
    outer loop
      vertex -0.02244 -6 13.7146
      vertex -9.5 -6 6.76346
      vertex -6.98157e-16 -6 13.6442
    endloop
  endfacet
  facet normal 0 -1 0
    outer loop
      vertex -0.08058 -6 13.7595
      vertex -9.5 -6 6.76346
      vertex -0.02244 -6 13.7146
    endloop
  endfacet
  facet normal 0 -1 0
    outer loop
      vertex -0.63342 -6 13.9604
      vertex -9.5 -6 6.76346
      vertex -0.08058 -6 13.7595
    endloop
  endfacet
  facet normal 0 -1 0
    outer loop
      vertex -0.684694 -6 14
      vertex -9.5 -6 6.76346
      vertex -0.63342 -6 13.9604
    endloop
  endfacet
  facet normal 0 -1 0
    outer loop
      vertex -2.26346 -6 14
      vertex -9.5 -6 6.76346
      vertex -0.684694 -6 14
    endloop
  endfacet
  facet normal 0 -1 0
    outer loop
      vertex -0.63342 -6 3.76042
      vertex -0.69156 -6 3.8053
      vertex -9.5 -6 6.76346
    endloop
  endfacet
  facet normal 0 -1 0
    outer loop
      vertex -0.63342 -6 6.31042
      vertex -0.69156 -6 6.3553
      vertex -9.5 -6 6.76346
    endloop
  endfacet
  facet normal 0 -1 0
    outer loop
      vertex 6.20441e-16 -6 7.70578
      vertex 4.3427e-16 -6 8.54422
      vertex -0.08058 -6 7.59052
    endloop
  endfacet
  facet normal 0 -1 0
    outer loop
      vertex -0.02244 -6 8.6146
      vertex -0.08058 -6 8.65948
      vertex -0.63342 -6 7.38958
    endloop
  endfacet
  facet normal 0 -1 0
    outer loop
      vertex -0.63342 -6 7.38958
      vertex -0.08058 -6 7.59052
      vertex 4.3427e-16 -6 8.54422
    endloop
  endfacet
  facet normal 0 -1 0
    outer loop
      vertex -0.08058 -6 8.65948
      vertex -0.63342 -6 8.86042
      vertex -0.69156 -6 7.3447
    endloop
  endfacet
  facet normal 0 -1 0
    outer loop
      vertex -0.713909 -6 11.5254
      vertex -0.713909 -6 12.3746
      vertex -9.5 -6 6.76346
    endloop
  endfacet
  facet normal 0 -1 0
    outer loop
      vertex -0.63342 -6 9.93958
      vertex -1.31943e-16 -6 11.0942
      vertex -0.69156 -6 9.8947
    endloop
  endfacet
  facet normal 0 -1 0
    outer loop
      vertex 5.42277e-17 -6 10.2558
      vertex -1.31943e-16 -6 11.0942
      vertex -0.63342 -6 9.93958
    endloop
  endfacet
  facet normal 0 -1 0
    outer loop
      vertex -0.63342 -6 12.4896
      vertex -9.5 -6 6.76346
      vertex -0.69156 -6 12.4447
    endloop
  endfacet
  facet normal 0 -1 0
    outer loop
      vertex 1.3 -6 14
      vertex 10.5 -6 5.76346
      vertex 2.26346 -6 14
    endloop
  endfacet
  facet normal 0 -1 0
    outer loop
      vertex 1.3 -6 14
      vertex 10.5 -6 0
      vertex 10.5 -6 5.76346
    endloop
  endfacet
  facet normal 0 -1 0
    outer loop
      vertex 1.3 -6 14
      vertex 1.3 -6 1.24
      vertex 10.5 -6 0
    endloop
  endfacet
  facet normal 0 0 -1
    outer loop
      vertex -3.35 0.794598 0
      vertex -9.5 6 0
      vertex 10.5 -6 0
    endloop
  endfacet
  facet normal 0 0 -1
    outer loop
      vertex 3.85817 1.43182 0
      vertex -9.5 6 0
      vertex 10.5 6 0
    endloop
  endfacet
  facet normal 0 0 -1
    outer loop
      vertex -9.5 -6 0
      vertex -9.5 6 0
      vertex -6.83136 2.2427e-16 0
    endloop
  endfacet
  facet normal 0 0 -1
    outer loop
      vertex -9.5 -6 0
      vertex -6.83136 2.2427e-16 0
      vertex -6.14183 -1.43182 0
    endloop
  endfacet
  facet normal 0 0 -1
    outer loop
      vertex -9.5 -6 0
      vertex -6.14183 -1.43182 0
      vertex 10.5 -6 0
    endloop
  endfacet
  facet normal 0 0 -1
    outer loop
      vertex -6.14183 -1.43182 0
      vertex -4.59248 -1.78545 0
      vertex 10.5 -6 0
    endloop
  endfacet
  facet normal 0 0 -1
    outer loop
      vertex 5.40752 -1.78545 0
      vertex 10.5 -6 0
      vertex 3.85816 -1.43182 0
    endloop
  endfacet
  facet normal 0 0 -1
    outer loop
      vertex -6.14183 1.43182 0
      vertex -9.5 6 0
      vertex -4.59248 1.78545 0
    endloop
  endfacet
  facet normal 0 0 -1
    outer loop
      vertex -4.59248 1.78545 0
      vertex -9.5 6 0
      vertex -3.35 0.794598 0
    endloop
  endfacet
  facet normal 0 0 -1
    outer loop
      vertex -3.35 -0.794598 0
      vertex -3.35 0.794598 0
      vertex 10.5 -6 0
    endloop
  endfacet
  facet normal 0 0 -1
    outer loop
      vertex -6.83136 2.2427e-16 0
      vertex -9.5 6 0
      vertex -6.14183 1.43182 0
    endloop
  endfacet
  facet normal 0 0 -1
    outer loop
      vertex 3.85816 -1.43182 0
      vertex -9.5 6 0
      vertex 3.16864 2.2427e-16 0
    endloop
  endfacet
  facet normal 0 0 -1
    outer loop
      vertex 10.5 -6 0
      vertex -9.5 6 0
      vertex 3.85816 -1.43182 0
    endloop
  endfacet
  facet normal 0 0 -1
    outer loop
      vertex 6.65 0.794598 0
      vertex 10.5 6 0
      vertex 6.65 -0.794598 0
    endloop
  endfacet
  facet normal 0 0 -1
    outer loop
      vertex 10.5 -6 0
      vertex 5.40752 -1.78545 0
      vertex 6.65 -0.794598 0
    endloop
  endfacet
  facet normal 0 0 -1
    outer loop
      vertex 10.5 -6 0
      vertex 6.65 -0.794598 0
      vertex 10.5 6 0
    endloop
  endfacet
  facet normal 0 0 -1
    outer loop
      vertex 3.85817 1.43182 0
      vertex 10.5 6 0
      vertex 5.40752 1.78545 0
    endloop
  endfacet
  facet normal 0 0 -1
    outer loop
      vertex 6.65 0.794598 0
      vertex 5.40752 1.78545 0
      vertex 10.5 6 0
    endloop
  endfacet
  facet normal 0 0 -1
    outer loop
      vertex 3.16864 2.2427e-16 0
      vertex -9.5 6 0
      vertex 3.85817 1.43182 0
    endloop
  endfacet
  facet normal 0 0 -1
    outer loop
      vertex -3.35 -0.794598 0
      vertex 10.5 -6 0
      vertex -4.59248 -1.78545 0
    endloop
  endfacet
  facet normal 0 1 0
    outer loop
      vertex -9.5 6 0
      vertex -9.5 6 6.76346
      vertex 10.5 6 0
    endloop
  endfacet
  facet normal 0 1 0
    outer loop
      vertex 10.5 6 0
      vertex -9.5 6 6.76346
      vertex -2.26346 6 14
    endloop
  endfacet
  facet normal 0 1 0
    outer loop
      vertex 10.5 6 0
      vertex -2.26346 6 14
      vertex 2.26346 6 14
    endloop
  endfacet
  facet normal 0 1 0
    outer loop
      vertex 10.5 6 0
      vertex 2.26346 6 14
      vertex 10.5 6 5.76346
    endloop
  endfacet
  facet normal -0.707107 0 0.707107
    outer loop
      vertex -9.5 -2.7 6.76346
      vertex -9.5 -6 6.76346
      vertex -2.26346 -6 14
    endloop
  endfacet
  facet normal -0.707107 0 0.707107
    outer loop
      vertex -2.3 -2.7 13.9635
      vertex -9.5 -2.7 6.76346
      vertex -2.26346 -6 14
    endloop
  endfacet
  facet normal -0.707107 0 0.707107
    outer loop
      vertex -9.5 6 6.76346
      vertex -9.5 2.7 6.76346
      vertex -2.26346 6 14
    endloop
  endfacet
  facet normal -0.707107 0 0.707107
    outer loop
      vertex -2.26346 6 14
      vertex -2.3 2.7 13.9635
      vertex -2.26346 -6 14
    endloop
  endfacet
  facet normal -0.707107 0 0.707107
    outer loop
      vertex -2.3 2.7 13.9635
      vertex -2.3 -2.7 13.9635
      vertex -2.26346 -6 14
    endloop
  endfacet
  facet normal -0.707107 0 0.707107
    outer loop
      vertex -9.5 2.7 6.76346
      vertex -2.3 2.7 13.9635
      vertex -2.26346 6 14
    endloop
  endfacet
  facet normal 0 -1 0
    outer loop
      vertex -2.3 2.7 3
      vertex -2.3 2.7 13.9635
      vertex -9.5 2.7 6.76346
    endloop
  endfacet
  facet normal 0 -1 0
    outer loop
      vertex -9.5 2.7 3
      vertex -2.3 2.7 3
      vertex -9.5 2.7 6.76346
    endloop
  endfacet
  facet normal 0 0 1
    outer loop
      vertex -6.14183 1.43182 3
      vertex -2.3 2.7 3
      vertex -9.5 2.7 3
    endloop
  endfacet
  facet normal 0 0 1
    outer loop
      vertex -3.35 0.794598 3
      vertex -3.35 -0.794598 3
      vertex -2.3 -2.7 3
    endloop
  endfacet
  facet normal 0 0 1
    outer loop
      vertex -9.5 -2.7 3
      vertex -6.83136 2.2427e-16 3
      vertex -9.5 2.7 3
    endloop
  endfacet
  facet normal 0 0 1
    outer loop
      vertex -4.59248 1.78545 3
      vertex -2.3 2.7 3
      vertex -6.14183 1.43182 3
    endloop
  endfacet
  facet normal 0 0 1
    outer loop
      vertex -3.35 0.794598 3
      vertex -2.3 2.7 3
      vertex -4.59248 1.78545 3
    endloop
  endfacet
  facet normal 0 0 1
    outer loop
      vertex -2.3 -2.7 3
      vertex -2.3 2.7 3
      vertex -3.35 0.794598 3
    endloop
  endfacet
  facet normal 0 0 1
    outer loop
      vertex -9.5 -2.7 3
      vertex -2.3 -2.7 3
      vertex -4.59248 -1.78545 3
    endloop
  endfacet
  facet normal 0 0 1
    outer loop
      vertex -9.5 -2.7 3
      vertex -6.14183 -1.43182 3
      vertex -6.83136 2.2427e-16 3
    endloop
  endfacet
  facet normal 0 0 1
    outer loop
      vertex -9.5 -2.7 3
      vertex -4.59248 -1.78545 3
      vertex -6.14183 -1.43182 3
    endloop
  endfacet
  facet normal 0 0 1
    outer loop
      vertex -6.83136 2.2427e-16 3
      vertex -6.14183 1.43182 3
      vertex -9.5 2.7 3
    endloop
  endfacet
  facet normal 0 0 1
    outer loop
      vertex -3.35 -0.794598 3
      vertex -4.59248 -1.78545 3
      vertex -2.3 -2.7 3
    endloop
  endfacet
  facet normal 0 1 0
    outer loop
      vertex -2.3 -2.7 13.9635
      vertex -2.3 -2.7 3
      vertex -9.5 -2.7 6.76346
    endloop
  endfacet
  facet normal 0 1 0
    outer loop
      vertex -9.5 -2.7 6.76346
      vertex -2.3 -2.7 3
      vertex -9.5 -2.7 3
    endloop
  endfacet
  facet normal 0 0 1
    outer loop
      vertex -2.26346 6 14
      vertex -2.26346 -6 14
      vertex -0.684694 -6 14
    endloop
  endfacet
  facet normal 0 0 1
    outer loop
      vertex 0.612 3.61 14
      vertex -2.26346 6 14
      vertex -0.684694 3.61 14
    endloop
  endfacet
  facet normal 0 0 1
    outer loop
      vertex -0.684694 3.61 14
      vertex -2.26346 6 14
      vertex -0.684694 -6 14
    endloop
  endfacet
  facet normal 0 0 1
    outer loop
      vertex 1.3 3.5 14
      vertex -2.26346 6 14
      vertex 0.612 3.61 14
    endloop
  endfacet
  facet normal 0 0 1
    outer loop
      vertex 1.3 3.5 14
      vertex 0.612 3.61 14
      vertex 0.612 3.5 14
    endloop
  endfacet
  facet normal 0 0 1
    outer loop
      vertex 2.26346 6 14
      vertex -2.26346 6 14
      vertex 1.3 3.5 14
    endloop
  endfacet
  facet normal 0 0 1
    outer loop
      vertex 2.26346 -6 14
      vertex 1.3 3.5 14
      vertex 1.3 -6 14
    endloop
  endfacet
  facet normal 0 0 1
    outer loop
      vertex 2.26346 6 14
      vertex 1.3 3.5 14
      vertex 2.26346 -6 14
    endloop
  endfacet
  facet normal 0.611052 -1.35681e-16 0.79159
    outer loop
      vertex -0.63342 -6 13.9604
      vertex -0.63342 3.61 13.9604
      vertex -0.684694 3.61 14
    endloop
  endfacet
  facet normal 0.611052 -1.35681e-16 0.79159
    outer loop
      vertex -0.684694 -6 14
      vertex -0.63342 -6 13.9604
      vertex -0.684694 3.61 14
    endloop
  endfacet
  facet normal 0.341604 -7.58513e-17 0.939844
    outer loop
      vertex -0.08058 -6 13.7595
      vertex -0.08058 3.61 13.7595
      vertex -0.63342 3.61 13.9604
    endloop
  endfacet
  facet normal 0.341604 -7.58513e-17 0.939844
    outer loop
      vertex -0.63342 -6 13.9604
      vertex -0.08058 -6 13.7595
      vertex -0.63342 3.61 13.9604
    endloop
  endfacet
  facet normal 0.611052 -1.35681e-16 0.79159
    outer loop
      vertex -0.02244 -6 13.7146
      vertex -0.02244 3.61 13.7146
      vertex -0.08058 3.61 13.7595
    endloop
  endfacet
  facet normal 0.611052 -1.35681e-16 0.79159
    outer loop
      vertex -0.08058 -6 13.7595
      vertex -0.02244 -6 13.7146
      vertex -0.08058 3.61 13.7595
    endloop
  endfacet
  facet normal 0.952744 -2.11552e-16 0.303774
    outer loop
      vertex -6.98157e-16 -6 13.6442
      vertex 1.43569e-15 3.61 13.6442
      vertex -0.02244 3.61 13.7146
    endloop
  endfacet
  facet normal 0.952744 -2.11552e-16 0.303774
    outer loop
      vertex -0.02244 -6 13.7146
      vertex -6.98157e-16 -6 13.6442
      vertex -0.02244 3.61 13.7146
    endloop
  endfacet
  facet normal 1 -2.22045e-16 2.22045e-16
    outer loop
      vertex -5.11986e-16 -6 12.8058
      vertex 1.62186e-15 3.61 12.8058
      vertex 1.43569e-15 3.61 13.6442
    endloop
  endfacet
  facet normal 1 -2.22045e-16 2.22045e-16
    outer loop
      vertex -6.98157e-16 -6 13.6442
      vertex -5.11986e-16 -6 12.8058
      vertex 1.43569e-15 3.61 13.6442
    endloop
  endfacet
  facet normal 0.952744 -2.11552e-16 -0.303774
    outer loop
      vertex -0.02244 3.61 12.7354
      vertex 1.62186e-15 3.61 12.8058
      vertex -5.11986e-16 -6 12.8058
    endloop
  endfacet
  facet normal 0.952744 -2.11552e-16 -0.303774
    outer loop
      vertex -0.02244 -6 12.7354
      vertex -0.02244 3.61 12.7354
      vertex -5.11986e-16 -6 12.8058
    endloop
  endfacet
  facet normal 0.611052 -1.35681e-16 -0.79159
    outer loop
      vertex -0.02244 3.61 12.7354
      vertex -0.02244 -6 12.7354
      vertex -0.08058 3.61 12.6905
    endloop
  endfacet
  facet normal 0.611052 -1.35681e-16 -0.79159
    outer loop
      vertex -0.08058 3.61 12.6905
      vertex -0.02244 -6 12.7354
      vertex -0.08058 -6 12.6905
    endloop
  endfacet
  facet normal 0.341604 -7.58513e-17 -0.939844
    outer loop
      vertex -0.08058 3.61 12.6905
      vertex -0.08058 -6 12.6905
      vertex -0.63342 3.61 12.4896
    endloop
  endfacet
  facet normal 0.341604 -7.58513e-17 -0.939844
    outer loop
      vertex -0.63342 3.61 12.4896
      vertex -0.08058 -6 12.6905
      vertex -0.63342 -6 12.4896
    endloop
  endfacet
  facet normal 0.611052 -1.35681e-16 -0.79159
    outer loop
      vertex -0.63342 3.61 12.4896
      vertex -0.63342 -6 12.4896
      vertex -0.69156 3.61 12.4447
    endloop
  endfacet
  facet normal 0.611052 -1.35681e-16 -0.79159
    outer loop
      vertex -0.69156 3.61 12.4447
      vertex -0.63342 -6 12.4896
      vertex -0.69156 -6 12.4447
    endloop
  endfacet
  facet normal 0.952744 -2.11552e-16 -0.303774
    outer loop
      vertex -0.713909 3.61 12.3746
      vertex -0.69156 3.61 12.4447
      vertex -0.69156 -6 12.4447
    endloop
  endfacet
  facet normal 0.952744 -2.11552e-16 -0.303774
    outer loop
      vertex -0.713909 -6 12.3746
      vertex -0.713909 3.61 12.3746
      vertex -0.69156 -6 12.4447
    endloop
  endfacet
  facet normal 1 -2.22045e-16 2.22045e-16
    outer loop
      vertex -0.713909 -6 11.5254
      vertex -0.713909 3.61 11.5254
      vertex -0.713909 3.61 12.3746
    endloop
  endfacet
  facet normal 1 -2.22045e-16 2.22045e-16
    outer loop
      vertex -0.713909 -6 12.3746
      vertex -0.713909 -6 11.5254
      vertex -0.713909 3.61 12.3746
    endloop
  endfacet
  facet normal 0.952744 -2.11552e-16 0.303774
    outer loop
      vertex -0.69156 -6 11.4553
      vertex -0.69156 3.61 11.4553
      vertex -0.713909 3.61 11.5254
    endloop
  endfacet
  facet normal 0.952744 -2.11552e-16 0.303774
    outer loop
      vertex -0.713909 -6 11.5254
      vertex -0.69156 -6 11.4553
      vertex -0.713909 3.61 11.5254
    endloop
  endfacet
  facet normal 0.611052 -1.35681e-16 0.79159
    outer loop
      vertex -0.63342 -6 11.4104
      vertex -0.63342 3.61 11.4104
      vertex -0.69156 3.61 11.4553
    endloop
  endfacet
  facet normal 0.611052 -1.35681e-16 0.79159
    outer loop
      vertex -0.69156 -6 11.4553
      vertex -0.63342 -6 11.4104
      vertex -0.69156 3.61 11.4553
    endloop
  endfacet
  facet normal 0.341604 -7.58513e-17 0.939844
    outer loop
      vertex -0.08058 -6 11.2095
      vertex -0.08058 3.61 11.2095
      vertex -0.63342 3.61 11.4104
    endloop
  endfacet
  facet normal 0.341604 -7.58513e-17 0.939844
    outer loop
      vertex -0.63342 -6 11.4104
      vertex -0.08058 -6 11.2095
      vertex -0.63342 3.61 11.4104
    endloop
  endfacet
  facet normal 0.611052 -1.35681e-16 0.79159
    outer loop
      vertex -0.02244 -6 11.1646
      vertex -0.02244 3.61 11.1646
      vertex -0.08058 3.61 11.2095
    endloop
  endfacet
  facet normal 0.611052 -1.35681e-16 0.79159
    outer loop
      vertex -0.08058 -6 11.2095
      vertex -0.02244 -6 11.1646
      vertex -0.08058 3.61 11.2095
    endloop
  endfacet
  facet normal 0.952744 -2.11552e-16 0.303774
    outer loop
      vertex -1.31943e-16 -6 11.0942
      vertex 2.00191e-15 3.61 11.0942
      vertex -0.02244 3.61 11.1646
    endloop
  endfacet
  facet normal 0.952744 -2.11552e-16 0.303774
    outer loop
      vertex -0.02244 -6 11.1646
      vertex -1.31943e-16 -6 11.0942
      vertex -0.02244 3.61 11.1646
    endloop
  endfacet
  facet normal 1 -2.22045e-16 2.22045e-16
    outer loop
      vertex 5.42277e-17 -6 10.2558
      vertex 2.18808e-15 3.61 10.2558
      vertex 2.00191e-15 3.61 11.0942
    endloop
  endfacet
  facet normal 1 -2.22045e-16 2.22045e-16
    outer loop
      vertex -1.31943e-16 -6 11.0942
      vertex 5.42277e-17 -6 10.2558
      vertex 2.00191e-15 3.61 11.0942
    endloop
  endfacet
  facet normal 0.952744 -2.11552e-16 -0.303774
    outer loop
      vertex -0.02244 3.61 10.1854
      vertex 2.18808e-15 3.61 10.2558
      vertex 5.42277e-17 -6 10.2558
    endloop
  endfacet
  facet normal 0.952744 -2.11552e-16 -0.303774
    outer loop
      vertex -0.02244 -6 10.1854
      vertex -0.02244 3.61 10.1854
      vertex 5.42277e-17 -6 10.2558
    endloop
  endfacet
  facet normal 0.611052 -1.35681e-16 -0.79159
    outer loop
      vertex -0.02244 3.61 10.1854
      vertex -0.02244 -6 10.1854
      vertex -0.08058 3.61 10.1405
    endloop
  endfacet
  facet normal 0.611052 -1.35681e-16 -0.79159
    outer loop
      vertex -0.08058 3.61 10.1405
      vertex -0.02244 -6 10.1854
      vertex -0.08058 -6 10.1405
    endloop
  endfacet
  facet normal 0.341604 -7.58513e-17 -0.939844
    outer loop
      vertex -0.08058 3.61 10.1405
      vertex -0.08058 -6 10.1405
      vertex -0.63342 3.61 9.93958
    endloop
  endfacet
  facet normal 0.341604 -7.58513e-17 -0.939844
    outer loop
      vertex -0.63342 3.61 9.93958
      vertex -0.08058 -6 10.1405
      vertex -0.63342 -6 9.93958
    endloop
  endfacet
  facet normal 0.611052 -1.35681e-16 -0.79159
    outer loop
      vertex -0.63342 3.61 9.93958
      vertex -0.63342 -6 9.93958
      vertex -0.69156 3.61 9.8947
    endloop
  endfacet
  facet normal 0.611052 -1.35681e-16 -0.79159
    outer loop
      vertex -0.69156 3.61 9.8947
      vertex -0.63342 -6 9.93958
      vertex -0.69156 -6 9.8947
    endloop
  endfacet
  facet normal 0.952744 -2.11552e-16 -0.303774
    outer loop
      vertex -0.713909 3.61 9.8246
      vertex -0.69156 3.61 9.8947
      vertex -0.69156 -6 9.8947
    endloop
  endfacet
  facet normal 0.952744 -2.11552e-16 -0.303774
    outer loop
      vertex -0.713909 -6 9.8246
      vertex -0.713909 3.61 9.8246
      vertex -0.69156 -6 9.8947
    endloop
  endfacet
  facet normal 1 -2.22045e-16 2.22045e-16
    outer loop
      vertex -0.713909 -6 8.9754
      vertex -0.713909 3.61 8.9754
      vertex -0.713909 3.61 9.8246
    endloop
  endfacet
  facet normal 1 -2.22045e-16 2.22045e-16
    outer loop
      vertex -0.713909 -6 9.8246
      vertex -0.713909 -6 8.9754
      vertex -0.713909 3.61 9.8246
    endloop
  endfacet
  facet normal 0.952744 -2.11552e-16 0.303774
    outer loop
      vertex -0.69156 -6 8.9053
      vertex -0.69156 3.61 8.9053
      vertex -0.713909 3.61 8.9754
    endloop
  endfacet
  facet normal 0.952744 -2.11552e-16 0.303774
    outer loop
      vertex -0.713909 -6 8.9754
      vertex -0.69156 -6 8.9053
      vertex -0.713909 3.61 8.9754
    endloop
  endfacet
  facet normal 0.611052 -1.35681e-16 0.79159
    outer loop
      vertex -0.63342 -6 8.86042
      vertex -0.63342 3.61 8.86042
      vertex -0.69156 3.61 8.9053
    endloop
  endfacet
  facet normal 0.611052 -1.35681e-16 0.79159
    outer loop
      vertex -0.69156 -6 8.9053
      vertex -0.63342 -6 8.86042
      vertex -0.69156 3.61 8.9053
    endloop
  endfacet
  facet normal 0.341604 -7.58513e-17 0.939844
    outer loop
      vertex -0.08058 -6 8.65948
      vertex -0.08058 3.61 8.65948
      vertex -0.63342 3.61 8.86042
    endloop
  endfacet
  facet normal 0.341604 -7.58513e-17 0.939844
    outer loop
      vertex -0.63342 -6 8.86042
      vertex -0.08058 -6 8.65948
      vertex -0.63342 3.61 8.86042
    endloop
  endfacet
  facet normal 0.611052 -1.35681e-16 0.79159
    outer loop
      vertex -0.02244 -6 8.6146
      vertex -0.02244 3.61 8.6146
      vertex -0.08058 3.61 8.65948
    endloop
  endfacet
  facet normal 0.611052 -1.35681e-16 0.79159
    outer loop
      vertex -0.08058 -6 8.65948
      vertex -0.02244 -6 8.6146
      vertex -0.08058 3.61 8.65948
    endloop
  endfacet
  facet normal 0.952744 -2.11552e-16 0.303774
    outer loop
      vertex 4.3427e-16 -6 8.54422
      vertex 2.56812e-15 3.61 8.54422
      vertex -0.02244 3.61 8.6146
    endloop
  endfacet
  facet normal 0.952744 -2.11552e-16 0.303774
    outer loop
      vertex -0.02244 -6 8.6146
      vertex 4.3427e-16 -6 8.54422
      vertex -0.02244 3.61 8.6146
    endloop
  endfacet
  facet normal 1 -2.22045e-16 2.22045e-16
    outer loop
      vertex 6.20441e-16 -6 7.70578
      vertex 2.75429e-15 3.61 7.70578
      vertex 2.56812e-15 3.61 8.54422
    endloop
  endfacet
  facet normal 1 -2.22045e-16 2.22045e-16
    outer loop
      vertex 4.3427e-16 -6 8.54422
      vertex 6.20441e-16 -6 7.70578
      vertex 2.56812e-15 3.61 8.54422
    endloop
  endfacet
  facet normal 0.952744 -2.11552e-16 -0.303774
    outer loop
      vertex -0.02244 3.61 7.6354
      vertex 2.75429e-15 3.61 7.70578
      vertex 6.20441e-16 -6 7.70578
    endloop
  endfacet
  facet normal 0.952744 -2.11552e-16 -0.303774
    outer loop
      vertex -0.02244 -6 7.6354
      vertex -0.02244 3.61 7.6354
      vertex 6.20441e-16 -6 7.70578
    endloop
  endfacet
  facet normal 0.611052 -1.35681e-16 -0.79159
    outer loop
      vertex -0.02244 3.61 7.6354
      vertex -0.02244 -6 7.6354
      vertex -0.08058 3.61 7.59052
    endloop
  endfacet
  facet normal 0.611052 -1.35681e-16 -0.79159
    outer loop
      vertex -0.08058 3.61 7.59052
      vertex -0.02244 -6 7.6354
      vertex -0.08058 -6 7.59052
    endloop
  endfacet
  facet normal 0.341604 -7.58513e-17 -0.939844
    outer loop
      vertex -0.08058 3.61 7.59052
      vertex -0.08058 -6 7.59052
      vertex -0.63342 3.61 7.38958
    endloop
  endfacet
  facet normal 0.341604 -7.58513e-17 -0.939844
    outer loop
      vertex -0.63342 3.61 7.38958
      vertex -0.08058 -6 7.59052
      vertex -0.63342 -6 7.38958
    endloop
  endfacet
  facet normal 0.611052 -1.35681e-16 -0.79159
    outer loop
      vertex -0.63342 3.61 7.38958
      vertex -0.63342 -6 7.38958
      vertex -0.69156 3.61 7.3447
    endloop
  endfacet
  facet normal 0.611052 -1.35681e-16 -0.79159
    outer loop
      vertex -0.69156 3.61 7.3447
      vertex -0.63342 -6 7.38958
      vertex -0.69156 -6 7.3447
    endloop
  endfacet
  facet normal 0.952744 -2.11552e-16 -0.303774
    outer loop
      vertex -0.713909 3.61 7.2746
      vertex -0.69156 3.61 7.3447
      vertex -0.69156 -6 7.3447
    endloop
  endfacet
  facet normal 0.952744 -2.11552e-16 -0.303774
    outer loop
      vertex -0.713909 -6 7.2746
      vertex -0.713909 3.61 7.2746
      vertex -0.69156 -6 7.3447
    endloop
  endfacet
  facet normal 1 -2.22045e-16 2.22045e-16
    outer loop
      vertex -0.713909 -6 6.4254
      vertex -0.713909 3.61 6.4254
      vertex -0.713909 3.61 7.2746
    endloop
  endfacet
  facet normal 1 -2.22045e-16 2.22045e-16
    outer loop
      vertex -0.713909 -6 7.2746
      vertex -0.713909 -6 6.4254
      vertex -0.713909 3.61 7.2746
    endloop
  endfacet
  facet normal 0.952744 -2.11552e-16 0.303774
    outer loop
      vertex -0.69156 -6 6.3553
      vertex -0.69156 3.61 6.3553
      vertex -0.713909 3.61 6.4254
    endloop
  endfacet
  facet normal 0.952744 -2.11552e-16 0.303774
    outer loop
      vertex -0.713909 -6 6.4254
      vertex -0.69156 -6 6.3553
      vertex -0.713909 3.61 6.4254
    endloop
  endfacet
  facet normal 0.611052 -1.35681e-16 0.79159
    outer loop
      vertex -0.63342 -6 6.31042
      vertex -0.63342 3.61 6.31042
      vertex -0.69156 3.61 6.3553
    endloop
  endfacet
  facet normal 0.611052 -1.35681e-16 0.79159
    outer loop
      vertex -0.69156 -6 6.3553
      vertex -0.63342 -6 6.31042
      vertex -0.69156 3.61 6.3553
    endloop
  endfacet
  facet normal 0.341604 -7.58513e-17 0.939844
    outer loop
      vertex -0.08058 -6 6.10948
      vertex -0.08058 3.61 6.10948
      vertex -0.63342 3.61 6.31042
    endloop
  endfacet
  facet normal 0.341604 -7.58513e-17 0.939844
    outer loop
      vertex -0.63342 -6 6.31042
      vertex -0.08058 -6 6.10948
      vertex -0.63342 3.61 6.31042
    endloop
  endfacet
  facet normal 0.611052 -1.35681e-16 0.79159
    outer loop
      vertex -0.02244 -6 6.0646
      vertex -0.02244 3.61 6.0646
      vertex -0.08058 3.61 6.10948
    endloop
  endfacet
  facet normal 0.611052 -1.35681e-16 0.79159
    outer loop
      vertex -0.08058 -6 6.10948
      vertex -0.02244 -6 6.0646
      vertex -0.08058 3.61 6.10948
    endloop
  endfacet
  facet normal 0.952744 -2.11552e-16 0.303774
    outer loop
      vertex 1.00048e-15 -6 5.99422
      vertex 3.13433e-15 3.61 5.99422
      vertex -0.02244 3.61 6.0646
    endloop
  endfacet
  facet normal 0.952744 -2.11552e-16 0.303774
    outer loop
      vertex -0.02244 -6 6.0646
      vertex 1.00048e-15 -6 5.99422
      vertex -0.02244 3.61 6.0646
    endloop
  endfacet
  facet normal 1 -2.22045e-16 2.22045e-16
    outer loop
      vertex 1.18666e-15 -6 5.15578
      vertex 3.3205e-15 3.61 5.15578
      vertex 3.13433e-15 3.61 5.99422
    endloop
  endfacet
  facet normal 1 -2.22045e-16 2.22045e-16
    outer loop
      vertex 1.00048e-15 -6 5.99422
      vertex 1.18666e-15 -6 5.15578
      vertex 3.13433e-15 3.61 5.99422
    endloop
  endfacet
  facet normal 0.952744 -2.11552e-16 -0.303774
    outer loop
      vertex -0.02244 3.61 5.0854
      vertex 3.3205e-15 3.61 5.15578
      vertex 1.18666e-15 -6 5.15578
    endloop
  endfacet
  facet normal 0.952744 -2.11552e-16 -0.303774
    outer loop
      vertex -0.02244 -6 5.0854
      vertex -0.02244 3.61 5.0854
      vertex 1.18666e-15 -6 5.15578
    endloop
  endfacet
  facet normal 0.611052 -1.35681e-16 -0.79159
    outer loop
      vertex -0.02244 3.61 5.0854
      vertex -0.02244 -6 5.0854
      vertex -0.08058 3.61 5.04052
    endloop
  endfacet
  facet normal 0.611052 -1.35681e-16 -0.79159
    outer loop
      vertex -0.08058 3.61 5.04052
      vertex -0.02244 -6 5.0854
      vertex -0.08058 -6 5.04052
    endloop
  endfacet
  facet normal 0.341604 -7.58513e-17 -0.939844
    outer loop
      vertex -0.08058 3.61 5.04052
      vertex -0.08058 -6 5.04052
      vertex -0.63342 3.61 4.83958
    endloop
  endfacet
  facet normal 0.341604 -7.58513e-17 -0.939844
    outer loop
      vertex -0.63342 3.61 4.83958
      vertex -0.08058 -6 5.04052
      vertex -0.63342 -6 4.83958
    endloop
  endfacet
  facet normal 0.611052 -1.35681e-16 -0.79159
    outer loop
      vertex -0.63342 3.61 4.83958
      vertex -0.63342 -6 4.83958
      vertex -0.69156 3.61 4.7947
    endloop
  endfacet
  facet normal 0.611052 -1.35681e-16 -0.79159
    outer loop
      vertex -0.69156 3.61 4.7947
      vertex -0.63342 -6 4.83958
      vertex -0.69156 -6 4.7947
    endloop
  endfacet
  facet normal 0.952744 -2.11552e-16 -0.303774
    outer loop
      vertex -0.713909 3.61 4.7246
      vertex -0.69156 3.61 4.7947
      vertex -0.69156 -6 4.7947
    endloop
  endfacet
  facet normal 0.952744 -2.11552e-16 -0.303774
    outer loop
      vertex -0.713909 -6 4.7246
      vertex -0.713909 3.61 4.7246
      vertex -0.69156 -6 4.7947
    endloop
  endfacet
  facet normal 1 -2.22045e-16 2.22045e-16
    outer loop
      vertex -0.713909 -6 3.8754
      vertex -0.713909 3.61 3.8754
      vertex -0.713909 3.61 4.7246
    endloop
  endfacet
  facet normal 1 -2.22045e-16 2.22045e-16
    outer loop
      vertex -0.713909 -6 4.7246
      vertex -0.713909 -6 3.8754
      vertex -0.713909 3.61 4.7246
    endloop
  endfacet
  facet normal 0.952744 -2.11552e-16 0.303774
    outer loop
      vertex -0.69156 -6 3.8053
      vertex -0.69156 3.61 3.8053
      vertex -0.713909 3.61 3.8754
    endloop
  endfacet
  facet normal 0.952744 -2.11552e-16 0.303774
    outer loop
      vertex -0.713909 -6 3.8754
      vertex -0.69156 -6 3.8053
      vertex -0.713909 3.61 3.8754
    endloop
  endfacet
  facet normal 0.611052 -1.35681e-16 0.79159
    outer loop
      vertex -0.63342 -6 3.76042
      vertex -0.63342 3.61 3.76042
      vertex -0.69156 3.61 3.8053
    endloop
  endfacet
  facet normal 0.611052 -1.35681e-16 0.79159
    outer loop
      vertex -0.69156 -6 3.8053
      vertex -0.63342 -6 3.76042
      vertex -0.69156 3.61 3.8053
    endloop
  endfacet
  facet normal 0.341604 -7.58513e-17 0.939844
    outer loop
      vertex -0.08058 -6 3.55948
      vertex -0.08058 3.61 3.55948
      vertex -0.63342 3.61 3.76042
    endloop
  endfacet
  facet normal 0.341604 -7.58513e-17 0.939844
    outer loop
      vertex -0.63342 -6 3.76042
      vertex -0.08058 -6 3.55948
      vertex -0.63342 3.61 3.76042
    endloop
  endfacet
  facet normal 0.611052 -1.35681e-16 0.79159
    outer loop
      vertex -0.02244 -6 3.5146
      vertex -0.02244 3.61 3.5146
      vertex -0.08058 3.61 3.55948
    endloop
  endfacet
  facet normal 0.611052 -1.35681e-16 0.79159
    outer loop
      vertex -0.08058 -6 3.55948
      vertex -0.02244 -6 3.5146
      vertex -0.08058 3.61 3.55948
    endloop
  endfacet
  facet normal 0.952744 -2.11552e-16 0.303774
    outer loop
      vertex 1.5667e-15 -6 3.44422
      vertex 3.70055e-15 3.61 3.44422
      vertex -0.02244 3.61 3.5146
    endloop
  endfacet
  facet normal 0.952744 -2.11552e-16 0.303774
    outer loop
      vertex -0.02244 -6 3.5146
      vertex 1.5667e-15 -6 3.44422
      vertex -0.02244 3.61 3.5146
    endloop
  endfacet
  facet normal 1 -2.22045e-16 2.22045e-16
    outer loop
      vertex 1.75287e-15 -6 2.60578
      vertex 3.88672e-15 3.61 2.60578
      vertex 3.70055e-15 3.61 3.44422
    endloop
  endfacet
  facet normal 1 -2.22045e-16 2.22045e-16
    outer loop
      vertex 1.5667e-15 -6 3.44422
      vertex 1.75287e-15 -6 2.60578
      vertex 3.70055e-15 3.61 3.44422
    endloop
  endfacet
  facet normal 0.952744 -2.11552e-16 -0.303774
    outer loop
      vertex -0.02244 3.61 2.5354
      vertex 3.88672e-15 3.61 2.60578
      vertex 1.75287e-15 -6 2.60578
    endloop
  endfacet
  facet normal 0.952744 -2.11552e-16 -0.303774
    outer loop
      vertex -0.02244 -6 2.5354
      vertex -0.02244 3.61 2.5354
      vertex 1.75287e-15 -6 2.60578
    endloop
  endfacet
  facet normal 0.611052 -1.35681e-16 -0.79159
    outer loop
      vertex -0.02244 3.61 2.5354
      vertex -0.02244 -6 2.5354
      vertex -0.08058 3.61 2.49052
    endloop
  endfacet
  facet normal 0.611052 -1.35681e-16 -0.79159
    outer loop
      vertex -0.08058 3.61 2.49052
      vertex -0.02244 -6 2.5354
      vertex -0.08058 -6 2.49052
    endloop
  endfacet
  facet normal 0.341604 -7.58513e-17 -0.939844
    outer loop
      vertex -0.08058 3.61 2.49052
      vertex -0.08058 -6 2.49052
      vertex -0.63342 3.61 2.28958
    endloop
  endfacet
  facet normal 0.341604 -7.58513e-17 -0.939844
    outer loop
      vertex -0.63342 3.61 2.28958
      vertex -0.08058 -6 2.49052
      vertex -0.63342 -6 2.28958
    endloop
  endfacet
  facet normal 0.611052 -1.35681e-16 -0.79159
    outer loop
      vertex -0.63342 3.61 2.28958
      vertex -0.63342 -6 2.28958
      vertex -0.69156 3.61 2.2447
    endloop
  endfacet
  facet normal 0.611052 -1.35681e-16 -0.79159
    outer loop
      vertex -0.69156 3.61 2.2447
      vertex -0.63342 -6 2.28958
      vertex -0.69156 -6 2.2447
    endloop
  endfacet
  facet normal 0.952744 -2.11552e-16 -0.303774
    outer loop
      vertex -0.713909 3.61 2.1746
      vertex -0.69156 3.61 2.2447
      vertex -0.69156 -6 2.2447
    endloop
  endfacet
  facet normal 0.952744 -2.11552e-16 -0.303774
    outer loop
      vertex -0.713909 -6 2.1746
      vertex -0.713909 3.61 2.1746
      vertex -0.69156 -6 2.2447
    endloop
  endfacet
  facet normal 1 -2.22045e-16 2.22045e-16
    outer loop
      vertex -0.713909 -6 1.3254
      vertex -0.713909 3.61 1.3254
      vertex -0.713909 3.61 2.1746
    endloop
  endfacet
  facet normal 1 -2.22045e-16 2.22045e-16
    outer loop
      vertex -0.713909 -6 2.1746
      vertex -0.713909 -6 1.3254
      vertex -0.713909 3.61 2.1746
    endloop
  endfacet
  facet normal 0.952744 -2.11552e-16 0.303774
    outer loop
      vertex -0.69156 -6 1.2553
      vertex -0.69156 3.61 1.2553
      vertex -0.713909 3.61 1.3254
    endloop
  endfacet
  facet normal 0.952744 -2.11552e-16 0.303774
    outer loop
      vertex -0.713909 -6 1.3254
      vertex -0.69156 -6 1.2553
      vertex -0.713909 3.61 1.3254
    endloop
  endfacet
  facet normal 0.611052 -1.35681e-16 0.79159
    outer loop
      vertex -0.67174 -6 1.24
      vertex -0.67174 3.61 1.24
      vertex -0.69156 3.61 1.2553
    endloop
  endfacet
  facet normal 0.611052 -1.35681e-16 0.79159
    outer loop
      vertex -0.69156 -6 1.2553
      vertex -0.67174 -6 1.24
      vertex -0.69156 3.61 1.2553
    endloop
  endfacet
  facet normal -2.22045e-16 0 1
    outer loop
      vertex 0.612 -6 1.24
      vertex 0.612 3.61 1.24
      vertex -0.67174 3.61 1.24
    endloop
  endfacet
  facet normal -2.22045e-16 0 1
    outer loop
      vertex -0.67174 -6 1.24
      vertex 0.612 -6 1.24
      vertex -0.67174 3.61 1.24
    endloop
  endfacet
  facet normal -1 2.22045e-16 -2.22045e-16
    outer loop
      vertex 0.612 3.5 14
      vertex 0.612 3.61 14
      vertex 0.612 3.5 1.24
    endloop
  endfacet
  facet normal -1 2.22045e-16 -2.22045e-16
    outer loop
      vertex 0.612 3.61 1.24
      vertex 0.612 -6 1.24
      vertex 0.612 3.5 1.24
    endloop
  endfacet
  facet normal -1 2.22045e-16 -2.22045e-16
    outer loop
      vertex 0.612 3.61 1.24
      vertex 0.612 3.5 1.24
      vertex 0.612 3.61 14
    endloop
  endfacet
  facet normal 0 0 1
    outer loop
      vertex 1.3 -6 1.24
      vertex 1.3 3.5 1.24
      vertex 0.612 3.5 1.24
    endloop
  endfacet
  facet normal 0 0 1
    outer loop
      vertex 0.612 -6 1.24
      vertex 1.3 -6 1.24
      vertex 0.612 3.5 1.24
    endloop
  endfacet
  facet normal -1 0 0
    outer loop
      vertex 1.3 3.5 14
      vertex 1.3 3.5 1.24
      vertex 1.3 -6 14
    endloop
  endfacet
  facet normal -1 0 0
    outer loop
      vertex 1.3 -6 14
      vertex 1.3 3.5 1.24
      vertex 1.3 -6 1.24
    endloop
  endfacet
  facet normal 0.707107 0 0.707107
    outer loop
      vertex 2.3 -2.7 13.9635
      vertex 2.26346 -6 14
      vertex 10.5 -6 5.76346
    endloop
  endfacet
  facet normal 0.707107 0 0.707107
    outer loop
      vertex 2.26346 6 14
      vertex 2.26346 -6 14
      vertex 2.3 -2.7 13.9635
    endloop
  endfacet
  facet normal 0.707107 0 0.707107
    outer loop
      vertex 2.3 2.7 13.9635
      vertex 10.5 2.7 5.76346
      vertex 2.26346 6 14
    endloop
  endfacet
  facet normal 0.707107 0 0.707107
    outer loop
      vertex 2.26346 6 14
      vertex 2.3 -2.7 13.9635
      vertex 2.3 2.7 13.9635
    endloop
  endfacet
  facet normal 0.707107 0 0.707107
    outer loop
      vertex 10.5 6 5.76346
      vertex 2.26346 6 14
      vertex 10.5 2.7 5.76346
    endloop
  endfacet
  facet normal 0.707107 0 0.707107
    outer loop
      vertex 10.5 -2.7 5.76346
      vertex 2.3 -2.7 13.9635
      vertex 10.5 -6 5.76346
    endloop
  endfacet
  facet normal 1 0 0
    outer loop
      vertex 10.5 -2.7 3
      vertex 10.5 -6 0
      vertex 10.5 6 0
    endloop
  endfacet
  facet normal 1 0 0
    outer loop
      vertex 10.5 -2.7 3
      vertex 10.5 -2.7 5.76346
      vertex 10.5 -6 5.76346
    endloop
  endfacet
  facet normal 1 0 0
    outer loop
      vertex 10.5 6 5.76346
      vertex 10.5 2.7 5.76346
      vertex 10.5 6 0
    endloop
  endfacet
  facet normal 1 0 0
    outer loop
      vertex 10.5 2.7 5.76346
      vertex 10.5 2.7 3
      vertex 10.5 6 0
    endloop
  endfacet
  facet normal 1 0 0
    outer loop
      vertex 10.5 -6 5.76346
      vertex 10.5 -6 0
      vertex 10.5 -2.7 3
    endloop
  endfacet
  facet normal 1 0 0
    outer loop
      vertex 10.5 2.7 3
      vertex 10.5 -2.7 3
      vertex 10.5 6 0
    endloop
  endfacet
  facet normal 0.900969 0.433884 0
    outer loop
      vertex -6.83136 2.2427e-16 3
      vertex -6.14183 -1.43182 3
      vertex -6.14183 -1.43182 0
    endloop
  endfacet
  facet normal 0.900969 0.433884 0
    outer loop
      vertex -6.83136 2.2427e-16 0
      vertex -6.83136 2.2427e-16 3
      vertex -6.14183 -1.43182 0
    endloop
  endfacet
  facet normal 0.900969 -0.433884 0
    outer loop
      vertex -6.14183 1.43182 0
      vertex -6.14183 1.43182 3
      vertex -6.83136 2.2427e-16 3
    endloop
  endfacet
  facet normal 0.900969 -0.433884 0
    outer loop
      vertex -6.83136 2.2427e-16 0
      vertex -6.14183 1.43182 0
      vertex -6.83136 2.2427e-16 3
    endloop
  endfacet
  facet normal 0.222521 -0.974928 0
    outer loop
      vertex -4.59248 1.78545 0
      vertex -4.59248 1.78545 3
      vertex -6.14183 1.43182 3
    endloop
  endfacet
  facet normal 0.222521 -0.974928 0
    outer loop
      vertex -6.14183 1.43182 0
      vertex -4.59248 1.78545 0
      vertex -6.14183 1.43182 3
    endloop
  endfacet
  facet normal -0.62349 -0.781831 0
    outer loop
      vertex -3.35 0.794598 0
      vertex -3.35 0.794598 3
      vertex -4.59248 1.78545 3
    endloop
  endfacet
  facet normal -0.62349 -0.781831 0
    outer loop
      vertex -4.59248 1.78545 0
      vertex -3.35 0.794598 0
      vertex -4.59248 1.78545 3
    endloop
  endfacet
  facet normal -1 1.22461e-16 0
    outer loop
      vertex -3.35 0.794598 3
      vertex -3.35 0.794598 0
      vertex -3.35 -0.794598 3
    endloop
  endfacet
  facet normal -1 1.22461e-16 0
    outer loop
      vertex -3.35 -0.794598 3
      vertex -3.35 0.794598 0
      vertex -3.35 -0.794598 0
    endloop
  endfacet
  facet normal -0.62349 0.781831 0
    outer loop
      vertex -3.35 -0.794598 3
      vertex -3.35 -0.794598 0
      vertex -4.59248 -1.78545 3
    endloop
  endfacet
  facet normal -0.62349 0.781831 0
    outer loop
      vertex -4.59248 -1.78545 3
      vertex -3.35 -0.794598 0
      vertex -4.59248 -1.78545 0
    endloop
  endfacet
  facet normal 0.222521 0.974928 0
    outer loop
      vertex -4.59248 -1.78545 3
      vertex -4.59248 -1.78545 0
      vertex -6.14183 -1.43182 3
    endloop
  endfacet
  facet normal 0.222521 0.974928 0
    outer loop
      vertex -6.14183 -1.43182 3
      vertex -4.59248 -1.78545 0
      vertex -6.14183 -1.43182 0
    endloop
  endfacet
  facet normal 0.900969 -0.433884 0
    outer loop
      vertex 3.85817 1.43182 0
      vertex 3.85817 1.43182 3
      vertex 3.16864 2.2427e-16 3
    endloop
  endfacet
  facet normal 0.900969 -0.433884 0
    outer loop
      vertex 3.16864 2.2427e-16 0
      vertex 3.85817 1.43182 0
      vertex 3.16864 2.2427e-16 3
    endloop
  endfacet
  facet normal 0.900969 0.433884 0
    outer loop
      vertex 3.16864 2.2427e-16 3
      vertex 3.85816 -1.43182 3
      vertex 3.85816 -1.43182 0
    endloop
  endfacet
  facet normal 0.900969 0.433884 0
    outer loop
      vertex 3.16864 2.2427e-16 0
      vertex 3.16864 2.2427e-16 3
      vertex 3.85816 -1.43182 0
    endloop
  endfacet
  facet normal 0.222521 -0.974928 0
    outer loop
      vertex 5.40752 1.78545 0
      vertex 5.40752 1.78545 3
      vertex 3.85817 1.43182 3
    endloop
  endfacet
  facet normal 0.222521 -0.974928 0
    outer loop
      vertex 3.85817 1.43182 0
      vertex 5.40752 1.78545 0
      vertex 3.85817 1.43182 3
    endloop
  endfacet
  facet normal -0.62349 -0.781831 0
    outer loop
      vertex 6.65 0.794598 0
      vertex 6.65 0.794598 3
      vertex 5.40752 1.78545 3
    endloop
  endfacet
  facet normal -0.62349 -0.781831 0
    outer loop
      vertex 5.40752 1.78545 0
      vertex 6.65 0.794598 0
      vertex 5.40752 1.78545 3
    endloop
  endfacet
  facet normal -1 1.22461e-16 0
    outer loop
      vertex 6.65 0.794598 3
      vertex 6.65 0.794598 0
      vertex 6.65 -0.794598 3
    endloop
  endfacet
  facet normal -1 1.22461e-16 0
    outer loop
      vertex 6.65 -0.794598 3
      vertex 6.65 0.794598 0
      vertex 6.65 -0.794598 0
    endloop
  endfacet
  facet normal -0.62349 0.781831 0
    outer loop
      vertex 6.65 -0.794598 3
      vertex 6.65 -0.794598 0
      vertex 5.40752 -1.78545 3
    endloop
  endfacet
  facet normal -0.62349 0.781831 0
    outer loop
      vertex 5.40752 -1.78545 3
      vertex 6.65 -0.794598 0
      vertex 5.40752 -1.78545 0
    endloop
  endfacet
  facet normal 0.222521 0.974928 0
    outer loop
      vertex 5.40752 -1.78545 3
      vertex 5.40752 -1.78545 0
      vertex 3.85816 -1.43182 3
    endloop
  endfacet
  facet normal 0.222521 0.974928 0
    outer loop
      vertex 3.85816 -1.43182 3
      vertex 5.40752 -1.78545 0
      vertex 3.85816 -1.43182 0
    endloop
  endfacet
  facet normal -1 0 0
    outer loop
      vertex -2.3 2.7 13.9635
      vertex -2.3 2.7 3
      vertex -2.3 -2.7 13.9635
    endloop
  endfacet
  facet normal -1 0 0
    outer loop
      vertex -2.3 -2.7 13.9635
      vertex -2.3 2.7 3
      vertex -2.3 -2.7 3
    endloop
  endfacet
  facet normal 0 -1 0
    outer loop
      vertex 0.612 3.5 1.24
      vertex 1.3 3.5 1.24
      vertex 1.3 3.5 14
    endloop
  endfacet
  facet normal 0 -1 0
    outer loop
      vertex 0.612 3.5 14
      vertex 0.612 3.5 1.24
      vertex 1.3 3.5 14
    endloop
  endfacet
  facet normal -2.22045e-16 -1 -4.93038e-32
    outer loop
      vertex -0.02244 3.61 10.1854
      vertex -0.08058 3.61 8.65948
      vertex 2.18808e-15 3.61 10.2558
    endloop
  endfacet
  facet normal -2.22045e-16 -1 -4.93038e-32
    outer loop
      vertex -0.713909 3.61 11.5254
      vertex -0.69156 3.61 11.4553
      vertex -0.63342 3.61 11.4104
    endloop
  endfacet
  facet normal -2.22045e-16 -1 -4.93038e-32
    outer loop
      vertex -0.02244 3.61 12.7354
      vertex -0.713909 3.61 11.5254
      vertex -0.08058 3.61 11.2095
    endloop
  endfacet
  facet normal -2.22045e-16 -1 -4.93038e-32
    outer loop
      vertex -0.08058 3.61 11.2095
      vertex -0.713909 3.61 11.5254
      vertex -0.63342 3.61 11.4104
    endloop
  endfacet
  facet normal -2.22045e-16 -1 -4.93038e-32
    outer loop
      vertex 0.612 3.61 14
      vertex -0.08058 3.61 11.2095
      vertex -0.02244 3.61 11.1646
    endloop
  endfacet
  facet normal -2.22045e-16 -1 -4.93038e-32
    outer loop
      vertex 0.612 3.61 14
      vertex -0.02244 3.61 11.1646
      vertex 2.00191e-15 3.61 11.0942
    endloop
  endfacet
  facet normal -2.22045e-16 -1 -4.93038e-32
    outer loop
      vertex 0.612 3.61 1.24
      vertex 2.00191e-15 3.61 11.0942
      vertex 2.18808e-15 3.61 10.2558
    endloop
  endfacet
  facet normal -2.22045e-16 -1 -4.93038e-32
    outer loop
      vertex -0.08058 3.61 10.1405
      vertex -0.713909 3.61 8.9754
      vertex -0.02244 3.61 10.1854
    endloop
  endfacet
  facet normal -2.22045e-16 -1 -4.93038e-32
    outer loop
      vertex -0.63342 3.61 9.93958
      vertex -0.69156 3.61 9.8947
      vertex -0.08058 3.61 10.1405
    endloop
  endfacet
  facet normal -2.22045e-16 -1 -4.93038e-32
    outer loop
      vertex -0.08058 3.61 10.1405
      vertex -0.69156 3.61 9.8947
      vertex -0.713909 3.61 9.8246
    endloop
  endfacet
  facet normal -2.22045e-16 -1 -4.93038e-32
    outer loop
      vertex -0.08058 3.61 10.1405
      vertex -0.713909 3.61 9.8246
      vertex -0.713909 3.61 8.9754
    endloop
  endfacet
  facet normal -2.22045e-16 -1 -4.93038e-32
    outer loop
      vertex -0.02244 3.61 10.1854
      vertex -0.713909 3.61 8.9754
      vertex -0.69156 3.61 8.9053
    endloop
  endfacet
  facet normal -2.22045e-16 -1 -4.93038e-32
    outer loop
      vertex -0.02244 3.61 10.1854
      vertex -0.69156 3.61 8.9053
      vertex -0.63342 3.61 8.86042
    endloop
  endfacet
  facet normal -2.22045e-16 -1 -4.93038e-32
    outer loop
      vertex 2.18808e-15 3.61 10.2558
      vertex -0.08058 3.61 8.65948
      vertex -0.02244 3.61 8.6146
    endloop
  endfacet
  facet normal -2.22045e-16 -1 -4.93038e-32
    outer loop
      vertex -0.02244 3.61 10.1854
      vertex -0.63342 3.61 8.86042
      vertex -0.08058 3.61 8.65948
    endloop
  endfacet
  facet normal -2.22045e-16 -1 -4.93038e-32
    outer loop
      vertex 2.18808e-15 3.61 10.2558
      vertex -0.02244 3.61 8.6146
      vertex 2.56812e-15 3.61 8.54422
    endloop
  endfacet
  facet normal -2.22045e-16 -1 -4.93038e-32
    outer loop
      vertex 2.18808e-15 3.61 10.2558
      vertex 2.56812e-15 3.61 8.54422
      vertex 0.612 3.61 1.24
    endloop
  endfacet
  facet normal -2.22045e-16 -1 -4.93038e-32
    outer loop
      vertex 2.56812e-15 3.61 8.54422
      vertex 2.75429e-15 3.61 7.70578
      vertex 0.612 3.61 1.24
    endloop
  endfacet
  facet normal -2.22045e-16 -1 -4.93038e-32
    outer loop
      vertex 2.75429e-15 3.61 7.70578
      vertex -0.02244 3.61 7.6354
      vertex -0.08058 3.61 6.10948
    endloop
  endfacet
  facet normal -2.22045e-16 -1 -4.93038e-32
    outer loop
      vertex -0.02244 3.61 7.6354
      vertex -0.08058 3.61 7.59052
      vertex -0.713909 3.61 6.4254
    endloop
  endfacet
  facet normal -2.22045e-16 -1 -4.93038e-32
    outer loop
      vertex -0.08058 3.61 7.59052
      vertex -0.63342 3.61 7.38958
      vertex -0.69156 3.61 7.3447
    endloop
  endfacet
  facet normal -2.22045e-16 -1 -4.93038e-32
    outer loop
      vertex -0.08058 3.61 7.59052
      vertex -0.69156 3.61 7.3447
      vertex -0.713909 3.61 7.2746
    endloop
  endfacet
  facet normal -2.22045e-16 -1 -4.93038e-32
    outer loop
      vertex -0.08058 3.61 7.59052
      vertex -0.713909 3.61 7.2746
      vertex -0.713909 3.61 6.4254
    endloop
  endfacet
  facet normal -2.22045e-16 -1 -4.93038e-32
    outer loop
      vertex -0.02244 3.61 7.6354
      vertex -0.713909 3.61 6.4254
      vertex -0.69156 3.61 6.3553
    endloop
  endfacet
  facet normal -2.22045e-16 -1 -4.93038e-32
    outer loop
      vertex -0.02244 3.61 7.6354
      vertex -0.69156 3.61 6.3553
      vertex -0.63342 3.61 6.31042
    endloop
  endfacet
  facet normal -2.22045e-16 -1 -4.93038e-32
    outer loop
      vertex 2.75429e-15 3.61 7.70578
      vertex -0.08058 3.61 6.10948
      vertex -0.02244 3.61 6.0646
    endloop
  endfacet
  facet normal -2.22045e-16 -1 -4.93038e-32
    outer loop
      vertex -0.02244 3.61 7.6354
      vertex -0.63342 3.61 6.31042
      vertex -0.08058 3.61 6.10948
    endloop
  endfacet
  facet normal -2.22045e-16 -1 -4.93038e-32
    outer loop
      vertex 2.75429e-15 3.61 7.70578
      vertex -0.02244 3.61 6.0646
      vertex 3.13433e-15 3.61 5.99422
    endloop
  endfacet
  facet normal -2.22045e-16 -1 -4.93038e-32
    outer loop
      vertex 2.75429e-15 3.61 7.70578
      vertex 3.13433e-15 3.61 5.99422
      vertex 0.612 3.61 1.24
    endloop
  endfacet
  facet normal -2.22045e-16 -1 -4.93038e-32
    outer loop
      vertex 3.13433e-15 3.61 5.99422
      vertex 3.3205e-15 3.61 5.15578
      vertex 0.612 3.61 1.24
    endloop
  endfacet
  facet normal -2.22045e-16 -1 -4.93038e-32
    outer loop
      vertex 3.3205e-15 3.61 5.15578
      vertex -0.02244 3.61 5.0854
      vertex -0.08058 3.61 3.55948
    endloop
  endfacet
  facet normal -2.22045e-16 -1 -4.93038e-32
    outer loop
      vertex -0.02244 3.61 5.0854
      vertex -0.08058 3.61 5.04052
      vertex -0.713909 3.61 3.8754
    endloop
  endfacet
  facet normal -2.22045e-16 -1 -4.93038e-32
    outer loop
      vertex -0.08058 3.61 5.04052
      vertex -0.63342 3.61 4.83958
      vertex -0.69156 3.61 4.7947
    endloop
  endfacet
  facet normal -2.22045e-16 -1 -4.93038e-32
    outer loop
      vertex -0.08058 3.61 5.04052
      vertex -0.69156 3.61 4.7947
      vertex -0.713909 3.61 4.7246
    endloop
  endfacet
  facet normal -2.22045e-16 -1 -4.93038e-32
    outer loop
      vertex -0.08058 3.61 5.04052
      vertex -0.713909 3.61 4.7246
      vertex -0.713909 3.61 3.8754
    endloop
  endfacet
  facet normal -2.22045e-16 -1 -4.93038e-32
    outer loop
      vertex -0.02244 3.61 5.0854
      vertex -0.713909 3.61 3.8754
      vertex -0.69156 3.61 3.8053
    endloop
  endfacet
  facet normal -2.22045e-16 -1 -4.93038e-32
    outer loop
      vertex -0.02244 3.61 5.0854
      vertex -0.69156 3.61 3.8053
      vertex -0.63342 3.61 3.76042
    endloop
  endfacet
  facet normal -2.22045e-16 -1 -4.93038e-32
    outer loop
      vertex 3.3205e-15 3.61 5.15578
      vertex -0.08058 3.61 3.55948
      vertex -0.02244 3.61 3.5146
    endloop
  endfacet
  facet normal -2.22045e-16 -1 -4.93038e-32
    outer loop
      vertex -0.02244 3.61 5.0854
      vertex -0.63342 3.61 3.76042
      vertex -0.08058 3.61 3.55948
    endloop
  endfacet
  facet normal -2.22045e-16 -1 -4.93038e-32
    outer loop
      vertex 3.3205e-15 3.61 5.15578
      vertex -0.02244 3.61 3.5146
      vertex 3.70055e-15 3.61 3.44422
    endloop
  endfacet
  facet normal -2.22045e-16 -1 -4.93038e-32
    outer loop
      vertex 3.3205e-15 3.61 5.15578
      vertex 3.70055e-15 3.61 3.44422
      vertex 0.612 3.61 1.24
    endloop
  endfacet
  facet normal -2.22045e-16 -1 -4.93038e-32
    outer loop
      vertex 3.70055e-15 3.61 3.44422
      vertex 3.88672e-15 3.61 2.60578
      vertex 0.612 3.61 1.24
    endloop
  endfacet
  facet normal -2.22045e-16 -1 -4.93038e-32
    outer loop
      vertex 3.88672e-15 3.61 2.60578
      vertex -0.02244 3.61 2.5354
      vertex 0.612 3.61 1.24
    endloop
  endfacet
  facet normal -2.22045e-16 -1 -4.93038e-32
    outer loop
      vertex -0.02244 3.61 2.5354
      vertex -0.08058 3.61 2.49052
      vertex -0.713909 3.61 1.3254
    endloop
  endfacet
  facet normal -2.22045e-16 -1 -4.93038e-32
    outer loop
      vertex -0.08058 3.61 2.49052
      vertex -0.63342 3.61 2.28958
      vertex -0.69156 3.61 2.2447
    endloop
  endfacet
  facet normal -2.22045e-16 -1 -4.93038e-32
    outer loop
      vertex -0.08058 3.61 2.49052
      vertex -0.69156 3.61 2.2447
      vertex -0.713909 3.61 2.1746
    endloop
  endfacet
  facet normal -2.22045e-16 -1 -4.93038e-32
    outer loop
      vertex -0.08058 3.61 2.49052
      vertex -0.713909 3.61 2.1746
      vertex -0.713909 3.61 1.3254
    endloop
  endfacet
  facet normal -2.22045e-16 -1 -4.93038e-32
    outer loop
      vertex -0.02244 3.61 2.5354
      vertex -0.713909 3.61 1.3254
      vertex -0.69156 3.61 1.2553
    endloop
  endfacet
  facet normal -2.22045e-16 -1 -4.93038e-32
    outer loop
      vertex -0.02244 3.61 2.5354
      vertex -0.69156 3.61 1.2553
      vertex -0.67174 3.61 1.24
    endloop
  endfacet
  facet normal -2.22045e-16 -1 -4.93038e-32
    outer loop
      vertex -0.02244 3.61 2.5354
      vertex -0.67174 3.61 1.24
      vertex 0.612 3.61 1.24
    endloop
  endfacet
  facet normal -2.22045e-16 -1 -4.93038e-32
    outer loop
      vertex 2.00191e-15 3.61 11.0942
      vertex 0.612 3.61 1.24
      vertex 0.612 3.61 14
    endloop
  endfacet
  facet normal -2.22045e-16 -1 -4.93038e-32
    outer loop
      vertex -0.63342 3.61 13.9604
      vertex 0.612 3.61 14
      vertex -0.684694 3.61 14
    endloop
  endfacet
  facet normal -2.22045e-16 -1 -4.93038e-32
    outer loop
      vertex -0.08058 3.61 13.7595
      vertex 0.612 3.61 14
      vertex -0.63342 3.61 13.9604
    endloop
  endfacet
  facet normal -2.22045e-16 -1 -4.93038e-32
    outer loop
      vertex -0.02244 3.61 13.7146
      vertex 0.612 3.61 14
      vertex -0.08058 3.61 13.7595
    endloop
  endfacet
  facet normal -2.22045e-16 -1 -4.93038e-32
    outer loop
      vertex -0.63342 3.61 12.4896
      vertex -0.69156 3.61 12.4447
      vertex -0.713909 3.61 11.5254
    endloop
  endfacet
  facet normal -2.22045e-16 -1 -4.93038e-32
    outer loop
      vertex 1.43569e-15 3.61 13.6442
      vertex 0.612 3.61 14
      vertex -0.02244 3.61 13.7146
    endloop
  endfacet
  facet normal -2.22045e-16 -1 -4.93038e-32
    outer loop
      vertex 0.612 3.61 14
      vertex 1.62186e-15 3.61 12.8058
      vertex -0.08058 3.61 11.2095
    endloop
  endfacet
  facet normal -2.22045e-16 -1 -4.93038e-32
    outer loop
      vertex 1.62186e-15 3.61 12.8058
      vertex -0.02244 3.61 12.7354
      vertex -0.08058 3.61 11.2095
    endloop
  endfacet
  facet normal -2.22045e-16 -1 -4.93038e-32
    outer loop
      vertex -0.02244 3.61 12.7354
      vertex -0.08058 3.61 12.6905
      vertex -0.713909 3.61 11.5254
    endloop
  endfacet
  facet normal -2.22045e-16 -1 -4.93038e-32
    outer loop
      vertex -0.69156 3.61 12.4447
      vertex -0.713909 3.61 12.3746
      vertex -0.713909 3.61 11.5254
    endloop
  endfacet
  facet normal -2.22045e-16 -1 -4.93038e-32
    outer loop
      vertex 1.43569e-15 3.61 13.6442
      vertex 1.62186e-15 3.61 12.8058
      vertex 0.612 3.61 14
    endloop
  endfacet
  facet normal -2.22045e-16 -1 -4.93038e-32
    outer loop
      vertex -0.08058 3.61 12.6905
      vertex -0.63342 3.61 12.4896
      vertex -0.713909 3.61 11.5254
    endloop
  endfacet
  facet normal 0 -1 0
    outer loop
      vertex 10.5 2.7 3
      vertex 10.5 2.7 5.76346
      vertex 2.3 2.7 13.9635
    endloop
  endfacet
  facet normal 0 -1 0
    outer loop
      vertex 2.3 2.7 3
      vertex 10.5 2.7 3
      vertex 2.3 2.7 13.9635
    endloop
  endfacet
  facet normal 1 0 0
    outer loop
      vertex 2.3 2.7 3
      vertex 2.3 2.7 13.9635
      vertex 2.3 -2.7 13.9635
    endloop
  endfacet
  facet normal 1 0 0
    outer loop
      vertex 2.3 -2.7 3
      vertex 2.3 2.7 3
      vertex 2.3 -2.7 13.9635
    endloop
  endfacet
  facet normal 0 1 0
    outer loop
      vertex 10.5 -2.7 5.76346
      vertex 10.5 -2.7 3
      vertex 2.3 -2.7 13.9635
    endloop
  endfacet
  facet normal 0 1 0
    outer loop
      vertex 2.3 -2.7 13.9635
      vertex 10.5 -2.7 3
      vertex 2.3 -2.7 3
    endloop
  endfacet
  facet normal 0 0 1
    outer loop
      vertex 5.40752 1.78545 3
      vertex 10.5 2.7 3
      vertex 2.3 2.7 3
    endloop
  endfacet
  facet normal 0 0 1
    outer loop
      vertex 2.3 -2.7 3
      vertex 3.16864 2.2427e-16 3
      vertex 2.3 2.7 3
    endloop
  endfacet
  facet normal 0 0 1
    outer loop
      vertex 3.16864 2.2427e-16 3
      vertex 3.85817 1.43182 3
      vertex 2.3 2.7 3
    endloop
  endfacet
  facet normal 0 0 1
    outer loop
      vertex 6.65 0.794598 3
      vertex 10.5 2.7 3
      vertex 5.40752 1.78545 3
    endloop
  endfacet
  facet normal 0 0 1
    outer loop
      vertex 10.5 -2.7 3
      vertex 10.5 2.7 3
      vertex 6.65 0.794598 3
    endloop
  endfacet
  facet normal 0 0 1
    outer loop
      vertex 2.3 -2.7 3
      vertex 10.5 -2.7 3
      vertex 5.40752 -1.78545 3
    endloop
  endfacet
  facet normal 0 0 1
    outer loop
      vertex 2.3 -2.7 3
      vertex 3.85816 -1.43182 3
      vertex 3.16864 2.2427e-16 3
    endloop
  endfacet
  facet normal 0 0 1
    outer loop
      vertex 2.3 -2.7 3
      vertex 5.40752 -1.78545 3
      vertex 3.85816 -1.43182 3
    endloop
  endfacet
  facet normal 0 0 1
    outer loop
      vertex 6.65 -0.794598 3
      vertex 5.40752 -1.78545 3
      vertex 10.5 -2.7 3
    endloop
  endfacet
  facet normal 0 0 1
    outer loop
      vertex 3.85817 1.43182 3
      vertex 5.40752 1.78545 3
      vertex 2.3 2.7 3
    endloop
  endfacet
  facet normal 0 0 1
    outer loop
      vertex 6.65 0.794598 3
      vertex 6.65 -0.794598 3
      vertex 10.5 -2.7 3
    endloop
  endfacet
endsolid OpenSCAD_Model
