solid OpenSCAD_Model
  facet normal 0 -1 0
    outer loop
      vertex -0.62088 3.5 13.9712
      vertex 0.5 3.5 14
      vertex -0.658478 3.5 14
    endloop
  endfacet
  facet normal 0 -1 0
    outer loop
      vertex -0.07901 3.5 13.7736
      vertex 0.5 3.5 14
      vertex -0.62088 3.5 13.9712
    endloop
  endfacet
  facet normal 0 -1 0
    outer loop
      vertex -0.021637 3.5 13.7299
      vertex 0.5 3.5 14
      vertex -0.07901 3.5 13.7736
    endloop
  endfacet
  facet normal 0 -1 0
    outer loop
      vertex 1.4076e-015 3.5 13.6608
      vertex 0.5 3.5 14
      vertex -0.021637 3.5 13.7299
    endloop
  endfacet
  facet normal 0 -1 0
    outer loop
      vertex 1.59001e-015 3.5 12.8392
      vertex 0.5 3.5 14
      vertex 1.4076e-015 3.5 13.6608
    endloop
  endfacet
  facet normal 0 -1 0
    outer loop
      vertex 1.96271e-015 3.5 11.1608
      vertex 1.59001e-015 3.5 12.8392
      vertex -0.021637 3.5 12.7702
    endloop
  endfacet
  facet normal 0 -1 0
    outer loop
      vertex -0.699905 3.5 12.4163
      vertex -0.62088 3.5 12.5292
      vertex -0.678253 3.5 12.485
    endloop
  endfacet
  facet normal 0 -1 -0
    outer loop
      vertex -0.62088 3.5 12.5292
      vertex -0.699905 3.5 12.4163
      vertex -0.07901 3.5 12.7264
    endloop
  endfacet
  facet normal 0 -1 0
    outer loop
      vertex -0.699905 3.5 11.5837
      vertex -0.07901 3.5 12.7264
      vertex -0.699905 3.5 12.4163
    endloop
  endfacet
  facet normal 0 -1 0
    outer loop
      vertex -0.07901 3.5 11.2736
      vertex -0.07901 3.5 12.7264
      vertex -0.699905 3.5 11.5837
    endloop
  endfacet
  facet normal 0 -1 0
    outer loop
      vertex -0.62088 3.5 11.4712
      vertex -0.699905 3.5 11.5837
      vertex -0.678253 3.5 11.5152
    endloop
  endfacet
  facet normal 0 -1 0
    outer loop
      vertex -0.07901 3.5 11.2736
      vertex -0.699905 3.5 11.5837
      vertex -0.62088 3.5 11.4712
    endloop
  endfacet
  facet normal 0 -1 0
    outer loop
      vertex -0.07901 3.5 12.7264
      vertex -0.07901 3.5 11.2736
      vertex -0.021637 3.5 12.7702
    endloop
  endfacet
  facet normal 0 -1 0
    outer loop
      vertex -0.021637 3.5 11.2299
      vertex -0.021637 3.5 12.7702
      vertex -0.07901 3.5 11.2736
    endloop
  endfacet
  facet normal 0 -1 0
    outer loop
      vertex 1.96271e-015 3.5 11.1608
      vertex -0.021637 3.5 12.7702
      vertex -0.021637 3.5 11.2299
    endloop
  endfacet
  facet normal 0 -1 0
    outer loop
      vertex 1.59001e-015 3.5 12.8392
      vertex 1.96271e-015 3.5 11.1608
      vertex 0.5 3.5 14
    endloop
  endfacet
  facet normal 0 -1 0
    outer loop
      vertex 2.14512e-015 3.5 10.3392
      vertex 0.5 3.5 14
      vertex 1.96271e-015 3.5 11.1608
    endloop
  endfacet
  facet normal 0 -1 0
    outer loop
      vertex -0.699905 3.5 9.91628
      vertex -0.62088 3.5 10.0292
      vertex -0.678253 3.5 9.98502
    endloop
  endfacet
  facet normal 0 -1 -0
    outer loop
      vertex -0.62088 3.5 10.0292
      vertex -0.699905 3.5 9.91628
      vertex -0.07901 3.5 10.2264
    endloop
  endfacet
  facet normal 0 -1 0
    outer loop
      vertex -0.699905 3.5 9.08372
      vertex -0.07901 3.5 10.2264
      vertex -0.699905 3.5 9.91628
    endloop
  endfacet
  facet normal 0 -1 0
    outer loop
      vertex -0.07901 3.5 8.77364
      vertex -0.07901 3.5 10.2264
      vertex -0.699905 3.5 9.08372
    endloop
  endfacet
  facet normal 0 -1 0
    outer loop
      vertex -0.62088 3.5 8.97119
      vertex -0.699905 3.5 9.08372
      vertex -0.678253 3.5 9.01515
    endloop
  endfacet
  facet normal 0 -1 0
    outer loop
      vertex -0.07901 3.5 8.77364
      vertex -0.699905 3.5 9.08372
      vertex -0.62088 3.5 8.97119
    endloop
  endfacet
  facet normal 0 -1 0
    outer loop
      vertex -0.07901 3.5 10.2264
      vertex -0.07901 3.5 8.77364
      vertex -0.021637 3.5 10.2702
    endloop
  endfacet
  facet normal 0 -1 0
    outer loop
      vertex -0.021637 3.5 8.72989
      vertex -0.021637 3.5 10.2702
      vertex -0.07901 3.5 8.77364
    endloop
  endfacet
  facet normal 0 -1 0
    outer loop
      vertex -0.021637 3.5 10.2702
      vertex -0.021637 3.5 8.72989
      vertex 2.14512e-015 3.5 10.3392
    endloop
  endfacet
  facet normal 0 -1 0
    outer loop
      vertex 2.51782e-015 3.5 8.66075
      vertex 2.14512e-015 3.5 10.3392
      vertex -0.021637 3.5 8.72989
    endloop
  endfacet
  facet normal 0 -1 0
    outer loop
      vertex 2.14512e-015 3.5 10.3392
      vertex 2.51782e-015 3.5 8.66075
      vertex 0.5 3.5 14
    endloop
  endfacet
  facet normal 0 -1 0
    outer loop
      vertex 2.70023e-015 3.5 7.83925
      vertex 0.5 3.5 14
      vertex 2.51782e-015 3.5 8.66075
    endloop
  endfacet
  facet normal 0 -1 0
    outer loop
      vertex -0.699905 3.5 7.41628
      vertex -0.62088 3.5 7.52916
      vertex -0.678253 3.5 7.48502
    endloop
  endfacet
  facet normal 0 -1 -0
    outer loop
      vertex -0.62088 3.5 7.52916
      vertex -0.699905 3.5 7.41628
      vertex -0.07901 3.5 7.72636
    endloop
  endfacet
  facet normal 0 -1 0
    outer loop
      vertex -0.699905 3.5 6.58372
      vertex -0.07901 3.5 7.72636
      vertex -0.699905 3.5 7.41628
    endloop
  endfacet
  facet normal 0 -1 0
    outer loop
      vertex -0.07901 3.5 6.27364
      vertex -0.07901 3.5 7.72636
      vertex -0.699905 3.5 6.58372
    endloop
  endfacet
  facet normal 0 -1 0
    outer loop
      vertex -0.62088 3.5 6.47119
      vertex -0.699905 3.5 6.58372
      vertex -0.678253 3.5 6.51515
    endloop
  endfacet
  facet normal 0 -1 0
    outer loop
      vertex -0.07901 3.5 6.27364
      vertex -0.699905 3.5 6.58372
      vertex -0.62088 3.5 6.47119
    endloop
  endfacet
  facet normal 0 -1 0
    outer loop
      vertex -0.07901 3.5 7.72636
      vertex -0.07901 3.5 6.27364
      vertex -0.021637 3.5 7.77023
    endloop
  endfacet
  facet normal 0 -1 0
    outer loop
      vertex -0.021637 3.5 6.22989
      vertex -0.021637 3.5 7.77023
      vertex -0.07901 3.5 6.27364
    endloop
  endfacet
  facet normal 0 -1 0
    outer loop
      vertex -0.021637 3.5 7.77023
      vertex -0.021637 3.5 6.22989
      vertex 2.70023e-015 3.5 7.83925
    endloop
  endfacet
  facet normal 0 -1 0
    outer loop
      vertex 3.07293e-015 3.5 6.16075
      vertex 2.70023e-015 3.5 7.83925
      vertex -0.021637 3.5 6.22989
    endloop
  endfacet
  facet normal 0 -1 0
    outer loop
      vertex 0.5 3.5 1.5
      vertex 2.70023e-015 3.5 7.83925
      vertex 3.07293e-015 3.5 6.16075
    endloop
  endfacet
  facet normal 0 -1 0
    outer loop
      vertex 0.5 3.5 1.5
      vertex 3.07293e-015 3.5 6.16075
      vertex 3.25534e-015 3.5 5.33925
    endloop
  endfacet
  facet normal 0 -1 0
    outer loop
      vertex -0.699905 3.5 4.91628
      vertex -0.62088 3.5 5.02916
      vertex -0.678253 3.5 4.98502
    endloop
  endfacet
  facet normal 0 -1 -0
    outer loop
      vertex -0.62088 3.5 5.02916
      vertex -0.699905 3.5 4.91628
      vertex -0.07901 3.5 5.22636
    endloop
  endfacet
  facet normal 0 -1 0
    outer loop
      vertex -0.699905 3.5 4.08372
      vertex -0.07901 3.5 5.22636
      vertex -0.699905 3.5 4.91628
    endloop
  endfacet
  facet normal 0 -1 0
    outer loop
      vertex -0.07901 3.5 3.77364
      vertex -0.07901 3.5 5.22636
      vertex -0.699905 3.5 4.08372
    endloop
  endfacet
  facet normal 0 -1 0
    outer loop
      vertex -0.62088 3.5 3.97119
      vertex -0.699905 3.5 4.08372
      vertex -0.678253 3.5 4.01515
    endloop
  endfacet
  facet normal 0 -1 0
    outer loop
      vertex -0.07901 3.5 3.77364
      vertex -0.699905 3.5 4.08372
      vertex -0.62088 3.5 3.97119
    endloop
  endfacet
  facet normal 0 -1 0
    outer loop
      vertex -0.07901 3.5 5.22636
      vertex -0.07901 3.5 3.77364
      vertex -0.021637 3.5 5.27023
    endloop
  endfacet
  facet normal 0 -1 0
    outer loop
      vertex -0.021637 3.5 3.72989
      vertex -0.021637 3.5 5.27023
      vertex -0.07901 3.5 3.77364
    endloop
  endfacet
  facet normal 0 -1 0
    outer loop
      vertex -0.021637 3.5 5.27023
      vertex -0.021637 3.5 3.72989
      vertex 3.25534e-015 3.5 5.33925
    endloop
  endfacet
  facet normal 0 -1 0
    outer loop
      vertex 3.62804e-015 3.5 3.66075
      vertex 3.25534e-015 3.5 5.33925
      vertex -0.021637 3.5 3.72989
    endloop
  endfacet
  facet normal 0 -1 0
    outer loop
      vertex 0.5 3.5 1.5
      vertex 3.25534e-015 3.5 5.33925
      vertex 3.62804e-015 3.5 3.66075
    endloop
  endfacet
  facet normal 0 -1 0
    outer loop
      vertex 0.5 3.5 1.5
      vertex 3.62804e-015 3.5 3.66075
      vertex 3.81045e-015 3.5 2.83925
    endloop
  endfacet
  facet normal 0 -1 0
    outer loop
      vertex -0.699905 3.5 2.41628
      vertex -0.62088 3.5 2.52916
      vertex -0.678253 3.5 2.48502
    endloop
  endfacet
  facet normal 0 -1 -0
    outer loop
      vertex -0.62088 3.5 2.52916
      vertex -0.699905 3.5 2.41628
      vertex -0.07901 3.5 2.72636
    endloop
  endfacet
  facet normal 0 -1 0
    outer loop
      vertex -0.699905 3.5 1.58372
      vertex -0.07901 3.5 2.72636
      vertex -0.699905 3.5 2.41628
    endloop
  endfacet
  facet normal 0 -1 0
    outer loop
      vertex 0.5 3.5 1.5
      vertex -0.07901 3.5 2.72636
      vertex -0.699905 3.5 1.58372
    endloop
  endfacet
  facet normal 0 -1 0
    outer loop
      vertex -0.658478 3.5 1.5
      vertex -0.699905 3.5 1.58372
      vertex -0.678253 3.5 1.51515
    endloop
  endfacet
  facet normal 0 -1 0
    outer loop
      vertex 0.5 3.5 1.5
      vertex -0.699905 3.5 1.58372
      vertex -0.658478 3.5 1.5
    endloop
  endfacet
  facet normal 0 -1 0
    outer loop
      vertex 2.70023e-015 3.5 7.83925
      vertex 0.5 3.5 1.5
      vertex 0.5 3.5 14
    endloop
  endfacet
  facet normal 0 -1 0
    outer loop
      vertex -0.021637 3.5 2.77023
      vertex 0.5 3.5 1.5
      vertex 3.81045e-015 3.5 2.83925
    endloop
  endfacet
  facet normal 0 -1 0
    outer loop
      vertex -0.07901 3.5 2.72636
      vertex 0.5 3.5 1.5
      vertex -0.021637 3.5 2.77023
    endloop
  endfacet
  facet normal 0.954356 -0 0.298671
    outer loop
      vertex -0.021637 -6 13.7299
      vertex 1.4076e-015 3.5 13.6608
      vertex -0.021637 3.5 13.7299
    endloop
  endfacet
  facet normal 0.954356 -2.1191e-016 0.298671
    outer loop
      vertex 1.4076e-015 3.5 13.6608
      vertex -0.021637 -6 13.7299
      vertex -7.01828e-016 -6 13.6608
    endloop
  endfacet
  facet normal 0.606343 0 0.795203
    outer loop
      vertex -0.07901 3.5 13.7736
      vertex -0.021637 -6 13.7299
      vertex -0.021637 3.5 13.7299
    endloop
  endfacet
  facet normal 0.606343 0 0.795203
    outer loop
      vertex -0.021637 -6 13.7299
      vertex -0.07901 3.5 13.7736
      vertex -0.07901 -6 13.7736
    endloop
  endfacet
  facet normal 0.342527 0 0.939508
    outer loop
      vertex -0.62088 3.5 13.9712
      vertex -0.07901 -6 13.7736
      vertex -0.07901 3.5 13.7736
    endloop
  endfacet
  facet normal 0.342527 0 0.939508
    outer loop
      vertex -0.07901 -6 13.7736
      vertex -0.62088 3.5 13.9712
      vertex -0.62088 -6 13.9712
    endloop
  endfacet
  facet normal 0.60821 0 0.793776
    outer loop
      vertex -0.658478 3.5 14
      vertex -0.62088 -6 13.9712
      vertex -0.62088 3.5 13.9712
    endloop
  endfacet
  facet normal 0.60821 0 0.793776
    outer loop
      vertex -0.62088 -6 13.9712
      vertex -0.658478 3.5 14
      vertex -0.658478 -6 14
    endloop
  endfacet
  facet normal 0.954356 -0 0.298671
    outer loop
      vertex -0.021637 -6 11.2299
      vertex 1.96271e-015 3.5 11.1608
      vertex -0.021637 3.5 11.2299
    endloop
  endfacet
  facet normal 0.954356 -2.1191e-016 0.298671
    outer loop
      vertex 1.96271e-015 3.5 11.1608
      vertex -0.021637 -6 11.2299
      vertex -1.46716e-016 -6 11.1608
    endloop
  endfacet
  facet normal 0.606343 0 0.795203
    outer loop
      vertex -0.07901 3.5 11.2736
      vertex -0.021637 -6 11.2299
      vertex -0.021637 3.5 11.2299
    endloop
  endfacet
  facet normal 0.606343 0 0.795203
    outer loop
      vertex -0.021637 -6 11.2299
      vertex -0.07901 3.5 11.2736
      vertex -0.07901 -6 11.2736
    endloop
  endfacet
  facet normal 0.342527 0 0.939508
    outer loop
      vertex -0.62088 3.5 11.4712
      vertex -0.07901 -6 11.2736
      vertex -0.07901 3.5 11.2736
    endloop
  endfacet
  facet normal 0.342527 0 0.939508
    outer loop
      vertex -0.07901 -6 11.2736
      vertex -0.62088 3.5 11.4712
      vertex -0.62088 -6 11.4712
    endloop
  endfacet
  facet normal 0.60821 0 0.793776
    outer loop
      vertex -0.678253 3.5 11.5152
      vertex -0.62088 -6 11.4712
      vertex -0.62088 3.5 11.4712
    endloop
  endfacet
  facet normal 0.60821 0 0.793776
    outer loop
      vertex -0.62088 -6 11.4712
      vertex -0.678253 3.5 11.5152
      vertex -0.678253 -6 11.5152
    endloop
  endfacet
  facet normal 0.953592 -0 0.301101
    outer loop
      vertex -0.699905 -6 11.5837
      vertex -0.678253 3.5 11.5152
      vertex -0.699905 3.5 11.5837
    endloop
  endfacet
  facet normal 0.953592 0 0.301101
    outer loop
      vertex -0.678253 3.5 11.5152
      vertex -0.699905 -6 11.5837
      vertex -0.678253 -6 11.5152
    endloop
  endfacet
  facet normal 1 -0 0
    outer loop
      vertex -0.699905 -6 12.4163
      vertex -0.699905 3.5 11.5837
      vertex -0.699905 3.5 12.4163
    endloop
  endfacet
  facet normal 1 0 0
    outer loop
      vertex -0.699905 3.5 11.5837
      vertex -0.699905 -6 12.4163
      vertex -0.699905 -6 11.5837
    endloop
  endfacet
  facet normal 0.953803 0 -0.300432
    outer loop
      vertex -0.678253 -6 12.485
      vertex -0.699905 3.5 12.4163
      vertex -0.678253 3.5 12.485
    endloop
  endfacet
  facet normal 0.953803 0 -0.300432
    outer loop
      vertex -0.699905 3.5 12.4163
      vertex -0.678253 -6 12.485
      vertex -0.699905 -6 12.4163
    endloop
  endfacet
  facet normal 0.609802 0 -0.792553
    outer loop
      vertex -0.678253 -6 12.485
      vertex -0.62088 3.5 12.5292
      vertex -0.62088 -6 12.5292
    endloop
  endfacet
  facet normal 0.609802 0 -0.792553
    outer loop
      vertex -0.62088 3.5 12.5292
      vertex -0.678253 -6 12.485
      vertex -0.678253 3.5 12.485
    endloop
  endfacet
  facet normal 0.34199 0 -0.939704
    outer loop
      vertex -0.62088 -6 12.5292
      vertex -0.07901 3.5 12.7264
      vertex -0.07901 -6 12.7264
    endloop
  endfacet
  facet normal 0.34199 0 -0.939704
    outer loop
      vertex -0.07901 3.5 12.7264
      vertex -0.62088 -6 12.5292
      vertex -0.62088 3.5 12.5292
    endloop
  endfacet
  facet normal 0.607411 0 -0.794388
    outer loop
      vertex -0.07901 -6 12.7264
      vertex -0.021637 3.5 12.7702
      vertex -0.021637 -6 12.7702
    endloop
  endfacet
  facet normal 0.607411 0 -0.794388
    outer loop
      vertex -0.021637 3.5 12.7702
      vertex -0.07901 -6 12.7264
      vertex -0.07901 3.5 12.7264
    endloop
  endfacet
  facet normal 0.954206 -2.11876e-016 -0.299152
    outer loop
      vertex -5.19418e-016 -6 12.8392
      vertex -0.021637 3.5 12.7702
      vertex 1.59001e-015 3.5 12.8392
    endloop
  endfacet
  facet normal 0.954206 0 -0.299152
    outer loop
      vertex -0.021637 3.5 12.7702
      vertex -5.19418e-016 -6 12.8392
      vertex -0.021637 -6 12.7702
    endloop
  endfacet
  facet normal 0.954356 -0 0.298671
    outer loop
      vertex -0.021637 -6 8.72989
      vertex 2.51782e-015 3.5 8.66075
      vertex -0.021637 3.5 8.72989
    endloop
  endfacet
  facet normal 0.954356 -2.1191e-016 0.298671
    outer loop
      vertex 2.51782e-015 3.5 8.66075
      vertex -0.021637 -6 8.72989
      vertex 4.08395e-016 -6 8.66075
    endloop
  endfacet
  facet normal 0.606343 0 0.795203
    outer loop
      vertex -0.07901 3.5 8.77364
      vertex -0.021637 -6 8.72989
      vertex -0.021637 3.5 8.72989
    endloop
  endfacet
  facet normal 0.606343 0 0.795203
    outer loop
      vertex -0.021637 -6 8.72989
      vertex -0.07901 3.5 8.77364
      vertex -0.07901 -6 8.77364
    endloop
  endfacet
  facet normal 0.342527 0 0.939508
    outer loop
      vertex -0.62088 3.5 8.97119
      vertex -0.07901 -6 8.77364
      vertex -0.07901 3.5 8.77364
    endloop
  endfacet
  facet normal 0.342527 0 0.939508
    outer loop
      vertex -0.07901 -6 8.77364
      vertex -0.62088 3.5 8.97119
      vertex -0.62088 -6 8.97119
    endloop
  endfacet
  facet normal 0.60821 0 0.793776
    outer loop
      vertex -0.678253 3.5 9.01515
      vertex -0.62088 -6 8.97119
      vertex -0.62088 3.5 8.97119
    endloop
  endfacet
  facet normal 0.60821 0 0.793776
    outer loop
      vertex -0.62088 -6 8.97119
      vertex -0.678253 3.5 9.01515
      vertex -0.678253 -6 9.01515
    endloop
  endfacet
  facet normal 0.953592 -0 0.301101
    outer loop
      vertex -0.699905 -6 9.08372
      vertex -0.678253 3.5 9.01515
      vertex -0.699905 3.5 9.08372
    endloop
  endfacet
  facet normal 0.953592 0 0.301101
    outer loop
      vertex -0.678253 3.5 9.01515
      vertex -0.699905 -6 9.08372
      vertex -0.678253 -6 9.01515
    endloop
  endfacet
  facet normal 1 -0 0
    outer loop
      vertex -0.699905 -6 9.91628
      vertex -0.699905 3.5 9.08372
      vertex -0.699905 3.5 9.91628
    endloop
  endfacet
  facet normal 1 0 0
    outer loop
      vertex -0.699905 3.5 9.08372
      vertex -0.699905 -6 9.91628
      vertex -0.699905 -6 9.08372
    endloop
  endfacet
  facet normal 0.953803 0 -0.300432
    outer loop
      vertex -0.678253 -6 9.98502
      vertex -0.699905 3.5 9.91628
      vertex -0.678253 3.5 9.98502
    endloop
  endfacet
  facet normal 0.953803 0 -0.300432
    outer loop
      vertex -0.699905 3.5 9.91628
      vertex -0.678253 -6 9.98502
      vertex -0.699905 -6 9.91628
    endloop
  endfacet
  facet normal 0.609802 0 -0.792553
    outer loop
      vertex -0.678253 -6 9.98502
      vertex -0.62088 3.5 10.0292
      vertex -0.62088 -6 10.0292
    endloop
  endfacet
  facet normal 0.609802 0 -0.792553
    outer loop
      vertex -0.62088 3.5 10.0292
      vertex -0.678253 -6 9.98502
      vertex -0.678253 3.5 9.98502
    endloop
  endfacet
  facet normal 0.34199 0 -0.939704
    outer loop
      vertex -0.62088 -6 10.0292
      vertex -0.07901 3.5 10.2264
      vertex -0.07901 -6 10.2264
    endloop
  endfacet
  facet normal 0.34199 0 -0.939704
    outer loop
      vertex -0.07901 3.5 10.2264
      vertex -0.62088 -6 10.0292
      vertex -0.62088 3.5 10.0292
    endloop
  endfacet
  facet normal 0.607411 0 -0.794388
    outer loop
      vertex -0.07901 -6 10.2264
      vertex -0.021637 3.5 10.2702
      vertex -0.021637 -6 10.2702
    endloop
  endfacet
  facet normal 0.607411 0 -0.794388
    outer loop
      vertex -0.021637 3.5 10.2702
      vertex -0.07901 -6 10.2264
      vertex -0.07901 3.5 10.2264
    endloop
  endfacet
  facet normal 0.954206 -2.11876e-016 -0.299152
    outer loop
      vertex 3.5694e-017 -6 10.3392
      vertex -0.021637 3.5 10.2702
      vertex 2.14512e-015 3.5 10.3392
    endloop
  endfacet
  facet normal 0.954206 0 -0.299152
    outer loop
      vertex -0.021637 3.5 10.2702
      vertex 3.5694e-017 -6 10.3392
      vertex -0.021637 -6 10.2702
    endloop
  endfacet
  facet normal 0.954356 -0 0.298671
    outer loop
      vertex -0.021637 -6 6.22989
      vertex 3.07293e-015 3.5 6.16075
      vertex -0.021637 3.5 6.22989
    endloop
  endfacet
  facet normal 0.954356 -2.1191e-016 0.298671
    outer loop
      vertex 3.07293e-015 3.5 6.16075
      vertex -0.021637 -6 6.22989
      vertex 9.63507e-016 -6 6.16075
    endloop
  endfacet
  facet normal 0.606343 0 0.795203
    outer loop
      vertex -0.07901 3.5 6.27364
      vertex -0.021637 -6 6.22989
      vertex -0.021637 3.5 6.22989
    endloop
  endfacet
  facet normal 0.606343 0 0.795203
    outer loop
      vertex -0.021637 -6 6.22989
      vertex -0.07901 3.5 6.27364
      vertex -0.07901 -6 6.27364
    endloop
  endfacet
  facet normal 0.342527 0 0.939508
    outer loop
      vertex -0.62088 3.5 6.47119
      vertex -0.07901 -6 6.27364
      vertex -0.07901 3.5 6.27364
    endloop
  endfacet
  facet normal 0.342527 0 0.939508
    outer loop
      vertex -0.07901 -6 6.27364
      vertex -0.62088 3.5 6.47119
      vertex -0.62088 -6 6.47119
    endloop
  endfacet
  facet normal 0.60821 0 0.793776
    outer loop
      vertex -0.678253 3.5 6.51515
      vertex -0.62088 -6 6.47119
      vertex -0.62088 3.5 6.47119
    endloop
  endfacet
  facet normal 0.60821 0 0.793776
    outer loop
      vertex -0.62088 -6 6.47119
      vertex -0.678253 3.5 6.51515
      vertex -0.678253 -6 6.51515
    endloop
  endfacet
  facet normal 0.953592 -0 0.301101
    outer loop
      vertex -0.699905 -6 6.58372
      vertex -0.678253 3.5 6.51515
      vertex -0.699905 3.5 6.58372
    endloop
  endfacet
  facet normal 0.953592 0 0.301101
    outer loop
      vertex -0.678253 3.5 6.51515
      vertex -0.699905 -6 6.58372
      vertex -0.678253 -6 6.51515
    endloop
  endfacet
  facet normal 1 -0 0
    outer loop
      vertex -0.699905 -6 7.41628
      vertex -0.699905 3.5 6.58372
      vertex -0.699905 3.5 7.41628
    endloop
  endfacet
  facet normal 1 0 0
    outer loop
      vertex -0.699905 3.5 6.58372
      vertex -0.699905 -6 7.41628
      vertex -0.699905 -6 6.58372
    endloop
  endfacet
  facet normal 0.953803 0 -0.300432
    outer loop
      vertex -0.678253 -6 7.48502
      vertex -0.699905 3.5 7.41628
      vertex -0.678253 3.5 7.48502
    endloop
  endfacet
  facet normal 0.953803 0 -0.300432
    outer loop
      vertex -0.699905 3.5 7.41628
      vertex -0.678253 -6 7.48502
      vertex -0.699905 -6 7.41628
    endloop
  endfacet
  facet normal 0.609802 0 -0.792553
    outer loop
      vertex -0.678253 -6 7.48502
      vertex -0.62088 3.5 7.52916
      vertex -0.62088 -6 7.52916
    endloop
  endfacet
  facet normal 0.609802 0 -0.792553
    outer loop
      vertex -0.62088 3.5 7.52916
      vertex -0.678253 -6 7.48502
      vertex -0.678253 3.5 7.48502
    endloop
  endfacet
  facet normal 0.34199 0 -0.939704
    outer loop
      vertex -0.62088 -6 7.52916
      vertex -0.07901 3.5 7.72636
      vertex -0.07901 -6 7.72636
    endloop
  endfacet
  facet normal 0.34199 0 -0.939704
    outer loop
      vertex -0.07901 3.5 7.72636
      vertex -0.62088 -6 7.52916
      vertex -0.62088 3.5 7.52916
    endloop
  endfacet
  facet normal 0.607411 0 -0.794388
    outer loop
      vertex -0.07901 -6 7.72636
      vertex -0.021637 3.5 7.77023
      vertex -0.021637 -6 7.77023
    endloop
  endfacet
  facet normal 0.607411 0 -0.794388
    outer loop
      vertex -0.021637 3.5 7.77023
      vertex -0.07901 -6 7.72636
      vertex -0.07901 3.5 7.72636
    endloop
  endfacet
  facet normal 0.954206 -2.11876e-016 -0.299152
    outer loop
      vertex 5.90805e-016 -6 7.83925
      vertex -0.021637 3.5 7.77023
      vertex 2.70023e-015 3.5 7.83925
    endloop
  endfacet
  facet normal 0.954206 0 -0.299152
    outer loop
      vertex -0.021637 3.5 7.77023
      vertex 5.90805e-016 -6 7.83925
      vertex -0.021637 -6 7.77023
    endloop
  endfacet
  facet normal 0.954356 -0 0.298671
    outer loop
      vertex -0.021637 -6 3.72989
      vertex 3.62804e-015 3.5 3.66075
      vertex -0.021637 3.5 3.72989
    endloop
  endfacet
  facet normal 0.954356 -2.1191e-016 0.298671
    outer loop
      vertex 3.62804e-015 3.5 3.66075
      vertex -0.021637 -6 3.72989
      vertex 1.51862e-015 -6 3.66075
    endloop
  endfacet
  facet normal 0.606343 0 0.795203
    outer loop
      vertex -0.07901 3.5 3.77364
      vertex -0.021637 -6 3.72989
      vertex -0.021637 3.5 3.72989
    endloop
  endfacet
  facet normal 0.606343 0 0.795203
    outer loop
      vertex -0.021637 -6 3.72989
      vertex -0.07901 3.5 3.77364
      vertex -0.07901 -6 3.77364
    endloop
  endfacet
  facet normal 0.342527 0 0.939508
    outer loop
      vertex -0.62088 3.5 3.97119
      vertex -0.07901 -6 3.77364
      vertex -0.07901 3.5 3.77364
    endloop
  endfacet
  facet normal 0.342527 0 0.939508
    outer loop
      vertex -0.07901 -6 3.77364
      vertex -0.62088 3.5 3.97119
      vertex -0.62088 -6 3.97119
    endloop
  endfacet
  facet normal 0.60821 0 0.793776
    outer loop
      vertex -0.678253 3.5 4.01515
      vertex -0.62088 -6 3.97119
      vertex -0.62088 3.5 3.97119
    endloop
  endfacet
  facet normal 0.60821 0 0.793776
    outer loop
      vertex -0.62088 -6 3.97119
      vertex -0.678253 3.5 4.01515
      vertex -0.678253 -6 4.01515
    endloop
  endfacet
  facet normal 0.953592 -0 0.301101
    outer loop
      vertex -0.699905 -6 4.08372
      vertex -0.678253 3.5 4.01515
      vertex -0.699905 3.5 4.08372
    endloop
  endfacet
  facet normal 0.953592 0 0.301101
    outer loop
      vertex -0.678253 3.5 4.01515
      vertex -0.699905 -6 4.08372
      vertex -0.678253 -6 4.01515
    endloop
  endfacet
  facet normal 1 -0 0
    outer loop
      vertex -0.699905 -6 4.91628
      vertex -0.699905 3.5 4.08372
      vertex -0.699905 3.5 4.91628
    endloop
  endfacet
  facet normal 1 0 0
    outer loop
      vertex -0.699905 3.5 4.08372
      vertex -0.699905 -6 4.91628
      vertex -0.699905 -6 4.08372
    endloop
  endfacet
  facet normal 0.953803 0 -0.300432
    outer loop
      vertex -0.678253 -6 4.98502
      vertex -0.699905 3.5 4.91628
      vertex -0.678253 3.5 4.98502
    endloop
  endfacet
  facet normal 0.953803 0 -0.300432
    outer loop
      vertex -0.699905 3.5 4.91628
      vertex -0.678253 -6 4.98502
      vertex -0.699905 -6 4.91628
    endloop
  endfacet
  facet normal 0.609802 0 -0.792553
    outer loop
      vertex -0.678253 -6 4.98502
      vertex -0.62088 3.5 5.02916
      vertex -0.62088 -6 5.02916
    endloop
  endfacet
  facet normal 0.609802 0 -0.792553
    outer loop
      vertex -0.62088 3.5 5.02916
      vertex -0.678253 -6 4.98502
      vertex -0.678253 3.5 4.98502
    endloop
  endfacet
  facet normal 0.34199 0 -0.939704
    outer loop
      vertex -0.62088 -6 5.02916
      vertex -0.07901 3.5 5.22636
      vertex -0.07901 -6 5.22636
    endloop
  endfacet
  facet normal 0.34199 0 -0.939704
    outer loop
      vertex -0.07901 3.5 5.22636
      vertex -0.62088 -6 5.02916
      vertex -0.62088 3.5 5.02916
    endloop
  endfacet
  facet normal 0.607411 0 -0.794388
    outer loop
      vertex -0.07901 -6 5.22636
      vertex -0.021637 3.5 5.27023
      vertex -0.021637 -6 5.27023
    endloop
  endfacet
  facet normal 0.607411 0 -0.794388
    outer loop
      vertex -0.021637 3.5 5.27023
      vertex -0.07901 -6 5.22636
      vertex -0.07901 3.5 5.22636
    endloop
  endfacet
  facet normal 0.954206 -2.11876e-016 -0.299152
    outer loop
      vertex 1.14592e-015 -6 5.33925
      vertex -0.021637 3.5 5.27023
      vertex 3.25534e-015 3.5 5.33925
    endloop
  endfacet
  facet normal 0.954206 0 -0.299152
    outer loop
      vertex -0.021637 3.5 5.27023
      vertex 1.14592e-015 -6 5.33925
      vertex -0.021637 -6 5.27023
    endloop
  endfacet
  facet normal 0.60821 0 0.793776
    outer loop
      vertex -0.678253 3.5 1.51515
      vertex -0.658478 -6 1.5
      vertex -0.658478 3.5 1.5
    endloop
  endfacet
  facet normal 0.60821 0 0.793776
    outer loop
      vertex -0.658478 -6 1.5
      vertex -0.678253 3.5 1.51515
      vertex -0.678253 -6 1.51515
    endloop
  endfacet
  facet normal 0.953592 -0 0.301101
    outer loop
      vertex -0.699905 -6 1.58372
      vertex -0.678253 3.5 1.51515
      vertex -0.699905 3.5 1.58372
    endloop
  endfacet
  facet normal 0.953592 0 0.301101
    outer loop
      vertex -0.678253 3.5 1.51515
      vertex -0.699905 -6 1.58372
      vertex -0.678253 -6 1.51515
    endloop
  endfacet
  facet normal 1 -0 0
    outer loop
      vertex -0.699905 -6 2.41628
      vertex -0.699905 3.5 1.58372
      vertex -0.699905 3.5 2.41628
    endloop
  endfacet
  facet normal 1 0 0
    outer loop
      vertex -0.699905 3.5 1.58372
      vertex -0.699905 -6 2.41628
      vertex -0.699905 -6 1.58372
    endloop
  endfacet
  facet normal 0.953803 0 -0.300432
    outer loop
      vertex -0.678253 -6 2.48502
      vertex -0.699905 3.5 2.41628
      vertex -0.678253 3.5 2.48502
    endloop
  endfacet
  facet normal 0.953803 0 -0.300432
    outer loop
      vertex -0.699905 3.5 2.41628
      vertex -0.678253 -6 2.48502
      vertex -0.699905 -6 2.41628
    endloop
  endfacet
  facet normal 0.609802 0 -0.792553
    outer loop
      vertex -0.678253 -6 2.48502
      vertex -0.62088 3.5 2.52916
      vertex -0.62088 -6 2.52916
    endloop
  endfacet
  facet normal 0.609802 0 -0.792553
    outer loop
      vertex -0.62088 3.5 2.52916
      vertex -0.678253 -6 2.48502
      vertex -0.678253 3.5 2.48502
    endloop
  endfacet
  facet normal 0.34199 0 -0.939704
    outer loop
      vertex -0.62088 -6 2.52916
      vertex -0.07901 3.5 2.72636
      vertex -0.07901 -6 2.72636
    endloop
  endfacet
  facet normal 0.34199 0 -0.939704
    outer loop
      vertex -0.07901 3.5 2.72636
      vertex -0.62088 -6 2.52916
      vertex -0.62088 3.5 2.52916
    endloop
  endfacet
  facet normal 0.607411 0 -0.794388
    outer loop
      vertex -0.07901 -6 2.72636
      vertex -0.021637 3.5 2.77023
      vertex -0.021637 -6 2.77023
    endloop
  endfacet
  facet normal 0.607411 0 -0.794388
    outer loop
      vertex -0.021637 3.5 2.77023
      vertex -0.07901 -6 2.72636
      vertex -0.07901 3.5 2.72636
    endloop
  endfacet
  facet normal 0.954206 -2.11876e-016 -0.299152
    outer loop
      vertex 1.70103e-015 -6 2.83925
      vertex -0.021637 3.5 2.77023
      vertex 3.81045e-015 3.5 2.83925
    endloop
  endfacet
  facet normal 0.954206 0 -0.299152
    outer loop
      vertex -0.021637 3.5 2.77023
      vertex 1.70103e-015 -6 2.83925
      vertex -0.021637 -6 2.77023
    endloop
  endfacet
  facet normal -0 0 1
    outer loop
      vertex -0.658478 3.5 1.5
      vertex 0.5 -6 1.5
      vertex 0.5 3.5 1.5
    endloop
  endfacet
  facet normal 0 0 1
    outer loop
      vertex 0.5 -6 1.5
      vertex -0.658478 3.5 1.5
      vertex -0.658478 -6 1.5
    endloop
  endfacet
  facet normal 1 -2.22045e-016 2.22045e-016
    outer loop
      vertex 1.51862e-015 -6 3.66075
      vertex 3.81045e-015 3.5 2.83925
      vertex 3.62804e-015 3.5 3.66075
    endloop
  endfacet
  facet normal 1 -2.22045e-016 2.22045e-016
    outer loop
      vertex 3.81045e-015 3.5 2.83925
      vertex 1.51862e-015 -6 3.66075
      vertex 1.70103e-015 -6 2.83925
    endloop
  endfacet
  facet normal 1 -2.22045e-016 2.22045e-016
    outer loop
      vertex 9.63507e-016 -6 6.16075
      vertex 3.25534e-015 3.5 5.33925
      vertex 3.07293e-015 3.5 6.16075
    endloop
  endfacet
  facet normal 1 -2.22045e-016 2.22045e-016
    outer loop
      vertex 3.25534e-015 3.5 5.33925
      vertex 9.63507e-016 -6 6.16075
      vertex 1.14592e-015 -6 5.33925
    endloop
  endfacet
  facet normal 1 -2.22045e-016 2.22045e-016
    outer loop
      vertex 4.08395e-016 -6 8.66075
      vertex 2.70023e-015 3.5 7.83925
      vertex 2.51782e-015 3.5 8.66075
    endloop
  endfacet
  facet normal 1 -2.22045e-016 2.22045e-016
    outer loop
      vertex 2.70023e-015 3.5 7.83925
      vertex 4.08395e-016 -6 8.66075
      vertex 5.90805e-016 -6 7.83925
    endloop
  endfacet
  facet normal 1 -2.22045e-016 2.22045e-016
    outer loop
      vertex -1.46716e-016 -6 11.1608
      vertex 2.14512e-015 3.5 10.3392
      vertex 1.96271e-015 3.5 11.1608
    endloop
  endfacet
  facet normal 1 -2.22045e-016 2.22045e-016
    outer loop
      vertex 2.14512e-015 3.5 10.3392
      vertex -1.46716e-016 -6 11.1608
      vertex 3.5694e-017 -6 10.3392
    endloop
  endfacet
  facet normal 1 -2.22045e-016 2.22045e-016
    outer loop
      vertex -7.01828e-016 -6 13.6608
      vertex 1.59001e-015 3.5 12.8392
      vertex 1.4076e-015 3.5 13.6608
    endloop
  endfacet
  facet normal 1 -2.22045e-016 2.22045e-016
    outer loop
      vertex 1.59001e-015 3.5 12.8392
      vertex -7.01828e-016 -6 13.6608
      vertex -5.19418e-016 -6 12.8392
    endloop
  endfacet
  facet normal 0.900969 0.433884 0
    outer loop
      vertex 3.75436 -1.56198 3
      vertex 3.00215 0 0
      vertex 3.00215 0 3
    endloop
  endfacet
  facet normal 0.900969 0.433884 0
    outer loop
      vertex 3.00215 0 0
      vertex 3.75436 -1.56198 3
      vertex 3.75436 -1.56198 0
    endloop
  endfacet
  facet normal -1 0 0
    outer loop
      vertex 6.8 -0.866834 0
      vertex 6.8 0.866834 3
      vertex 6.8 0.866834 0
    endloop
  endfacet
  facet normal -1 -0 0
    outer loop
      vertex 6.8 0.866834 3
      vertex 6.8 -0.866834 0
      vertex 6.8 -0.866834 3
    endloop
  endfacet
  facet normal 0.222521 0.974928 -0
    outer loop
      vertex 5.44456 -1.94776 0
      vertex 3.75436 -1.56198 3
      vertex 5.44456 -1.94776 3
    endloop
  endfacet
  facet normal 0.222521 0.974928 0
    outer loop
      vertex 3.75436 -1.56198 3
      vertex 5.44456 -1.94776 0
      vertex 3.75436 -1.56198 0
    endloop
  endfacet
  facet normal -0.62349 0.781831 0
    outer loop
      vertex 6.8 -0.866834 0
      vertex 5.44456 -1.94776 3
      vertex 6.8 -0.866834 3
    endloop
  endfacet
  facet normal -0.62349 0.781831 0
    outer loop
      vertex 5.44456 -1.94776 3
      vertex 6.8 -0.866834 0
      vertex 5.44456 -1.94776 0
    endloop
  endfacet
  facet normal 0.900969 -0.433884 0
    outer loop
      vertex 3.00215 0 3
      vertex 3.75436 1.56198 0
      vertex 3.75436 1.56198 3
    endloop
  endfacet
  facet normal 0.900969 -0.433884 0
    outer loop
      vertex 3.75436 1.56198 0
      vertex 3.00215 0 3
      vertex 3.00215 0 0
    endloop
  endfacet
  facet normal 0.222521 -0.974928 0
    outer loop
      vertex 3.75436 1.56198 0
      vertex 5.44456 1.94776 3
      vertex 3.75436 1.56198 3
    endloop
  endfacet
  facet normal 0.222521 -0.974928 0
    outer loop
      vertex 5.44456 1.94776 3
      vertex 3.75436 1.56198 0
      vertex 5.44456 1.94776 0
    endloop
  endfacet
  facet normal -0.62349 -0.781831 0
    outer loop
      vertex 5.44456 1.94776 0
      vertex 6.8 0.866834 3
      vertex 5.44456 1.94776 3
    endloop
  endfacet
  facet normal -0.62349 -0.781831 -0
    outer loop
      vertex 6.8 0.866834 3
      vertex 5.44456 1.94776 0
      vertex 6.8 0.866834 0
    endloop
  endfacet
  facet normal 1 -0 0
    outer loop
      vertex 2 -3 14
      vertex 2 3 3
      vertex 2 3 14
    endloop
  endfacet
  facet normal 1 0 0
    outer loop
      vertex 2 3 3
      vertex 2 -3 14
      vertex 2 -3 3
    endloop
  endfacet
  facet normal 0 -1 0
    outer loop
      vertex 2 3 3
      vertex 10 3 3.64706
      vertex 2 3 14
    endloop
  endfacet
  facet normal 0 -1 -0
    outer loop
      vertex 10 3 3.64706
      vertex 2 3 3
      vertex 10 3 3
    endloop
  endfacet
  facet normal 0 0 1
    outer loop
      vertex 10 3 3
      vertex 6.8 0.866834 3
      vertex 10 -3 3
    endloop
  endfacet
  facet normal 0 0 1
    outer loop
      vertex 10 3 3
      vertex 5.44456 1.94776 3
      vertex 6.8 0.866834 3
    endloop
  endfacet
  facet normal -0 0 1
    outer loop
      vertex 2 3 3
      vertex 5.44456 1.94776 3
      vertex 10 3 3
    endloop
  endfacet
  facet normal 0 0 1
    outer loop
      vertex 3.75436 1.56198 3
      vertex 2 3 3
      vertex 3.00215 0 3
    endloop
  endfacet
  facet normal 0 0 1
    outer loop
      vertex 5.44456 1.94776 3
      vertex 2 3 3
      vertex 3.75436 1.56198 3
    endloop
  endfacet
  facet normal -0 0 1
    outer loop
      vertex 6.8 -0.866834 3
      vertex 10 -3 3
      vertex 6.8 0.866834 3
    endloop
  endfacet
  facet normal -0 0 1
    outer loop
      vertex 5.44456 -1.94776 3
      vertex 10 -3 3
      vertex 6.8 -0.866834 3
    endloop
  endfacet
  facet normal 0 0 1
    outer loop
      vertex 2 -3 3
      vertex 5.44456 -1.94776 3
      vertex 3.75436 -1.56198 3
    endloop
  endfacet
  facet normal 0 0 1
    outer loop
      vertex 5.44456 -1.94776 3
      vertex 2 -3 3
      vertex 10 -3 3
    endloop
  endfacet
  facet normal 0 0 1
    outer loop
      vertex 3.00215 0 3
      vertex 2 -3 3
      vertex 3.75436 -1.56198 3
    endloop
  endfacet
  facet normal 0 0 1
    outer loop
      vertex 2 -3 3
      vertex 3.00215 0 3
      vertex 2 3 3
    endloop
  endfacet
  facet normal 0 1 0
    outer loop
      vertex 2 -3 3
      vertex 10 -3 3.64706
      vertex 10 -3 3
    endloop
  endfacet
  facet normal 0 1 0
    outer loop
      vertex 10 -3 3.64706
      vertex 2 -3 3
      vertex 2 -3 14
    endloop
  endfacet
  facet normal 0.791285 -0 0.611447
    outer loop
      vertex 2 -6 14
      vertex 10 -3 3.64706
      vertex 2 -3 14
    endloop
  endfacet
  facet normal 0.791285 0 0.611447
    outer loop
      vertex 10 -3 3.64706
      vertex 2 -6 14
      vertex 10 -6 3.64706
    endloop
  endfacet
  facet normal 0.791285 -0 0.611447
    outer loop
      vertex 2 3 14
      vertex 10 6 3.64706
      vertex 2 6 14
    endloop
  endfacet
  facet normal 0.791285 0 0.611447
    outer loop
      vertex 10 6 3.64706
      vertex 2 3 14
      vertex 10 3 3.64706
    endloop
  endfacet
  facet normal -0.900969 0.433884 0
    outer loop
      vertex -3.75436 -1.56198 0
      vertex -3.00215 0 3
      vertex -3.00215 0 0
    endloop
  endfacet
  facet normal -0.900969 0.433884 0
    outer loop
      vertex -3.00215 0 3
      vertex -3.75436 -1.56198 0
      vertex -3.75436 -1.56198 3
    endloop
  endfacet
  facet normal 1 -0 0
    outer loop
      vertex -6.8 -0.866834 3
      vertex -6.8 0.866834 0
      vertex -6.8 0.866834 3
    endloop
  endfacet
  facet normal 1 0 0
    outer loop
      vertex -6.8 0.866834 0
      vertex -6.8 -0.866834 3
      vertex -6.8 -0.866834 0
    endloop
  endfacet
  facet normal -0.222521 0.974928 0
    outer loop
      vertex -3.75436 -1.56198 0
      vertex -5.44456 -1.94776 3
      vertex -3.75436 -1.56198 3
    endloop
  endfacet
  facet normal -0.222521 0.974928 0
    outer loop
      vertex -5.44456 -1.94776 3
      vertex -3.75436 -1.56198 0
      vertex -5.44456 -1.94776 0
    endloop
  endfacet
  facet normal 0.62349 0.781831 -0
    outer loop
      vertex -5.44456 -1.94776 0
      vertex -6.8 -0.866834 3
      vertex -5.44456 -1.94776 3
    endloop
  endfacet
  facet normal 0.62349 0.781831 0
    outer loop
      vertex -6.8 -0.866834 3
      vertex -5.44456 -1.94776 0
      vertex -6.8 -0.866834 0
    endloop
  endfacet
  facet normal -0.900969 -0.433884 0
    outer loop
      vertex -3.00215 0 0
      vertex -3.75436 1.56198 3
      vertex -3.75436 1.56198 0
    endloop
  endfacet
  facet normal -0.900969 -0.433884 0
    outer loop
      vertex -3.75436 1.56198 3
      vertex -3.00215 0 0
      vertex -3.00215 0 3
    endloop
  endfacet
  facet normal -0.222521 -0.974928 0
    outer loop
      vertex -5.44456 1.94776 0
      vertex -3.75436 1.56198 3
      vertex -5.44456 1.94776 3
    endloop
  endfacet
  facet normal -0.222521 -0.974928 -0
    outer loop
      vertex -3.75436 1.56198 3
      vertex -5.44456 1.94776 0
      vertex -3.75436 1.56198 0
    endloop
  endfacet
  facet normal 0.62349 -0.781831 0
    outer loop
      vertex -6.8 0.866834 0
      vertex -5.44456 1.94776 3
      vertex -6.8 0.866834 3
    endloop
  endfacet
  facet normal 0.62349 -0.781831 0
    outer loop
      vertex -5.44456 1.94776 3
      vertex -6.8 0.866834 0
      vertex -5.44456 1.94776 0
    endloop
  endfacet
  facet normal -1 0 0
    outer loop
      vertex -2 -3 3
      vertex -2 3 14
      vertex -2 3 3
    endloop
  endfacet
  facet normal -1 -0 0
    outer loop
      vertex -2 3 14
      vertex -2 -3 3
      vertex -2 -3 14
    endloop
  endfacet
  facet normal 0 -1 0
    outer loop
      vertex -2 3 3
      vertex -10 3 3.64706
      vertex -10 3 3
    endloop
  endfacet
  facet normal 0 -1 0
    outer loop
      vertex -10 3 3.64706
      vertex -2 3 3
      vertex -2 3 14
    endloop
  endfacet
  facet normal 0 0 1
    outer loop
      vertex -2 3 3
      vertex -3.00215 0 3
      vertex -2 -3 3
    endloop
  endfacet
  facet normal 0 0 1
    outer loop
      vertex -2 3 3
      vertex -3.75436 1.56198 3
      vertex -3.00215 0 3
    endloop
  endfacet
  facet normal 0 0 1
    outer loop
      vertex -2 3 3
      vertex -5.44456 1.94776 3
      vertex -3.75436 1.56198 3
    endloop
  endfacet
  facet normal 0 0 1
    outer loop
      vertex -6.8 0.866834 3
      vertex -10 3 3
      vertex -6.8 -0.866834 3
    endloop
  endfacet
  facet normal 0 0 1
    outer loop
      vertex -5.44456 1.94776 3
      vertex -10 3 3
      vertex -6.8 0.866834 3
    endloop
  endfacet
  facet normal -0 0 1
    outer loop
      vertex -10 3 3
      vertex -5.44456 1.94776 3
      vertex -2 3 3
    endloop
  endfacet
  facet normal -0 0 1
    outer loop
      vertex -3.75436 -1.56198 3
      vertex -2 -3 3
      vertex -3.00215 0 3
    endloop
  endfacet
  facet normal -0 0 1
    outer loop
      vertex -5.44456 -1.94776 3
      vertex -2 -3 3
      vertex -3.75436 -1.56198 3
    endloop
  endfacet
  facet normal 0 0 1
    outer loop
      vertex -5.44456 -1.94776 3
      vertex -10 -3 3
      vertex -2 -3 3
    endloop
  endfacet
  facet normal 0 0 1
    outer loop
      vertex -6.8 -0.866834 3
      vertex -10 -3 3
      vertex -5.44456 -1.94776 3
    endloop
  endfacet
  facet normal 0 0 1
    outer loop
      vertex -10 -3 3
      vertex -6.8 -0.866834 3
      vertex -10 3 3
    endloop
  endfacet
  facet normal 0 1 -0
    outer loop
      vertex -2 -3 3
      vertex -10 -3 3.64706
      vertex -2 -3 14
    endloop
  endfacet
  facet normal 0 1 0
    outer loop
      vertex -10 -3 3.64706
      vertex -2 -3 3
      vertex -10 -3 3
    endloop
  endfacet
  facet normal -0.791285 0 0.611447
    outer loop
      vertex -10 -6 3.64706
      vertex -2 -3 14
      vertex -10 -3 3.64706
    endloop
  endfacet
  facet normal -0.791285 0 0.611447
    outer loop
      vertex -2 -3 14
      vertex -10 -6 3.64706
      vertex -2 -6 14
    endloop
  endfacet
  facet normal -0.791285 0 0.611447
    outer loop
      vertex -10 3 3.64706
      vertex -2 6 14
      vertex -10 6 3.64706
    endloop
  endfacet
  facet normal -0.791285 0 0.611447
    outer loop
      vertex -2 6 14
      vertex -10 3 3.64706
      vertex -2 3 14
    endloop
  endfacet
  facet normal -1 0 0
    outer loop
      vertex -10 6 0
      vertex -10 3 3
      vertex -10 6 3.64706
    endloop
  endfacet
  facet normal -1 0 0
    outer loop
      vertex -10 6 0
      vertex -10 -3 3
      vertex -10 3 3
    endloop
  endfacet
  facet normal -1 0 0
    outer loop
      vertex -10 -6 0
      vertex -10 -3 3
      vertex -10 6 0
    endloop
  endfacet
  facet normal -1 0 0
    outer loop
      vertex -10 -6 3.64706
      vertex -10 -3 3
      vertex -10 -6 0
    endloop
  endfacet
  facet normal -1 0 0
    outer loop
      vertex -10 -3 3
      vertex -10 -6 3.64706
      vertex -10 -3 3.64706
    endloop
  endfacet
  facet normal -1 -0 0
    outer loop
      vertex -10 6 3.64706
      vertex -10 3 3
      vertex -10 3 3.64706
    endloop
  endfacet
  facet normal -0 0 1
    outer loop
      vertex 0.799999 3.5 14
      vertex 2 3 14
      vertex 2 6 14
    endloop
  endfacet
  facet normal 0 0 1
    outer loop
      vertex 2 3 14
      vertex 0.799999 3.5 14
      vertex 2 -3 14
    endloop
  endfacet
  facet normal 0 0 1
    outer loop
      vertex 0.799999 -6 14
      vertex 2 -3 14
      vertex 0.799999 3.5 14
    endloop
  endfacet
  facet normal 0 0 1
    outer loop
      vertex 2 6 14
      vertex 0.5 3.5 14
      vertex 0.799999 3.5 14
    endloop
  endfacet
  facet normal -0 0 1
    outer loop
      vertex -2 6 14
      vertex 0.5 3.5 14
      vertex 2 6 14
    endloop
  endfacet
  facet normal 0 0 1
    outer loop
      vertex 0.5 3.5 14
      vertex -2 6 14
      vertex -0.658478 3.5 14
    endloop
  endfacet
  facet normal 0 0 1
    outer loop
      vertex -2 3 14
      vertex -0.658478 3.5 14
      vertex -2 6 14
    endloop
  endfacet
  facet normal 0 0 1
    outer loop
      vertex -2 -3 14
      vertex -0.658478 3.5 14
      vertex -2 3 14
    endloop
  endfacet
  facet normal 0 0 1
    outer loop
      vertex -0.658478 3.5 14
      vertex -2 -3 14
      vertex -0.658478 -6 14
    endloop
  endfacet
  facet normal 0 0 1
    outer loop
      vertex -0.658478 -6 14
      vertex -2 -3 14
      vertex -2 -6 14
    endloop
  endfacet
  facet normal 0 0 1
    outer loop
      vertex 2 -3 14
      vertex 0.799999 -6 14
      vertex 2 -6 14
    endloop
  endfacet
  facet normal 1 0 0
    outer loop
      vertex 10 -3 3.64706
      vertex 10 -6 3.64706
      vertex 10 -3 3
    endloop
  endfacet
  facet normal 1 0 0
    outer loop
      vertex 10 3 3
      vertex 10 6 3.64706
      vertex 10 3 3.64706
    endloop
  endfacet
  facet normal 1 0 0
    outer loop
      vertex 10 6 3.64706
      vertex 10 3 3
      vertex 10 6 0
    endloop
  endfacet
  facet normal 1 -0 0
    outer loop
      vertex 10 -3 3
      vertex 10 6 0
      vertex 10 3 3
    endloop
  endfacet
  facet normal 1 0 0
    outer loop
      vertex 10 -6 0
      vertex 10 -3 3
      vertex 10 -6 3.64706
    endloop
  endfacet
  facet normal 1 0 0
    outer loop
      vertex 10 -3 3
      vertex 10 -6 0
      vertex 10 6 0
    endloop
  endfacet
  facet normal 0 1 0
    outer loop
      vertex 10 6 3.64706
      vertex -2 6 14
      vertex 2 6 14
    endloop
  endfacet
  facet normal 0 1 0
    outer loop
      vertex 10 6 3.64706
      vertex -10 6 3.64706
      vertex -2 6 14
    endloop
  endfacet
  facet normal 0 1 -0
    outer loop
      vertex 10 6 0
      vertex -10 6 3.64706
      vertex 10 6 3.64706
    endloop
  endfacet
  facet normal 0 1 0
    outer loop
      vertex -10 6 3.64706
      vertex 10 6 0
      vertex -10 6 0
    endloop
  endfacet
  facet normal 0 0 -1
    outer loop
      vertex 10 -6 0
      vertex 6.8 -0.866834 0
      vertex 10 6 0
    endloop
  endfacet
  facet normal 0 0 -1
    outer loop
      vertex 10 -6 0
      vertex 5.44456 -1.94776 0
      vertex 6.8 -0.866834 0
    endloop
  endfacet
  facet normal 0 0 -1
    outer loop
      vertex 10 -6 0
      vertex 3.75436 -1.56198 0
      vertex 5.44456 -1.94776 0
    endloop
  endfacet
  facet normal 0 0 -1
    outer loop
      vertex 3.75436 -1.56198 0
      vertex -3.00215 0 0
      vertex 3.00215 0 0
    endloop
  endfacet
  facet normal 0 0 -1
    outer loop
      vertex -3.75436 -1.56198 0
      vertex 3.75436 -1.56198 0
      vertex 10 -6 0
    endloop
  endfacet
  facet normal 0 0 -1
    outer loop
      vertex 3.75436 -1.56198 0
      vertex -3.75436 -1.56198 0
      vertex -3.00215 0 0
    endloop
  endfacet
  facet normal 0 0 -1
    outer loop
      vertex -10 -6 0
      vertex -3.75436 -1.56198 0
      vertex 10 -6 0
    endloop
  endfacet
  facet normal -0 0 -1
    outer loop
      vertex -6.8 -0.866834 0
      vertex -10 -6 0
      vertex -6.8 0.866834 0
    endloop
  endfacet
  facet normal -0 0 -1
    outer loop
      vertex -5.44456 -1.94776 0
      vertex -10 -6 0
      vertex -6.8 -0.866834 0
    endloop
  endfacet
  facet normal 0 0 -1
    outer loop
      vertex -3.75436 -1.56198 0
      vertex -10 -6 0
      vertex -5.44456 -1.94776 0
    endloop
  endfacet
  facet normal 0 0 -1
    outer loop
      vertex 6.8 0.866834 0
      vertex 10 6 0
      vertex 6.8 -0.866834 0
    endloop
  endfacet
  facet normal 0 0 -1
    outer loop
      vertex 5.44456 1.94776 0
      vertex 10 6 0
      vertex 6.8 0.866834 0
    endloop
  endfacet
  facet normal 0 0 -1
    outer loop
      vertex 3.75436 1.56198 0
      vertex 10 6 0
      vertex 5.44456 1.94776 0
    endloop
  endfacet
  facet normal 0 0 -1
    outer loop
      vertex -3.00215 0 0
      vertex 3.75436 1.56198 0
      vertex 3.00215 0 0
    endloop
  endfacet
  facet normal 0 0 -1
    outer loop
      vertex -3.75436 1.56198 0
      vertex 3.75436 1.56198 0
      vertex -3.00215 0 0
    endloop
  endfacet
  facet normal 0 0 -1
    outer loop
      vertex 3.75436 1.56198 0
      vertex -3.75436 1.56198 0
      vertex 10 6 0
    endloop
  endfacet
  facet normal 0 0 -1
    outer loop
      vertex -10 6 0
      vertex -3.75436 1.56198 0
      vertex -5.44456 1.94776 0
    endloop
  endfacet
  facet normal 0 0 -1
    outer loop
      vertex -3.75436 1.56198 0
      vertex -10 6 0
      vertex 10 6 0
    endloop
  endfacet
  facet normal 0 0 -1
    outer loop
      vertex -6.8 0.866834 0
      vertex -10 6 0
      vertex -5.44456 1.94776 0
    endloop
  endfacet
  facet normal 0 0 -1
    outer loop
      vertex -10 6 0
      vertex -6.8 0.866834 0
      vertex -10 -6 0
    endloop
  endfacet
  facet normal 0 -1 0
    outer loop
      vertex -0.678253 -6 12.485
      vertex -0.658478 -6 14
      vertex -2 -6 14
    endloop
  endfacet
  facet normal -0 -1 0
    outer loop
      vertex -0.62088 -6 12.5292
      vertex -0.658478 -6 14
      vertex -0.678253 -6 12.485
    endloop
  endfacet
  facet normal -0 -1 0
    outer loop
      vertex -7.01828e-016 -6 13.6608
      vertex -0.62088 -6 13.9712
      vertex -0.62088 -6 12.5292
    endloop
  endfacet
  facet normal 0 -1 0
    outer loop
      vertex -0.62088 -6 13.9712
      vertex -7.01828e-016 -6 13.6608
      vertex -0.07901 -6 13.7736
    endloop
  endfacet
  facet normal 0 -1 0
    outer loop
      vertex -0.07901 -6 13.7736
      vertex -7.01828e-016 -6 13.6608
      vertex -0.021637 -6 13.7299
    endloop
  endfacet
  facet normal 0 -1 -0
    outer loop
      vertex -7.01828e-016 -6 13.6608
      vertex -0.62088 -6 12.5292
      vertex -5.19418e-016 -6 12.8392
    endloop
  endfacet
  facet normal -0 -1 0
    outer loop
      vertex -0.07901 -6 12.7264
      vertex -5.19418e-016 -6 12.8392
      vertex -0.62088 -6 12.5292
    endloop
  endfacet
  facet normal 0 -1 0
    outer loop
      vertex -5.19418e-016 -6 12.8392
      vertex -0.07901 -6 12.7264
      vertex -0.021637 -6 12.7702
    endloop
  endfacet
  facet normal 0 -1 0
    outer loop
      vertex -0.658478 -6 14
      vertex -0.62088 -6 12.5292
      vertex -0.62088 -6 13.9712
    endloop
  endfacet
  facet normal 0 -1 0
    outer loop
      vertex -2 -6 14
      vertex -0.699905 -6 12.4163
      vertex -0.678253 -6 12.485
    endloop
  endfacet
  facet normal 0 -1 0
    outer loop
      vertex -2 -6 14
      vertex -0.699905 -6 11.5837
      vertex -0.699905 -6 12.4163
    endloop
  endfacet
  facet normal 0 -1 0
    outer loop
      vertex -0.699905 -6 9.91628
      vertex -0.699905 -6 11.5837
      vertex -2 -6 14
    endloop
  endfacet
  facet normal 0 -1 0
    outer loop
      vertex -1.46716e-016 -6 11.1608
      vertex -0.07901 -6 11.2736
      vertex -0.62088 -6 11.4712
    endloop
  endfacet
  facet normal 0 -1 0
    outer loop
      vertex -0.07901 -6 11.2736
      vertex -1.46716e-016 -6 11.1608
      vertex -0.021637 -6 11.2299
    endloop
  endfacet
  facet normal 0 -1 0
    outer loop
      vertex -0.62088 -6 11.4712
      vertex 3.5694e-017 -6 10.3392
      vertex -1.46716e-016 -6 11.1608
    endloop
  endfacet
  facet normal 0 -1 0
    outer loop
      vertex -0.62088 -6 10.0292
      vertex -0.62088 -6 11.4712
      vertex -0.678253 -6 11.5152
    endloop
  endfacet
  facet normal 0 -1 0
    outer loop
      vertex -0.62088 -6 11.4712
      vertex -0.62088 -6 10.0292
      vertex 3.5694e-017 -6 10.3392
    endloop
  endfacet
  facet normal 0 -1 0
    outer loop
      vertex -0.699905 -6 11.5837
      vertex -0.699905 -6 9.91628
      vertex -0.678253 -6 11.5152
    endloop
  endfacet
  facet normal 0 -1 0
    outer loop
      vertex 3.5694e-017 -6 10.3392
      vertex -0.62088 -6 10.0292
      vertex -0.07901 -6 10.2264
    endloop
  endfacet
  facet normal 0 -1 0
    outer loop
      vertex 3.5694e-017 -6 10.3392
      vertex -0.07901 -6 10.2264
      vertex -0.021637 -6 10.2702
    endloop
  endfacet
  facet normal 0 -1 0
    outer loop
      vertex -0.678253 -6 11.5152
      vertex -0.678253 -6 9.98502
      vertex -0.62088 -6 10.0292
    endloop
  endfacet
  facet normal 0 -1 -0
    outer loop
      vertex -0.678253 -6 11.5152
      vertex -0.699905 -6 9.91628
      vertex -0.678253 -6 9.98502
    endloop
  endfacet
  facet normal 0 -1 0
    outer loop
      vertex -10 -6 3.64706
      vertex -0.699905 -6 9.91628
      vertex -2 -6 14
    endloop
  endfacet
  facet normal 0 -1 0
    outer loop
      vertex 4.08395e-016 -6 8.66075
      vertex -0.07901 -6 8.77364
      vertex -0.62088 -6 8.97119
    endloop
  endfacet
  facet normal 0 -1 0
    outer loop
      vertex -0.07901 -6 8.77364
      vertex 4.08395e-016 -6 8.66075
      vertex -0.021637 -6 8.72989
    endloop
  endfacet
  facet normal 0 -1 0
    outer loop
      vertex -0.62088 -6 8.97119
      vertex 5.90805e-016 -6 7.83925
      vertex 4.08395e-016 -6 8.66075
    endloop
  endfacet
  facet normal 0 -1 0
    outer loop
      vertex -0.62088 -6 7.52916
      vertex -0.62088 -6 8.97119
      vertex -0.678253 -6 9.01515
    endloop
  endfacet
  facet normal 0 -1 0
    outer loop
      vertex -0.62088 -6 8.97119
      vertex -0.62088 -6 7.52916
      vertex 5.90805e-016 -6 7.83925
    endloop
  endfacet
  facet normal 0 -1 0
    outer loop
      vertex 5.90805e-016 -6 7.83925
      vertex -0.07901 -6 7.72636
      vertex -0.021637 -6 7.77023
    endloop
  endfacet
  facet normal 0 -1 0
    outer loop
      vertex 5.90805e-016 -6 7.83925
      vertex -0.62088 -6 7.52916
      vertex -0.07901 -6 7.72636
    endloop
  endfacet
  facet normal 0 -1 0
    outer loop
      vertex -0.678253 -6 7.48502
      vertex -0.678253 -6 9.01515
      vertex -0.699905 -6 9.08372
    endloop
  endfacet
  facet normal 0 -1 -0
    outer loop
      vertex -0.699905 -6 9.91628
      vertex -10 -6 3.64706
      vertex -0.699905 -6 9.08372
    endloop
  endfacet
  facet normal 0 -1 0
    outer loop
      vertex -0.678253 -6 9.01515
      vertex -0.678253 -6 7.48502
      vertex -0.62088 -6 7.52916
    endloop
  endfacet
  facet normal -0 -1 0
    outer loop
      vertex -0.699905 -6 7.41628
      vertex -0.699905 -6 9.08372
      vertex -10 -6 3.64706
    endloop
  endfacet
  facet normal 0 -1 0
    outer loop
      vertex -0.699905 -6 9.08372
      vertex -0.699905 -6 7.41628
      vertex -0.678253 -6 7.48502
    endloop
  endfacet
  facet normal 0 -1 0
    outer loop
      vertex 9.63507e-016 -6 6.16075
      vertex -0.07901 -6 6.27364
      vertex -0.62088 -6 6.47119
    endloop
  endfacet
  facet normal 0 -1 0
    outer loop
      vertex -0.07901 -6 6.27364
      vertex 9.63507e-016 -6 6.16075
      vertex -0.021637 -6 6.22989
    endloop
  endfacet
  facet normal 0 -1 0
    outer loop
      vertex -0.62088 -6 6.47119
      vertex 1.14592e-015 -6 5.33925
      vertex 9.63507e-016 -6 6.16075
    endloop
  endfacet
  facet normal 0 -1 0
    outer loop
      vertex -0.62088 -6 5.02916
      vertex -0.62088 -6 6.47119
      vertex -0.678253 -6 6.51515
    endloop
  endfacet
  facet normal 0 -1 0
    outer loop
      vertex -0.62088 -6 6.47119
      vertex -0.62088 -6 5.02916
      vertex 1.14592e-015 -6 5.33925
    endloop
  endfacet
  facet normal 0 -1 0
    outer loop
      vertex 1.14592e-015 -6 5.33925
      vertex -0.07901 -6 5.22636
      vertex -0.021637 -6 5.27023
    endloop
  endfacet
  facet normal 0 -1 0
    outer loop
      vertex 1.14592e-015 -6 5.33925
      vertex -0.62088 -6 5.02916
      vertex -0.07901 -6 5.22636
    endloop
  endfacet
  facet normal 0 -1 0
    outer loop
      vertex -0.678253 -6 4.98502
      vertex -0.678253 -6 6.51515
      vertex -0.699905 -6 6.58372
    endloop
  endfacet
  facet normal 0 -1 -0
    outer loop
      vertex -0.699905 -6 7.41628
      vertex -10 -6 3.64706
      vertex -0.699905 -6 6.58372
    endloop
  endfacet
  facet normal 0 -1 0
    outer loop
      vertex -0.678253 -6 6.51515
      vertex -0.678253 -6 4.98502
      vertex -0.62088 -6 5.02916
    endloop
  endfacet
  facet normal -0 -1 0
    outer loop
      vertex -0.699905 -6 4.91628
      vertex -0.699905 -6 6.58372
      vertex -10 -6 3.64706
    endloop
  endfacet
  facet normal 0 -1 0
    outer loop
      vertex -0.699905 -6 6.58372
      vertex -0.699905 -6 4.91628
      vertex -0.678253 -6 4.98502
    endloop
  endfacet
  facet normal 0 -1 0
    outer loop
      vertex 1.51862e-015 -6 3.66075
      vertex -0.07901 -6 3.77364
      vertex -0.62088 -6 3.97119
    endloop
  endfacet
  facet normal 0 -1 0
    outer loop
      vertex -0.07901 -6 3.77364
      vertex 1.51862e-015 -6 3.66075
      vertex -0.021637 -6 3.72989
    endloop
  endfacet
  facet normal 0 -1 -0
    outer loop
      vertex -0.699905 -6 4.91628
      vertex -10 -6 3.64706
      vertex -0.699905 -6 4.08372
    endloop
  endfacet
  facet normal 0 -1 0
    outer loop
      vertex -0.699905 -6 2.41628
      vertex -0.699905 -6 4.08372
      vertex -10 -6 3.64706
    endloop
  endfacet
  facet normal 0 -1 0
    outer loop
      vertex -0.699905 -6 4.08372
      vertex -0.699905 -6 2.41628
      vertex -0.678253 -6 4.01515
    endloop
  endfacet
  facet normal -0 -1 0
    outer loop
      vertex -0.678253 -6 2.48502
      vertex -0.678253 -6 4.01515
      vertex -0.699905 -6 2.41628
    endloop
  endfacet
  facet normal -0 -1 0
    outer loop
      vertex -0.62088 -6 2.52916
      vertex -0.62088 -6 3.97119
      vertex -0.678253 -6 2.48502
    endloop
  endfacet
  facet normal 0 -1 -0
    outer loop
      vertex 1.51862e-015 -6 3.66075
      vertex -0.62088 -6 2.52916
      vertex 1.70103e-015 -6 2.83925
    endloop
  endfacet
  facet normal -0 -1 0
    outer loop
      vertex -0.07901 -6 2.72636
      vertex 1.70103e-015 -6 2.83925
      vertex -0.62088 -6 2.52916
    endloop
  endfacet
  facet normal 0 -1 0
    outer loop
      vertex 1.70103e-015 -6 2.83925
      vertex -0.07901 -6 2.72636
      vertex -0.021637 -6 2.77023
    endloop
  endfacet
  facet normal 0 -1 0
    outer loop
      vertex -0.62088 -6 3.97119
      vertex -0.62088 -6 2.52916
      vertex 1.51862e-015 -6 3.66075
    endloop
  endfacet
  facet normal 0 -1 0
    outer loop
      vertex -0.678253 -6 4.01515
      vertex -0.678253 -6 2.48502
      vertex -0.62088 -6 3.97119
    endloop
  endfacet
  facet normal 0 -1 0
    outer loop
      vertex -10 -6 3.64706
      vertex -0.699905 -6 1.58372
      vertex -0.699905 -6 2.41628
    endloop
  endfacet
  facet normal 0 -1 0
    outer loop
      vertex -10 -6 0
      vertex -0.699905 -6 1.58372
      vertex -10 -6 3.64706
    endloop
  endfacet
  facet normal 0 -1 -0
    outer loop
      vertex -0.699905 -6 1.58372
      vertex -10 -6 0
      vertex -0.678253 -6 1.51515
    endloop
  endfacet
  facet normal 0 -1 0
    outer loop
      vertex -10 -6 0
      vertex 0.5 -6 1.5
      vertex -0.658478 -6 1.5
    endloop
  endfacet
  facet normal 0 -1 0
    outer loop
      vertex 10 -6 0
      vertex 0.5 -6 1.5
      vertex -10 -6 0
    endloop
  endfacet
  facet normal 0 -1 -0
    outer loop
      vertex -0.678253 -6 1.51515
      vertex -10 -6 0
      vertex -0.658478 -6 1.5
    endloop
  endfacet
  facet normal 0 -1 0
    outer loop
      vertex 0.799999 -6 1.5
      vertex 2 -6 14
      vertex 0.799999 -6 14
    endloop
  endfacet
  facet normal 0 -1 -0
    outer loop
      vertex 2 -6 14
      vertex 0.799999 -6 1.5
      vertex 10 -6 3.64706
    endloop
  endfacet
  facet normal 0 -1 0
    outer loop
      vertex 0.799999 -6 1.5
      vertex 10 -6 0
      vertex 10 -6 3.64706
    endloop
  endfacet
  facet normal 0 -1 0
    outer loop
      vertex 0.5 -6 1.5
      vertex 10 -6 0
      vertex 0.799999 -6 1.5
    endloop
  endfacet
  facet normal -1 0 0
    outer loop
      vertex 0.799999 -6 1.5
      vertex 0.799999 3.5 14
      vertex 0.799999 3.5 1.5
    endloop
  endfacet
  facet normal -1 -0 0
    outer loop
      vertex 0.799999 3.5 14
      vertex 0.799999 -6 1.5
      vertex 0.799999 -6 14
    endloop
  endfacet
  facet normal 0 -1 0
    outer loop
      vertex 0.5 3.5 1.5
      vertex 0.799999 3.5 14
      vertex 0.5 3.5 14
    endloop
  endfacet
  facet normal 0 -1 -0
    outer loop
      vertex 0.799999 3.5 14
      vertex 0.5 3.5 1.5
      vertex 0.799999 3.5 1.5
    endloop
  endfacet
  facet normal -0 0 1
    outer loop
      vertex 0.5 3.5 1.5
      vertex 0.799999 -6 1.5
      vertex 0.799999 3.5 1.5
    endloop
  endfacet
  facet normal 0 0 1
    outer loop
      vertex 0.799999 -6 1.5
      vertex 0.5 3.5 1.5
      vertex 0.5 -6 1.5
    endloop
  endfacet
endsolid OpenSCAD_Model
