solid OpenSCAD_Model
  facet normal 0 0 -1
    outer loop
      vertex 6.71484 -4.87862 29.95
      vertex 21.3042 12.3 29.95
      vertex 3.34514e-08 -24.6 29.95
    endloop
  endfacet
  facet normal 0 0 -1
    outer loop
      vertex -4.87862 -6.71484 29.95
      vertex 3.34514e-08 -24.6 29.95
      vertex -6.71484 -4.87862 29.95
    endloop
  endfacet
  facet normal 0 0 -1
    outer loop
      vertex -21.3042 12.3 29.95
      vertex -13.5534 8.29564 29.95
      vertex -14.0219 6.77705 29.95
    endloop
  endfacet
  facet normal 0 0 -1
    outer loop
      vertex -21.3042 12.3 29.95
      vertex -14.0219 6.77705 29.95
      vertex 3.34514e-08 -24.6 29.95
    endloop
  endfacet
  facet normal 0 0 -1
    outer loop
      vertex -14.0219 6.77705 29.95
      vertex -13.1266 5.46399 29.95
      vertex 3.34514e-08 -24.6 29.95
    endloop
  endfacet
  facet normal 0 0 -1
    outer loop
      vertex -4.87862 6.71484 29.95
      vertex -11.5419 5.34523 29.95
      vertex -10.461 6.5102 29.95
    endloop
  endfacet
  facet normal 0 0 -1
    outer loop
      vertex -12.0741 8.87624 29.95
      vertex 21.3042 12.3 29.95
      vertex -10.6978 8.08164 29.95
    endloop
  endfacet
  facet normal 0 0 -1
    outer loop
      vertex -10.6978 8.08164 29.95
      vertex 21.3042 12.3 29.95
      vertex -10.461 6.5102 29.95
    endloop
  endfacet
  facet normal 0 0 -1
    outer loop
      vertex -21.3042 12.3 29.95
      vertex 21.3042 12.3 29.95
      vertex -12.0741 8.87624 29.95
    endloop
  endfacet
  facet normal 0 0 -1
    outer loop
      vertex -21.3042 12.3 29.95
      vertex -12.0741 8.87624 29.95
      vertex -13.5534 8.29564 29.95
    endloop
  endfacet
  facet normal 0 0 -1
    outer loop
      vertex -6.71484 4.87862 29.95
      vertex -11.5419 5.34523 29.95
      vertex -4.87862 6.71484 29.95
    endloop
  endfacet
  facet normal 0 0 -1
    outer loop
      vertex -11.5419 5.34523 29.95
      vertex -8.3 0 29.95
      vertex -7.89377 -2.56484 29.95
    endloop
  endfacet
  facet normal 0 0 -1
    outer loop
      vertex -11.5419 5.34523 29.95
      vertex -7.89377 -2.56484 29.95
      vertex 3.34514e-08 -24.6 29.95
    endloop
  endfacet
  facet normal 0 0 -1
    outer loop
      vertex -7.89377 -2.56484 29.95
      vertex -6.71484 -4.87862 29.95
      vertex 3.34514e-08 -24.6 29.95
    endloop
  endfacet
  facet normal 0 0 -1
    outer loop
      vertex 11.2953 8.63601 29.95
      vertex 21.3042 12.3 29.95
      vertex 12.88 8.75477 29.95
    endloop
  endfacet
  facet normal 0 0 -1
    outer loop
      vertex 7.89377 -2.56484 29.95
      vertex 21.3042 12.3 29.95
      vertex 6.71484 -4.87862 29.95
    endloop
  endfacet
  facet normal 0 0 -1
    outer loop
      vertex -0.407516 -15.8854 29.95
      vertex 3.34514e-08 -24.6 29.95
      vertex -1.65 -14.8946 29.95
    endloop
  endfacet
  facet normal 0 0 -1
    outer loop
      vertex 13.961 7.5898 29.95
      vertex 21.3042 12.3 29.95
      vertex 13.7241 6.01836 29.95
    endloop
  endfacet
  facet normal 0 0 -1
    outer loop
      vertex 7.89377 2.56484 29.95
      vertex 12.3478 5.22376 29.95
      vertex 13.7241 6.01836 29.95
    endloop
  endfacet
  facet normal 0 0 -1
    outer loop
      vertex 8.3 0 29.95
      vertex 21.3042 12.3 29.95
      vertex 7.89377 -2.56484 29.95
    endloop
  endfacet
  facet normal 0 0 -1
    outer loop
      vertex 1.83136 -14.1 29.95
      vertex 4.87862 -6.71484 29.95
      vertex 3.34514e-08 -24.6 29.95
    endloop
  endfacet
  facet normal 0 0 -1
    outer loop
      vertex 4.87862 -6.71484 29.95
      vertex 6.71484 -4.87862 29.95
      vertex 3.34514e-08 -24.6 29.95
    endloop
  endfacet
  facet normal 0 0 -1
    outer loop
      vertex 13.7241 6.01836 29.95
      vertex 21.3042 12.3 29.95
      vertex 8.3 0 29.95
    endloop
  endfacet
  facet normal 0 0 -1
    outer loop
      vertex 12.88 8.75477 29.95
      vertex 21.3042 12.3 29.95
      vertex 13.961 7.5898 29.95
    endloop
  endfacet
  facet normal 0 0 -1
    outer loop
      vertex 2.56484 7.89377 29.95
      vertex 21.3042 12.3 29.95
      vertex 4.87862 6.71484 29.95
    endloop
  endfacet
  facet normal 0 0 -1
    outer loop
      vertex -2.56484 7.89377 29.95
      vertex 21.3042 12.3 29.95
      vertex 0 8.3 29.95
    endloop
  endfacet
  facet normal 0 0 -1
    outer loop
      vertex -10.461 6.5102 29.95
      vertex 21.3042 12.3 29.95
      vertex -2.56484 7.89377 29.95
    endloop
  endfacet
  facet normal 0 0 -1
    outer loop
      vertex -4.87862 6.71484 29.95
      vertex -10.461 6.5102 29.95
      vertex -2.56484 7.89377 29.95
    endloop
  endfacet
  facet normal 0 0 -1
    outer loop
      vertex -1.65 -14.8946 29.95
      vertex -2.56484 -7.89377 29.95
      vertex -1.65 -13.3054 29.95
    endloop
  endfacet
  facet normal 0 0 -1
    outer loop
      vertex -11.5419 5.34523 29.95
      vertex -6.71484 4.87862 29.95
      vertex -7.89377 2.56484 29.95
    endloop
  endfacet
  facet normal 0 0 -1
    outer loop
      vertex -11.5419 5.34523 29.95
      vertex -7.89377 2.56484 29.95
      vertex -8.3 0 29.95
    endloop
  endfacet
  facet normal 0 0 -1
    outer loop
      vertex -2.56484 -7.89377 29.95
      vertex 0 -8.3 29.95
      vertex -1.65 -13.3054 29.95
    endloop
  endfacet
  facet normal 0 0 -1
    outer loop
      vertex -4.87862 -6.71484 29.95
      vertex -2.56484 -7.89377 29.95
      vertex -1.65 -14.8946 29.95
    endloop
  endfacet
  facet normal 0 0 -1
    outer loop
      vertex -4.87862 -6.71484 29.95
      vertex -1.65 -14.8946 29.95
      vertex 3.34514e-08 -24.6 29.95
    endloop
  endfacet
  facet normal 0 0 -1
    outer loop
      vertex 10.4001 7.32295 29.95
      vertex 4.87862 6.71484 29.95
      vertex 11.2953 8.63601 29.95
    endloop
  endfacet
  facet normal 0 0 -1
    outer loop
      vertex 1.14183 -15.5318 29.95
      vertex 3.34514e-08 -24.6 29.95
      vertex -0.407516 -15.8854 29.95
    endloop
  endfacet
  facet normal 0 0 -1
    outer loop
      vertex -0.407516 -12.3146 29.95
      vertex 0 -8.3 29.95
      vertex 1.14183 -12.6682 29.95
    endloop
  endfacet
  facet normal 0 0 -1
    outer loop
      vertex 1.83136 -14.1 29.95
      vertex 3.34514e-08 -24.6 29.95
      vertex 1.14183 -15.5318 29.95
    endloop
  endfacet
  facet normal 0 0 -1
    outer loop
      vertex 2.56484 -7.89377 29.95
      vertex 4.87862 -6.71484 29.95
      vertex 1.83136 -14.1 29.95
    endloop
  endfacet
  facet normal 0 0 -1
    outer loop
      vertex 1.14183 -12.6682 29.95
      vertex 2.56484 -7.89377 29.95
      vertex 1.83136 -14.1 29.95
    endloop
  endfacet
  facet normal 0 0 -1
    outer loop
      vertex 0 -8.3 29.95
      vertex 2.56484 -7.89377 29.95
      vertex 1.14183 -12.6682 29.95
    endloop
  endfacet
  facet normal 0 0 -1
    outer loop
      vertex -1.65 -13.3054 29.95
      vertex 0 -8.3 29.95
      vertex -0.407516 -12.3146 29.95
    endloop
  endfacet
  facet normal 0 0 -1
    outer loop
      vertex 12.3478 5.22376 29.95
      vertex 7.89377 2.56484 29.95
      vertex 10.8685 5.80436 29.95
    endloop
  endfacet
  facet normal 0 0 -1
    outer loop
      vertex 6.71484 4.87862 29.95
      vertex 10.8685 5.80436 29.95
      vertex 7.89377 2.56484 29.95
    endloop
  endfacet
  facet normal 0 0 -1
    outer loop
      vertex 10.8685 5.80436 29.95
      vertex 6.71484 4.87862 29.95
      vertex 10.4001 7.32295 29.95
    endloop
  endfacet
  facet normal 0 0 -1
    outer loop
      vertex 4.87862 6.71484 29.95
      vertex 10.4001 7.32295 29.95
      vertex 6.71484 4.87862 29.95
    endloop
  endfacet
  facet normal 0 0 -1
    outer loop
      vertex 4.87862 6.71484 29.95
      vertex 21.3042 12.3 29.95
      vertex 11.2953 8.63601 29.95
    endloop
  endfacet
  facet normal 0 0 -1
    outer loop
      vertex 0 8.3 29.95
      vertex 21.3042 12.3 29.95
      vertex 2.56484 7.89377 29.95
    endloop
  endfacet
  facet normal 0 0 -1
    outer loop
      vertex -11.5419 5.34523 29.95
      vertex 3.34514e-08 -24.6 29.95
      vertex -13.1266 5.46399 29.95
    endloop
  endfacet
  facet normal 0 0 -1
    outer loop
      vertex 7.89377 2.56484 29.95
      vertex 13.7241 6.01836 29.95
      vertex 8.3 0 29.95
    endloop
  endfacet
  facet normal 1.35981e-09 1 0
    outer loop
      vertex -21.3042 12.3 29.95
      vertex -21.3042 12.3 34.7
      vertex 21.3042 12.3 29.95
    endloop
  endfacet
  facet normal 1.35981e-09 1 0
    outer loop
      vertex 21.3042 12.3 29.95
      vertex -21.3042 12.3 34.7
      vertex 21.3042 12.3 34.7
    endloop
  endfacet
  facet normal -0.866025 -0.5 0
    outer loop
      vertex -21.3042 12.3 29.95
      vertex 3.34514e-08 -24.6 29.95
      vertex -21.3042 12.3 34.7
    endloop
  endfacet
  facet normal -0.866025 -0.5 0
    outer loop
      vertex -21.3042 12.3 34.7
      vertex 3.34514e-08 -24.6 29.95
      vertex 3.34514e-08 -24.6 34.7
    endloop
  endfacet
  facet normal 0.866025 -0.5 0
    outer loop
      vertex 3.34514e-08 -24.6 34.7
      vertex 3.34514e-08 -24.6 29.95
      vertex 21.3042 12.3 29.95
    endloop
  endfacet
  facet normal 0.866025 -0.5 0
    outer loop
      vertex 21.3042 12.3 34.7
      vertex 3.34514e-08 -24.6 34.7
      vertex 21.3042 12.3 29.95
    endloop
  endfacet
  facet normal 0.365341 -0.930874 0
    outer loop
      vertex -12.0741 8.87624 29.95
      vertex -12.0741 8.87624 34.7
      vertex -13.5534 8.29564 34.7
    endloop
  endfacet
  facet normal 0.365341 -0.930874 0
    outer loop
      vertex -13.5534 8.29564 29.95
      vertex -12.0741 8.87624 29.95
      vertex -13.5534 8.29564 34.7
    endloop
  endfacet
  facet normal 0.955573 -0.294755 0
    outer loop
      vertex -13.5534 8.29564 29.95
      vertex -13.5534 8.29564 34.7
      vertex -14.0219 6.77705 34.7
    endloop
  endfacet
  facet normal 0.955573 -0.294755 0
    outer loop
      vertex -14.0219 6.77705 29.95
      vertex -13.5534 8.29564 29.95
      vertex -14.0219 6.77705 34.7
    endloop
  endfacet
  facet normal -0.5 -0.866025 0
    outer loop
      vertex -10.6978 8.08164 29.95
      vertex -10.6978 8.08164 34.7
      vertex -12.0741 8.87624 34.7
    endloop
  endfacet
  facet normal -0.5 -0.866025 0
    outer loop
      vertex -12.0741 8.87624 29.95
      vertex -10.6978 8.08164 29.95
      vertex -12.0741 8.87624 34.7
    endloop
  endfacet
  facet normal -0.988831 -0.149042 0
    outer loop
      vertex -10.461 6.5102 34.7
      vertex -10.6978 8.08164 34.7
      vertex -10.461 6.5102 29.95
    endloop
  endfacet
  facet normal -0.988831 -0.149042 0
    outer loop
      vertex -10.461 6.5102 29.95
      vertex -10.6978 8.08164 34.7
      vertex -10.6978 8.08164 29.95
    endloop
  endfacet
  facet normal -0.733052 0.680173 0
    outer loop
      vertex -10.461 6.5102 34.7
      vertex -10.461 6.5102 29.95
      vertex -11.5419 5.34523 34.7
    endloop
  endfacet
  facet normal -0.733052 0.680173 0
    outer loop
      vertex -11.5419 5.34523 34.7
      vertex -10.461 6.5102 29.95
      vertex -11.5419 5.34523 29.95
    endloop
  endfacet
  facet normal 0.0747297 0.997204 0
    outer loop
      vertex -11.5419 5.34523 34.7
      vertex -11.5419 5.34523 29.95
      vertex -13.1266 5.46399 34.7
    endloop
  endfacet
  facet normal 0.0747297 0.997204 0
    outer loop
      vertex -13.1266 5.46399 34.7
      vertex -11.5419 5.34523 29.95
      vertex -13.1266 5.46399 29.95
    endloop
  endfacet
  facet normal 0.826239 0.56332 0
    outer loop
      vertex -14.0219 6.77705 34.7
      vertex -13.1266 5.46399 34.7
      vertex -13.1266 5.46399 29.95
    endloop
  endfacet
  facet normal 0.826239 0.56332 0
    outer loop
      vertex -14.0219 6.77705 29.95
      vertex -14.0219 6.77705 34.7
      vertex -13.1266 5.46399 29.95
    endloop
  endfacet
  facet normal 0.987688 -0.156435 0
    outer loop
      vertex -7.89377 2.56484 29.95
      vertex -7.89377 2.56484 34.7
      vertex -8.3 0 34.7
    endloop
  endfacet
  facet normal 0.987688 -0.156435 0
    outer loop
      vertex -8.3 0 29.95
      vertex -7.89377 2.56484 29.95
      vertex -8.3 0 34.7
    endloop
  endfacet
  facet normal 0.987688 0.156435 0
    outer loop
      vertex -8.3 0 34.7
      vertex -7.89377 -2.56484 34.7
      vertex -7.89377 -2.56484 29.95
    endloop
  endfacet
  facet normal 0.987688 0.156435 0
    outer loop
      vertex -8.3 0 29.95
      vertex -8.3 0 34.7
      vertex -7.89377 -2.56484 29.95
    endloop
  endfacet
  facet normal 0.891007 -0.45399 0
    outer loop
      vertex -6.71484 4.87862 29.95
      vertex -6.71484 4.87862 34.7
      vertex -7.89377 2.56484 34.7
    endloop
  endfacet
  facet normal 0.891007 -0.45399 0
    outer loop
      vertex -7.89377 2.56484 29.95
      vertex -6.71484 4.87862 29.95
      vertex -7.89377 2.56484 34.7
    endloop
  endfacet
  facet normal 0.707107 -0.707107 0
    outer loop
      vertex -4.87862 6.71484 29.95
      vertex -4.87862 6.71484 34.7
      vertex -6.71484 4.87862 34.7
    endloop
  endfacet
  facet normal 0.707107 -0.707107 0
    outer loop
      vertex -6.71484 4.87862 29.95
      vertex -4.87862 6.71484 29.95
      vertex -6.71484 4.87862 34.7
    endloop
  endfacet
  facet normal 0.45399 -0.891007 0
    outer loop
      vertex -2.56484 7.89377 29.95
      vertex -2.56484 7.89377 34.7
      vertex -4.87862 6.71484 34.7
    endloop
  endfacet
  facet normal 0.45399 -0.891007 0
    outer loop
      vertex -4.87862 6.71484 29.95
      vertex -2.56484 7.89377 29.95
      vertex -4.87862 6.71484 34.7
    endloop
  endfacet
  facet normal 0.156435 -0.987688 0
    outer loop
      vertex 0 8.3 29.95
      vertex 0 8.3 34.7
      vertex -2.56484 7.89377 34.7
    endloop
  endfacet
  facet normal 0.156435 -0.987688 0
    outer loop
      vertex -2.56484 7.89377 29.95
      vertex 0 8.3 29.95
      vertex -2.56484 7.89377 34.7
    endloop
  endfacet
  facet normal -0.156435 -0.987688 0
    outer loop
      vertex 2.56484 7.89377 29.95
      vertex 2.56484 7.89377 34.7
      vertex 0 8.3 34.7
    endloop
  endfacet
  facet normal -0.156435 -0.987688 0
    outer loop
      vertex 0 8.3 29.95
      vertex 2.56484 7.89377 29.95
      vertex 0 8.3 34.7
    endloop
  endfacet
  facet normal -0.45399 -0.891007 0
    outer loop
      vertex 4.87862 6.71484 29.95
      vertex 4.87862 6.71484 34.7
      vertex 2.56484 7.89377 34.7
    endloop
  endfacet
  facet normal -0.45399 -0.891007 0
    outer loop
      vertex 2.56484 7.89377 29.95
      vertex 4.87862 6.71484 29.95
      vertex 2.56484 7.89377 34.7
    endloop
  endfacet
  facet normal -0.707107 -0.707107 0
    outer loop
      vertex 6.71484 4.87862 29.95
      vertex 6.71484 4.87862 34.7
      vertex 4.87862 6.71484 34.7
    endloop
  endfacet
  facet normal -0.707107 -0.707107 0
    outer loop
      vertex 4.87862 6.71484 29.95
      vertex 6.71484 4.87862 29.95
      vertex 4.87862 6.71484 34.7
    endloop
  endfacet
  facet normal -0.891007 -0.45399 0
    outer loop
      vertex 7.89377 2.56484 34.7
      vertex 6.71484 4.87862 34.7
      vertex 7.89377 2.56484 29.95
    endloop
  endfacet
  facet normal -0.891007 -0.45399 0
    outer loop
      vertex 7.89377 2.56484 29.95
      vertex 6.71484 4.87862 34.7
      vertex 6.71484 4.87862 29.95
    endloop
  endfacet
  facet normal -0.987688 -0.156435 0
    outer loop
      vertex 8.3 0 34.7
      vertex 7.89377 2.56484 34.7
      vertex 8.3 0 29.95
    endloop
  endfacet
  facet normal -0.987688 -0.156435 0
    outer loop
      vertex 8.3 0 29.95
      vertex 7.89377 2.56484 34.7
      vertex 7.89377 2.56484 29.95
    endloop
  endfacet
  facet normal -0.987688 0.156435 0
    outer loop
      vertex 8.3 0 34.7
      vertex 8.3 0 29.95
      vertex 7.89377 -2.56484 34.7
    endloop
  endfacet
  facet normal -0.987688 0.156435 0
    outer loop
      vertex 7.89377 -2.56484 34.7
      vertex 8.3 0 29.95
      vertex 7.89377 -2.56484 29.95
    endloop
  endfacet
  facet normal -0.891007 0.45399 0
    outer loop
      vertex 7.89377 -2.56484 34.7
      vertex 7.89377 -2.56484 29.95
      vertex 6.71484 -4.87862 34.7
    endloop
  endfacet
  facet normal -0.891007 0.45399 0
    outer loop
      vertex 6.71484 -4.87862 34.7
      vertex 7.89377 -2.56484 29.95
      vertex 6.71484 -4.87862 29.95
    endloop
  endfacet
  facet normal -0.707107 0.707107 0
    outer loop
      vertex 6.71484 -4.87862 34.7
      vertex 6.71484 -4.87862 29.95
      vertex 4.87862 -6.71484 34.7
    endloop
  endfacet
  facet normal -0.707107 0.707107 0
    outer loop
      vertex 4.87862 -6.71484 34.7
      vertex 6.71484 -4.87862 29.95
      vertex 4.87862 -6.71484 29.95
    endloop
  endfacet
  facet normal -0.45399 0.891007 0
    outer loop
      vertex 4.87862 -6.71484 34.7
      vertex 4.87862 -6.71484 29.95
      vertex 2.56484 -7.89377 34.7
    endloop
  endfacet
  facet normal -0.45399 0.891007 0
    outer loop
      vertex 2.56484 -7.89377 34.7
      vertex 4.87862 -6.71484 29.95
      vertex 2.56484 -7.89377 29.95
    endloop
  endfacet
  facet normal -0.156435 0.987688 0
    outer loop
      vertex 2.56484 -7.89377 34.7
      vertex 2.56484 -7.89377 29.95
      vertex 0 -8.3 34.7
    endloop
  endfacet
  facet normal -0.156435 0.987688 0
    outer loop
      vertex 0 -8.3 34.7
      vertex 2.56484 -7.89377 29.95
      vertex 0 -8.3 29.95
    endloop
  endfacet
  facet normal 0.156435 0.987688 0
    outer loop
      vertex 0 -8.3 34.7
      vertex 0 -8.3 29.95
      vertex -2.56484 -7.89377 34.7
    endloop
  endfacet
  facet normal 0.156435 0.987688 0
    outer loop
      vertex -2.56484 -7.89377 34.7
      vertex 0 -8.3 29.95
      vertex -2.56484 -7.89377 29.95
    endloop
  endfacet
  facet normal 0.45399 0.891007 0
    outer loop
      vertex -2.56484 -7.89377 34.7
      vertex -2.56484 -7.89377 29.95
      vertex -4.87862 -6.71484 34.7
    endloop
  endfacet
  facet normal 0.45399 0.891007 0
    outer loop
      vertex -4.87862 -6.71484 34.7
      vertex -2.56484 -7.89377 29.95
      vertex -4.87862 -6.71484 29.95
    endloop
  endfacet
  facet normal 0.707107 0.707107 0
    outer loop
      vertex -4.87862 -6.71484 34.7
      vertex -4.87862 -6.71484 29.95
      vertex -6.71484 -4.87862 34.7
    endloop
  endfacet
  facet normal 0.707107 0.707107 0
    outer loop
      vertex -6.71484 -4.87862 34.7
      vertex -4.87862 -6.71484 29.95
      vertex -6.71484 -4.87862 29.95
    endloop
  endfacet
  facet normal 0.891007 0.45399 0
    outer loop
      vertex -7.89377 -2.56484 34.7
      vertex -6.71484 -4.87862 34.7
      vertex -6.71484 -4.87862 29.95
    endloop
  endfacet
  facet normal 0.891007 0.45399 0
    outer loop
      vertex -7.89377 -2.56484 29.95
      vertex -7.89377 -2.56484 34.7
      vertex -6.71484 -4.87862 29.95
    endloop
  endfacet
  facet normal 0.62349 -0.781831 0
    outer loop
      vertex -0.407516 -12.3146 29.95
      vertex -0.407516 -12.3146 34.7
      vertex -1.65 -13.3054 34.7
    endloop
  endfacet
  facet normal 0.62349 -0.781831 0
    outer loop
      vertex -1.65 -13.3054 29.95
      vertex -0.407516 -12.3146 29.95
      vertex -1.65 -13.3054 34.7
    endloop
  endfacet
  facet normal 1 -2.44921e-16 0
    outer loop
      vertex -1.65 -13.3054 29.95
      vertex -1.65 -13.3054 34.7
      vertex -1.65 -14.8946 34.7
    endloop
  endfacet
  facet normal 1 -2.44921e-16 0
    outer loop
      vertex -1.65 -14.8946 29.95
      vertex -1.65 -13.3054 29.95
      vertex -1.65 -14.8946 34.7
    endloop
  endfacet
  facet normal -0.222521 -0.974928 0
    outer loop
      vertex 1.14183 -12.6682 29.95
      vertex 1.14183 -12.6682 34.7
      vertex -0.407516 -12.3146 34.7
    endloop
  endfacet
  facet normal -0.222521 -0.974928 0
    outer loop
      vertex -0.407516 -12.3146 29.95
      vertex 1.14183 -12.6682 29.95
      vertex -0.407516 -12.3146 34.7
    endloop
  endfacet
  facet normal -0.900969 -0.433884 0
    outer loop
      vertex 1.83136 -14.1 34.7
      vertex 1.14183 -12.6682 34.7
      vertex 1.83136 -14.1 29.95
    endloop
  endfacet
  facet normal -0.900969 -0.433884 0
    outer loop
      vertex 1.83136 -14.1 29.95
      vertex 1.14183 -12.6682 34.7
      vertex 1.14183 -12.6682 29.95
    endloop
  endfacet
  facet normal -0.900969 0.433884 0
    outer loop
      vertex 1.83136 -14.1 34.7
      vertex 1.83136 -14.1 29.95
      vertex 1.14183 -15.5318 34.7
    endloop
  endfacet
  facet normal -0.900969 0.433884 0
    outer loop
      vertex 1.14183 -15.5318 34.7
      vertex 1.83136 -14.1 29.95
      vertex 1.14183 -15.5318 29.95
    endloop
  endfacet
  facet normal -0.222521 0.974928 0
    outer loop
      vertex 1.14183 -15.5318 34.7
      vertex 1.14183 -15.5318 29.95
      vertex -0.407516 -15.8854 34.7
    endloop
  endfacet
  facet normal -0.222521 0.974928 0
    outer loop
      vertex -0.407516 -15.8854 34.7
      vertex 1.14183 -15.5318 29.95
      vertex -0.407516 -15.8854 29.95
    endloop
  endfacet
  facet normal 0.62349 0.781831 0
    outer loop
      vertex -0.407516 -15.8854 34.7
      vertex -0.407516 -15.8854 29.95
      vertex -1.65 -14.8946 34.7
    endloop
  endfacet
  facet normal 0.62349 0.781831 0
    outer loop
      vertex -1.65 -14.8946 34.7
      vertex -0.407516 -15.8854 29.95
      vertex -1.65 -14.8946 29.95
    endloop
  endfacet
  facet normal 0.826239 -0.56332 0
    outer loop
      vertex 11.2953 8.63601 29.95
      vertex 11.2953 8.63601 34.7
      vertex 10.4001 7.32295 34.7
    endloop
  endfacet
  facet normal 0.826239 -0.56332 0
    outer loop
      vertex 10.4001 7.32295 29.95
      vertex 11.2953 8.63601 29.95
      vertex 10.4001 7.32295 34.7
    endloop
  endfacet
  facet normal 0.955573 0.294755 0
    outer loop
      vertex 10.4001 7.32295 34.7
      vertex 10.8685 5.80436 34.7
      vertex 10.8685 5.80436 29.95
    endloop
  endfacet
  facet normal 0.955573 0.294755 0
    outer loop
      vertex 10.4001 7.32295 29.95
      vertex 10.4001 7.32295 34.7
      vertex 10.8685 5.80436 29.95
    endloop
  endfacet
  facet normal 0.0747297 -0.997204 0
    outer loop
      vertex 12.88 8.75477 29.95
      vertex 12.88 8.75477 34.7
      vertex 11.2953 8.63601 34.7
    endloop
  endfacet
  facet normal 0.0747297 -0.997204 0
    outer loop
      vertex 11.2953 8.63601 29.95
      vertex 12.88 8.75477 29.95
      vertex 11.2953 8.63601 34.7
    endloop
  endfacet
  facet normal -0.733052 -0.680173 0
    outer loop
      vertex 13.961 7.5898 34.7
      vertex 12.88 8.75477 34.7
      vertex 13.961 7.5898 29.95
    endloop
  endfacet
  facet normal -0.733052 -0.680173 0
    outer loop
      vertex 13.961 7.5898 29.95
      vertex 12.88 8.75477 34.7
      vertex 12.88 8.75477 29.95
    endloop
  endfacet
  facet normal -0.988831 0.149042 0
    outer loop
      vertex 13.961 7.5898 34.7
      vertex 13.961 7.5898 29.95
      vertex 13.7241 6.01836 34.7
    endloop
  endfacet
  facet normal -0.988831 0.149042 0
    outer loop
      vertex 13.7241 6.01836 34.7
      vertex 13.961 7.5898 29.95
      vertex 13.7241 6.01836 29.95
    endloop
  endfacet
  facet normal -0.5 0.866025 0
    outer loop
      vertex 13.7241 6.01836 34.7
      vertex 13.7241 6.01836 29.95
      vertex 12.3478 5.22376 34.7
    endloop
  endfacet
  facet normal -0.5 0.866025 0
    outer loop
      vertex 12.3478 5.22376 34.7
      vertex 13.7241 6.01836 29.95
      vertex 12.3478 5.22376 29.95
    endloop
  endfacet
  facet normal 0.365341 0.930874 0
    outer loop
      vertex 12.3478 5.22376 34.7
      vertex 12.3478 5.22376 29.95
      vertex 10.8685 5.80436 34.7
    endloop
  endfacet
  facet normal 0.365341 0.930874 0
    outer loop
      vertex 10.8685 5.80436 34.7
      vertex 12.3478 5.22376 29.95
      vertex 10.8685 5.80436 29.95
    endloop
  endfacet
  facet normal 0 0 1
    outer loop
      vertex -12.0741 8.87624 34.7
      vertex 21.3042 12.3 34.7
      vertex -21.3042 12.3 34.7
    endloop
  endfacet
  facet normal 0 0 1
    outer loop
      vertex -9.13546 -4.06737 34.7
      vertex -9.78148 -2.07912 34.7
      vertex -13.1266 5.46399 34.7
    endloop
  endfacet
  facet normal 0 0 1
    outer loop
      vertex -14.0219 6.77705 34.7
      vertex -13.5534 8.29564 34.7
      vertex -21.3042 12.3 34.7
    endloop
  endfacet
  facet normal 0 0 1
    outer loop
      vertex -13.5534 8.29564 34.7
      vertex -12.0741 8.87624 34.7
      vertex -21.3042 12.3 34.7
    endloop
  endfacet
  facet normal 0 0 1
    outer loop
      vertex -1.04529 9.94522 34.7
      vertex 21.3042 12.3 34.7
      vertex -12.0741 8.87624 34.7
    endloop
  endfacet
  facet normal 0 0 1
    outer loop
      vertex 3.09017 9.51056 34.7
      vertex 5 8.66025 34.7
      vertex 21.3042 12.3 34.7
    endloop
  endfacet
  facet normal 0 0 1
    outer loop
      vertex -9.78148 2.07912 34.7
      vertex -10.461 6.5102 34.7
      vertex -11.5419 5.34523 34.7
    endloop
  endfacet
  facet normal 0 0 1
    outer loop
      vertex -9.13546 -4.06737 34.7
      vertex -13.1266 5.46399 34.7
      vertex -21.3042 12.3 34.7
    endloop
  endfacet
  facet normal 0 0 1
    outer loop
      vertex -13.1266 5.46399 34.7
      vertex -14.0219 6.77705 34.7
      vertex -21.3042 12.3 34.7
    endloop
  endfacet
  facet normal 0 0 1
    outer loop
      vertex -10 0 34.7
      vertex -9.78148 2.07912 34.7
      vertex -11.5419 5.34523 34.7
    endloop
  endfacet
  facet normal 0 0 1
    outer loop
      vertex -9.78148 2.07912 34.7
      vertex -9.13546 4.06737 34.7
      vertex -10.6978 8.08164 34.7
    endloop
  endfacet
  facet normal 0 0 1
    outer loop
      vertex -6.69131 -7.43145 34.7
      vertex -8.09017 -5.87785 34.7
      vertex 3.34514e-08 -24.6 34.7
    endloop
  endfacet
  facet normal 0 0 1
    outer loop
      vertex -5 8.66025 34.7
      vertex -3.09017 9.51056 34.7
      vertex -10.6978 8.08164 34.7
    endloop
  endfacet
  facet normal 0 0 1
    outer loop
      vertex -9.13546 4.06737 34.7
      vertex -8.09017 5.87785 34.7
      vertex -10.6978 8.08164 34.7
    endloop
  endfacet
  facet normal 0 0 1
    outer loop
      vertex -8.09017 5.87785 34.7
      vertex -6.69131 7.43145 34.7
      vertex -10.6978 8.08164 34.7
    endloop
  endfacet
  facet normal 0 0 1
    outer loop
      vertex 5 8.66025 34.7
      vertex 6.69131 7.43145 34.7
      vertex 21.3042 12.3 34.7
    endloop
  endfacet
  facet normal 0 0 1
    outer loop
      vertex -6.69131 7.43145 34.7
      vertex -5 8.66025 34.7
      vertex -10.6978 8.08164 34.7
    endloop
  endfacet
  facet normal 0 0 1
    outer loop
      vertex -11.5419 5.34523 34.7
      vertex -13.1266 5.46399 34.7
      vertex -10 0 34.7
    endloop
  endfacet
  facet normal 0 0 1
    outer loop
      vertex -3.09017 9.51056 34.7
      vertex -1.04529 9.94522 34.7
      vertex -12.0741 8.87624 34.7
    endloop
  endfacet
  facet normal 0 0 1
    outer loop
      vertex 1.04529 9.94522 34.7
      vertex 3.09017 9.51056 34.7
      vertex 21.3042 12.3 34.7
    endloop
  endfacet
  facet normal 0 0 1
    outer loop
      vertex -1.04529 9.94522 34.7
      vertex 1.04529 9.94522 34.7
      vertex 21.3042 12.3 34.7
    endloop
  endfacet
  facet normal 0 0 1
    outer loop
      vertex 6.69131 -7.43145 34.7
      vertex 5 -8.66025 34.7
      vertex 3.34514e-08 -24.6 34.7
    endloop
  endfacet
  facet normal 0 0 1
    outer loop
      vertex 9.13546 -4.06737 34.7
      vertex 8.09017 -5.87785 34.7
      vertex 3.34514e-08 -24.6 34.7
    endloop
  endfacet
  facet normal 0 0 1
    outer loop
      vertex 11.2953 8.63601 34.7
      vertex 21.3042 12.3 34.7
      vertex 6.69131 7.43145 34.7
    endloop
  endfacet
  facet normal 0 0 1
    outer loop
      vertex 12.88 8.75477 34.7
      vertex 13.961 7.5898 34.7
      vertex 21.3042 12.3 34.7
    endloop
  endfacet
  facet normal 0 0 1
    outer loop
      vertex 10 0 34.7
      vertex 21.3042 12.3 34.7
      vertex 9.78148 2.07912 34.7
    endloop
  endfacet
  facet normal 0 0 1
    outer loop
      vertex 9.78148 -2.07912 34.7
      vertex 21.3042 12.3 34.7
      vertex 10 0 34.7
    endloop
  endfacet
  facet normal 0 0 1
    outer loop
      vertex 9.13546 -4.06737 34.7
      vertex 21.3042 12.3 34.7
      vertex 9.78148 -2.07912 34.7
    endloop
  endfacet
  facet normal 0 0 1
    outer loop
      vertex 8.09017 -5.87785 34.7
      vertex 6.69131 -7.43145 34.7
      vertex 3.34514e-08 -24.6 34.7
    endloop
  endfacet
  facet normal 0 0 1
    outer loop
      vertex 3.34514e-08 -24.6 34.7
      vertex 21.3042 12.3 34.7
      vertex 9.13546 -4.06737 34.7
    endloop
  endfacet
  facet normal 0 0 1
    outer loop
      vertex 5 -8.66025 34.7
      vertex 3.09017 -9.51056 34.7
      vertex 3.34514e-08 -24.6 34.7
    endloop
  endfacet
  facet normal 0 0 1
    outer loop
      vertex -5 -8.66025 34.7
      vertex -6.69131 -7.43145 34.7
      vertex 3.34514e-08 -24.6 34.7
    endloop
  endfacet
  facet normal 0 0 1
    outer loop
      vertex 1.14183 -12.6682 34.7
      vertex 3.09017 -9.51056 34.7
      vertex 1.04529 -9.94522 34.7
    endloop
  endfacet
  facet normal 0 0 1
    outer loop
      vertex -0.407516 -12.3146 34.7
      vertex 1.04529 -9.94522 34.7
      vertex -1.04529 -9.94522 34.7
    endloop
  endfacet
  facet normal 0 0 1
    outer loop
      vertex -1.65 -13.3054 34.7
      vertex -1.04529 -9.94522 34.7
      vertex -3.09017 -9.51056 34.7
    endloop
  endfacet
  facet normal 0 0 1
    outer loop
      vertex -8.09017 -5.87785 34.7
      vertex -9.13546 -4.06737 34.7
      vertex 3.34514e-08 -24.6 34.7
    endloop
  endfacet
  facet normal 0 0 1
    outer loop
      vertex 3.34514e-08 -24.6 34.7
      vertex -3.09017 -9.51056 34.7
      vertex -5 -8.66025 34.7
    endloop
  endfacet
  facet normal 0 0 1
    outer loop
      vertex -9.78148 2.07912 34.7
      vertex -10.6978 8.08164 34.7
      vertex -10.461 6.5102 34.7
    endloop
  endfacet
  facet normal 0 0 1
    outer loop
      vertex -9.78148 -2.07912 34.7
      vertex -10 0 34.7
      vertex -13.1266 5.46399 34.7
    endloop
  endfacet
  facet normal 0 0 1
    outer loop
      vertex 3.34514e-08 -24.6 34.7
      vertex -9.13546 -4.06737 34.7
      vertex -21.3042 12.3 34.7
    endloop
  endfacet
  facet normal 0 0 1
    outer loop
      vertex -1.65 -13.3054 34.7
      vertex -0.407516 -12.3146 34.7
      vertex -1.04529 -9.94522 34.7
    endloop
  endfacet
  facet normal 0 0 1
    outer loop
      vertex -1.65 -14.8946 34.7
      vertex -1.65 -13.3054 34.7
      vertex -3.09017 -9.51056 34.7
    endloop
  endfacet
  facet normal 0 0 1
    outer loop
      vertex 1.14183 -15.5318 34.7
      vertex -0.407516 -15.8854 34.7
      vertex 3.34514e-08 -24.6 34.7
    endloop
  endfacet
  facet normal 0 0 1
    outer loop
      vertex -0.407516 -15.8854 34.7
      vertex -1.65 -14.8946 34.7
      vertex 3.34514e-08 -24.6 34.7
    endloop
  endfacet
  facet normal 0 0 1
    outer loop
      vertex 1.83136 -14.1 34.7
      vertex 3.09017 -9.51056 34.7
      vertex 1.14183 -12.6682 34.7
    endloop
  endfacet
  facet normal 0 0 1
    outer loop
      vertex 3.34514e-08 -24.6 34.7
      vertex 3.09017 -9.51056 34.7
      vertex 1.83136 -14.1 34.7
    endloop
  endfacet
  facet normal 0 0 1
    outer loop
      vertex 10.8685 5.80436 34.7
      vertex 10.4001 7.32295 34.7
      vertex 8.09017 5.87785 34.7
    endloop
  endfacet
  facet normal 0 0 1
    outer loop
      vertex 3.34514e-08 -24.6 34.7
      vertex 1.83136 -14.1 34.7
      vertex 1.14183 -15.5318 34.7
    endloop
  endfacet
  facet normal 0 0 1
    outer loop
      vertex -0.407516 -12.3146 34.7
      vertex 1.14183 -12.6682 34.7
      vertex 1.04529 -9.94522 34.7
    endloop
  endfacet
  facet normal 0 0 1
    outer loop
      vertex 3.34514e-08 -24.6 34.7
      vertex -1.65 -14.8946 34.7
      vertex -3.09017 -9.51056 34.7
    endloop
  endfacet
  facet normal 0 0 1
    outer loop
      vertex 8.09017 5.87785 34.7
      vertex 10.4001 7.32295 34.7
      vertex 6.69131 7.43145 34.7
    endloop
  endfacet
  facet normal 0 0 1
    outer loop
      vertex 10.4001 7.32295 34.7
      vertex 11.2953 8.63601 34.7
      vertex 6.69131 7.43145 34.7
    endloop
  endfacet
  facet normal 0 0 1
    outer loop
      vertex 12.88 8.75477 34.7
      vertex 21.3042 12.3 34.7
      vertex 11.2953 8.63601 34.7
    endloop
  endfacet
  facet normal 0 0 1
    outer loop
      vertex 13.961 7.5898 34.7
      vertex 13.7241 6.01836 34.7
      vertex 21.3042 12.3 34.7
    endloop
  endfacet
  facet normal 0 0 1
    outer loop
      vertex 12.3478 5.22376 34.7
      vertex 10.8685 5.80436 34.7
      vertex 9.13546 4.06737 34.7
    endloop
  endfacet
  facet normal 0 0 1
    outer loop
      vertex 9.78148 2.07912 34.7
      vertex 21.3042 12.3 34.7
      vertex 13.7241 6.01836 34.7
    endloop
  endfacet
  facet normal 0 0 1
    outer loop
      vertex 9.78148 2.07912 34.7
      vertex 12.3478 5.22376 34.7
      vertex 9.13546 4.06737 34.7
    endloop
  endfacet
  facet normal 0 0 1
    outer loop
      vertex 9.78148 2.07912 34.7
      vertex 13.7241 6.01836 34.7
      vertex 12.3478 5.22376 34.7
    endloop
  endfacet
  facet normal 0 0 1
    outer loop
      vertex 9.13546 4.06737 34.7
      vertex 10.8685 5.80436 34.7
      vertex 8.09017 5.87785 34.7
    endloop
  endfacet
  facet normal 0 0 1
    outer loop
      vertex -12.0741 8.87624 34.7
      vertex -10.6978 8.08164 34.7
      vertex -3.09017 9.51056 34.7
    endloop
  endfacet
  facet normal 0 0 -1
    outer loop
      vertex -8.3 0 34.7
      vertex -7.89377 2.56484 34.7
      vertex -7.89377 -2.56484 34.7
    endloop
  endfacet
  facet normal 0 0 -1
    outer loop
      vertex -7.89377 -2.56484 34.7
      vertex -7.89377 2.56484 34.7
      vertex -6.71484 4.87862 34.7
    endloop
  endfacet
  facet normal 0 0 -1
    outer loop
      vertex -7.89377 -2.56484 34.7
      vertex -6.71484 4.87862 34.7
      vertex -4.87862 6.71484 34.7
    endloop
  endfacet
  facet normal 0 0 -1
    outer loop
      vertex -7.89377 -2.56484 34.7
      vertex -4.87862 6.71484 34.7
      vertex -2.56484 7.89377 34.7
    endloop
  endfacet
  facet normal 0 0 -1
    outer loop
      vertex -7.89377 -2.56484 34.7
      vertex -2.56484 7.89377 34.7
      vertex 0 8.3 34.7
    endloop
  endfacet
  facet normal 0 0 -1
    outer loop
      vertex -2.35114 3.23607 34.7
      vertex 0 8.3 34.7
      vertex 2.56484 7.89377 34.7
    endloop
  endfacet
  facet normal 0 0 -1
    outer loop
      vertex 0 4 34.7
      vertex 2.56484 7.89377 34.7
      vertex 4.87862 6.71484 34.7
    endloop
  endfacet
  facet normal 0 0 -1
    outer loop
      vertex 2.35114 3.23607 34.7
      vertex 4.87862 6.71484 34.7
      vertex 6.71484 4.87862 34.7
    endloop
  endfacet
  facet normal 0 0 -1
    outer loop
      vertex 3.80423 1.23607 34.7
      vertex 6.71484 4.87862 34.7
      vertex 7.89377 2.56484 34.7
    endloop
  endfacet
  facet normal 0 0 -1
    outer loop
      vertex 4 0 34.7
      vertex 7.89377 2.56484 34.7
      vertex 8.3 0 34.7
    endloop
  endfacet
  facet normal 0 0 -1
    outer loop
      vertex 3.23607 -2.35114 34.7
      vertex 8.3 0 34.7
      vertex 7.89377 -2.56484 34.7
    endloop
  endfacet
  facet normal 0 0 -1
    outer loop
      vertex 1.23607 -3.80423 34.7
      vertex 7.89377 -2.56484 34.7
      vertex 6.71484 -4.87862 34.7
    endloop
  endfacet
  facet normal 0 0 -1
    outer loop
      vertex 0 -4 34.7
      vertex 6.71484 -4.87862 34.7
      vertex 4.87862 -6.71484 34.7
    endloop
  endfacet
  facet normal 0 0 -1
    outer loop
      vertex -7.89377 -2.56484 34.7
      vertex 4.87862 -6.71484 34.7
      vertex 2.56484 -7.89377 34.7
    endloop
  endfacet
  facet normal 0 0 -1
    outer loop
      vertex -7.89377 -2.56484 34.7
      vertex 2.56484 -7.89377 34.7
      vertex 0 -8.3 34.7
    endloop
  endfacet
  facet normal 0 0 -1
    outer loop
      vertex -7.89377 -2.56484 34.7
      vertex 0 -8.3 34.7
      vertex -2.56484 -7.89377 34.7
    endloop
  endfacet
  facet normal 0 0 -1
    outer loop
      vertex -7.89377 -2.56484 34.7
      vertex -2.56484 -7.89377 34.7
      vertex -4.87862 -6.71484 34.7
    endloop
  endfacet
  facet normal 0 0 -1
    outer loop
      vertex -7.89377 -2.56484 34.7
      vertex -4.87862 -6.71484 34.7
      vertex -6.71484 -4.87862 34.7
    endloop
  endfacet
  facet normal 0 0 -1
    outer loop
      vertex -3.80423 -1.23607 34.7
      vertex -7.89377 -2.56484 34.7
      vertex -4 0 34.7
    endloop
  endfacet
  facet normal 0 0 -1
    outer loop
      vertex -3.23607 -2.35114 34.7
      vertex -7.89377 -2.56484 34.7
      vertex -3.80423 -1.23607 34.7
    endloop
  endfacet
  facet normal 0 0 -1
    outer loop
      vertex -2.35114 -3.23607 34.7
      vertex -7.89377 -2.56484 34.7
      vertex -3.23607 -2.35114 34.7
    endloop
  endfacet
  facet normal 0 0 -1
    outer loop
      vertex -1.23607 -3.80423 34.7
      vertex -7.89377 -2.56484 34.7
      vertex -2.35114 -3.23607 34.7
    endloop
  endfacet
  facet normal 0 0 -1
    outer loop
      vertex 1.23607 -3.80423 34.7
      vertex 6.71484 -4.87862 34.7
      vertex 0 -4 34.7
    endloop
  endfacet
  facet normal 0 0 -1
    outer loop
      vertex -7.89377 -2.56484 34.7
      vertex -1.23607 -3.80423 34.7
      vertex 4.87862 -6.71484 34.7
    endloop
  endfacet
  facet normal 0 0 -1
    outer loop
      vertex -1.23607 -3.80423 34.7
      vertex 0 -4 34.7
      vertex 4.87862 -6.71484 34.7
    endloop
  endfacet
  facet normal 0 0 -1
    outer loop
      vertex 2.35114 -3.23607 34.7
      vertex 7.89377 -2.56484 34.7
      vertex 1.23607 -3.80423 34.7
    endloop
  endfacet
  facet normal 0 0 -1
    outer loop
      vertex 3.23607 -2.35114 34.7
      vertex 7.89377 -2.56484 34.7
      vertex 2.35114 -3.23607 34.7
    endloop
  endfacet
  facet normal 0 0 -1
    outer loop
      vertex 3.80423 -1.23607 34.7
      vertex 8.3 0 34.7
      vertex 3.23607 -2.35114 34.7
    endloop
  endfacet
  facet normal 0 0 -1
    outer loop
      vertex 4 0 34.7
      vertex 8.3 0 34.7
      vertex 3.80423 -1.23607 34.7
    endloop
  endfacet
  facet normal 0 0 -1
    outer loop
      vertex 3.80423 1.23607 34.7
      vertex 7.89377 2.56484 34.7
      vertex 4 0 34.7
    endloop
  endfacet
  facet normal 0 0 -1
    outer loop
      vertex 3.23607 2.35114 34.7
      vertex 6.71484 4.87862 34.7
      vertex 3.80423 1.23607 34.7
    endloop
  endfacet
  facet normal 0 0 -1
    outer loop
      vertex 1.23607 3.80423 34.7
      vertex 4.87862 6.71484 34.7
      vertex 2.35114 3.23607 34.7
    endloop
  endfacet
  facet normal 0 0 -1
    outer loop
      vertex 0 4 34.7
      vertex 4.87862 6.71484 34.7
      vertex 1.23607 3.80423 34.7
    endloop
  endfacet
  facet normal 0 0 -1
    outer loop
      vertex -1.23607 3.80423 34.7
      vertex 2.56484 7.89377 34.7
      vertex 0 4 34.7
    endloop
  endfacet
  facet normal 0 0 -1
    outer loop
      vertex -3.23607 2.35114 34.7
      vertex 0 8.3 34.7
      vertex -2.35114 3.23607 34.7
    endloop
  endfacet
  facet normal 0 0 -1
    outer loop
      vertex -3.80423 1.23607 34.7
      vertex -7.89377 -2.56484 34.7
      vertex -3.23607 2.35114 34.7
    endloop
  endfacet
  facet normal 0 0 -1
    outer loop
      vertex -7.89377 -2.56484 34.7
      vertex 0 8.3 34.7
      vertex -3.23607 2.35114 34.7
    endloop
  endfacet
  facet normal 0 0 -1
    outer loop
      vertex -4 0 34.7
      vertex -7.89377 -2.56484 34.7
      vertex -3.80423 1.23607 34.7
    endloop
  endfacet
  facet normal 0 0 -1
    outer loop
      vertex -2.35114 3.23607 34.7
      vertex 2.56484 7.89377 34.7
      vertex -1.23607 3.80423 34.7
    endloop
  endfacet
  facet normal 0 0 -1
    outer loop
      vertex 2.35114 3.23607 34.7
      vertex 6.71484 4.87862 34.7
      vertex 3.23607 2.35114 34.7
    endloop
  endfacet
  facet normal -0.55376 0.0582028 0.83064
    outer loop
      vertex -3.91259 0.831647 38.7
      vertex -10 0 34.7
      vertex -4 0 38.7
    endloop
  endfacet
  facet normal -0.55376 -0.0582025 0.83064
    outer loop
      vertex -4 0 38.7
      vertex -10 0 34.7
      vertex -9.78148 -2.07912 34.7
    endloop
  endfacet
  facet normal -0.55376 0.0582025 0.83064
    outer loop
      vertex -9.78148 2.07912 34.7
      vertex -10 0 34.7
      vertex -3.91259 0.831647 38.7
    endloop
  endfacet
  facet normal -0.55376 -0.0582028 0.83064
    outer loop
      vertex -4 0 38.7
      vertex -9.78148 -2.07912 34.7
      vertex -3.91259 -0.831647 38.7
    endloop
  endfacet
  facet normal -0.529558 -0.172064 0.83064
    outer loop
      vertex -3.91259 -0.831647 38.7
      vertex -9.78148 -2.07912 34.7
      vertex -9.13546 -4.06737 34.7
    endloop
  endfacet
  facet normal -0.529558 -0.172063 0.83064
    outer loop
      vertex -3.91259 -0.831647 38.7
      vertex -9.13546 -4.06737 34.7
      vertex -3.65418 -1.62695 38.7
    endloop
  endfacet
  facet normal -0.482212 -0.278405 0.83064
    outer loop
      vertex -3.65418 -1.62695 38.7
      vertex -9.13546 -4.06737 34.7
      vertex -8.09017 -5.87785 34.7
    endloop
  endfacet
  facet normal -0.482212 -0.278405 0.83064
    outer loop
      vertex -3.65418 -1.62695 38.7
      vertex -8.09017 -5.87785 34.7
      vertex -3.23607 -2.35114 38.7
    endloop
  endfacet
  facet normal -0.41379 -0.372579 0.83064
    outer loop
      vertex -3.23607 -2.35114 38.7
      vertex -8.09017 -5.87785 34.7
      vertex -6.69131 -7.43145 34.7
    endloop
  endfacet
  facet normal -0.41379 -0.372579 0.83064
    outer loop
      vertex -3.23607 -2.35114 38.7
      vertex -6.69131 -7.43145 34.7
      vertex -2.67652 -2.97258 38.7
    endloop
  endfacet
  facet normal -0.327285 -0.450469 0.83064
    outer loop
      vertex -2.67652 -2.97258 38.7
      vertex -6.69131 -7.43145 34.7
      vertex -5 -8.66025 34.7
    endloop
  endfacet
  facet normal -0.327285 -0.450469 0.83064
    outer loop
      vertex -2.67652 -2.97258 38.7
      vertex -5 -8.66025 34.7
      vertex -2 -3.4641 38.7
    endloop
  endfacet
  facet normal -0.226475 -0.508671 0.83064
    outer loop
      vertex -2 -3.4641 38.7
      vertex -5 -8.66025 34.7
      vertex -3.09017 -9.51056 34.7
    endloop
  endfacet
  facet normal -0.226475 -0.508671 0.83064
    outer loop
      vertex -2 -3.4641 38.7
      vertex -3.09017 -9.51056 34.7
      vertex -1.23607 -3.80423 38.7
    endloop
  endfacet
  facet normal -0.115767 -0.544642 0.83064
    outer loop
      vertex -1.23607 -3.80423 38.7
      vertex -3.09017 -9.51056 34.7
      vertex -1.04529 -9.94522 34.7
    endloop
  endfacet
  facet normal -0.115768 -0.544642 0.83064
    outer loop
      vertex -0.418114 -3.97809 38.7
      vertex -1.23607 -3.80423 38.7
      vertex -1.04529 -9.94522 34.7
    endloop
  endfacet
  facet normal 0 -0.55681 0.83064
    outer loop
      vertex -0.418114 -3.97809 38.7
      vertex -1.04529 -9.94522 34.7
      vertex 1.04529 -9.94522 34.7
    endloop
  endfacet
  facet normal 0 -0.55681 0.83064
    outer loop
      vertex 0.418114 -3.97809 38.7
      vertex -0.418114 -3.97809 38.7
      vertex 1.04529 -9.94522 34.7
    endloop
  endfacet
  facet normal 0.115767 -0.544643 0.83064
    outer loop
      vertex 3.09017 -9.51056 34.7
      vertex 0.418114 -3.97809 38.7
      vertex 1.04529 -9.94522 34.7
    endloop
  endfacet
  facet normal 0.115768 -0.544642 0.83064
    outer loop
      vertex 1.23607 -3.80423 38.7
      vertex 0.418114 -3.97809 38.7
      vertex 3.09017 -9.51056 34.7
    endloop
  endfacet
  facet normal 0.226475 -0.508671 0.83064
    outer loop
      vertex 5 -8.66025 34.7
      vertex 1.23607 -3.80423 38.7
      vertex 3.09017 -9.51056 34.7
    endloop
  endfacet
  facet normal 0.226475 -0.508672 0.83064
    outer loop
      vertex 2 -3.4641 38.7
      vertex 1.23607 -3.80423 38.7
      vertex 5 -8.66025 34.7
    endloop
  endfacet
  facet normal 0.327285 -0.450469 0.83064
    outer loop
      vertex 6.69131 -7.43145 34.7
      vertex 2 -3.4641 38.7
      vertex 5 -8.66025 34.7
    endloop
  endfacet
  facet normal 0.327285 -0.450468 0.83064
    outer loop
      vertex 2.67652 -2.97258 38.7
      vertex 2 -3.4641 38.7
      vertex 6.69131 -7.43145 34.7
    endloop
  endfacet
  facet normal 0.41379 -0.372579 0.83064
    outer loop
      vertex 8.09017 -5.87785 34.7
      vertex 2.67652 -2.97258 38.7
      vertex 6.69131 -7.43145 34.7
    endloop
  endfacet
  facet normal 0.41379 -0.372579 0.83064
    outer loop
      vertex 3.23607 -2.35114 38.7
      vertex 2.67652 -2.97258 38.7
      vertex 8.09017 -5.87785 34.7
    endloop
  endfacet
  facet normal 0.482212 -0.278405 0.83064
    outer loop
      vertex 9.13546 -4.06737 34.7
      vertex 3.23607 -2.35114 38.7
      vertex 8.09017 -5.87785 34.7
    endloop
  endfacet
  facet normal 0.482212 -0.278405 0.83064
    outer loop
      vertex 3.65418 -1.62695 38.7
      vertex 3.23607 -2.35114 38.7
      vertex 9.13546 -4.06737 34.7
    endloop
  endfacet
  facet normal 0.529558 -0.172064 0.83064
    outer loop
      vertex 9.78148 -2.07912 34.7
      vertex 3.65418 -1.62695 38.7
      vertex 9.13546 -4.06737 34.7
    endloop
  endfacet
  facet normal 0.529558 -0.172063 0.83064
    outer loop
      vertex 3.91259 -0.831647 38.7
      vertex 3.65418 -1.62695 38.7
      vertex 9.78148 -2.07912 34.7
    endloop
  endfacet
  facet normal 0.55376 -0.0582025 0.83064
    outer loop
      vertex 10 0 34.7
      vertex 3.91259 -0.831647 38.7
      vertex 9.78148 -2.07912 34.7
    endloop
  endfacet
  facet normal 0.55376 -0.0582028 0.83064
    outer loop
      vertex 4 0 38.7
      vertex 3.91259 -0.831647 38.7
      vertex 10 0 34.7
    endloop
  endfacet
  facet normal 0.55376 0.0582025 0.83064
    outer loop
      vertex 9.78148 2.07912 34.7
      vertex 4 0 38.7
      vertex 10 0 34.7
    endloop
  endfacet
  facet normal 0.529558 0.172064 0.83064
    outer loop
      vertex 9.13546 4.06737 34.7
      vertex 3.91259 0.831647 38.7
      vertex 9.78148 2.07912 34.7
    endloop
  endfacet
  facet normal 0.55376 0.0582028 0.83064
    outer loop
      vertex 9.78148 2.07912 34.7
      vertex 3.91259 0.831647 38.7
      vertex 4 0 38.7
    endloop
  endfacet
  facet normal 0.482212 0.278405 0.83064
    outer loop
      vertex 8.09017 5.87785 34.7
      vertex 3.65418 1.62695 38.7
      vertex 9.13546 4.06737 34.7
    endloop
  endfacet
  facet normal 0.529558 0.172063 0.83064
    outer loop
      vertex 9.13546 4.06737 34.7
      vertex 3.65418 1.62695 38.7
      vertex 3.91259 0.831647 38.7
    endloop
  endfacet
  facet normal 0.41379 0.372579 0.83064
    outer loop
      vertex 6.69131 7.43145 34.7
      vertex 3.23607 2.35114 38.7
      vertex 8.09017 5.87785 34.7
    endloop
  endfacet
  facet normal 0.482212 0.278405 0.83064
    outer loop
      vertex 8.09017 5.87785 34.7
      vertex 3.23607 2.35114 38.7
      vertex 3.65418 1.62695 38.7
    endloop
  endfacet
  facet normal 0.327285 0.450469 0.83064
    outer loop
      vertex 5 8.66025 34.7
      vertex 2.67652 2.97258 38.7
      vertex 6.69131 7.43145 34.7
    endloop
  endfacet
  facet normal 0.41379 0.372579 0.83064
    outer loop
      vertex 6.69131 7.43145 34.7
      vertex 2.67652 2.97258 38.7
      vertex 3.23607 2.35114 38.7
    endloop
  endfacet
  facet normal 0.226475 0.508671 0.83064
    outer loop
      vertex 3.09017 9.51056 34.7
      vertex 2 3.4641 38.7
      vertex 5 8.66025 34.7
    endloop
  endfacet
  facet normal 0.327285 0.450469 0.83064
    outer loop
      vertex 5 8.66025 34.7
      vertex 2 3.4641 38.7
      vertex 2.67652 2.97258 38.7
    endloop
  endfacet
  facet normal 0.115767 0.544642 0.83064
    outer loop
      vertex 3.09017 9.51056 34.7
      vertex 1.04529 9.94522 34.7
      vertex 1.23607 3.80423 38.7
    endloop
  endfacet
  facet normal 0.226475 0.508671 0.83064
    outer loop
      vertex 3.09017 9.51056 34.7
      vertex 1.23607 3.80423 38.7
      vertex 2 3.4641 38.7
    endloop
  endfacet
  facet normal 0 0.55681 0.83064
    outer loop
      vertex 1.04529 9.94522 34.7
      vertex -1.04529 9.94522 34.7
      vertex -0.418114 3.97809 38.7
    endloop
  endfacet
  facet normal 0 0.55681 0.83064
    outer loop
      vertex 0.418114 3.97809 38.7
      vertex 1.04529 9.94522 34.7
      vertex -0.418114 3.97809 38.7
    endloop
  endfacet
  facet normal 0.115768 0.544642 0.83064
    outer loop
      vertex 1.04529 9.94522 34.7
      vertex 0.418114 3.97809 38.7
      vertex 1.23607 3.80423 38.7
    endloop
  endfacet
  facet normal -0.115767 0.544643 0.83064
    outer loop
      vertex -1.04529 9.94522 34.7
      vertex -3.09017 9.51056 34.7
      vertex -0.418114 3.97809 38.7
    endloop
  endfacet
  facet normal -0.226475 0.508671 0.83064
    outer loop
      vertex -3.09017 9.51056 34.7
      vertex -5 8.66025 34.7
      vertex -1.23607 3.80423 38.7
    endloop
  endfacet
  facet normal -0.115768 0.544642 0.83064
    outer loop
      vertex -0.418114 3.97809 38.7
      vertex -3.09017 9.51056 34.7
      vertex -1.23607 3.80423 38.7
    endloop
  endfacet
  facet normal -0.327285 0.450469 0.83064
    outer loop
      vertex -5 8.66025 34.7
      vertex -6.69131 7.43145 34.7
      vertex -2 3.4641 38.7
    endloop
  endfacet
  facet normal -0.226475 0.508672 0.83064
    outer loop
      vertex -1.23607 3.80423 38.7
      vertex -5 8.66025 34.7
      vertex -2 3.4641 38.7
    endloop
  endfacet
  facet normal -0.41379 0.372579 0.83064
    outer loop
      vertex -6.69131 7.43145 34.7
      vertex -8.09017 5.87785 34.7
      vertex -2.67652 2.97258 38.7
    endloop
  endfacet
  facet normal -0.327285 0.450468 0.83064
    outer loop
      vertex -2 3.4641 38.7
      vertex -6.69131 7.43145 34.7
      vertex -2.67652 2.97258 38.7
    endloop
  endfacet
  facet normal -0.482212 0.278405 0.83064
    outer loop
      vertex -8.09017 5.87785 34.7
      vertex -9.13546 4.06737 34.7
      vertex -3.23607 2.35114 38.7
    endloop
  endfacet
  facet normal -0.41379 0.372579 0.83064
    outer loop
      vertex -2.67652 2.97258 38.7
      vertex -8.09017 5.87785 34.7
      vertex -3.23607 2.35114 38.7
    endloop
  endfacet
  facet normal -0.529558 0.172064 0.83064
    outer loop
      vertex -9.13546 4.06737 34.7
      vertex -9.78148 2.07912 34.7
      vertex -3.65418 1.62695 38.7
    endloop
  endfacet
  facet normal -0.482212 0.278405 0.83064
    outer loop
      vertex -3.23607 2.35114 38.7
      vertex -9.13546 4.06737 34.7
      vertex -3.65418 1.62695 38.7
    endloop
  endfacet
  facet normal -0.529558 0.172063 0.83064
    outer loop
      vertex -3.65418 1.62695 38.7
      vertex -9.78148 2.07912 34.7
      vertex -3.91259 0.831647 38.7
    endloop
  endfacet
  facet normal -0.987688 -0.156435 0
    outer loop
      vertex -4 0 29.95
      vertex -3.80423 -1.23607 29.95
      vertex -4 0 34.7
    endloop
  endfacet
  facet normal -0.987688 -0.156435 0
    outer loop
      vertex -4 0 34.7
      vertex -3.80423 -1.23607 29.95
      vertex -3.80423 -1.23607 34.7
    endloop
  endfacet
  facet normal -0.987688 0.156435 0
    outer loop
      vertex -4 0 29.95
      vertex -4 0 34.7
      vertex -3.80423 1.23607 29.95
    endloop
  endfacet
  facet normal -0.987688 0.156435 0
    outer loop
      vertex -3.80423 1.23607 29.95
      vertex -4 0 34.7
      vertex -3.80423 1.23607 34.7
    endloop
  endfacet
  facet normal -0.891007 0.45399 0
    outer loop
      vertex -3.80423 1.23607 29.95
      vertex -3.80423 1.23607 34.7
      vertex -3.23607 2.35114 29.95
    endloop
  endfacet
  facet normal -0.891007 0.45399 0
    outer loop
      vertex -3.23607 2.35114 29.95
      vertex -3.80423 1.23607 34.7
      vertex -3.23607 2.35114 34.7
    endloop
  endfacet
  facet normal -0.707107 0.707107 0
    outer loop
      vertex -3.23607 2.35114 29.95
      vertex -3.23607 2.35114 34.7
      vertex -2.35114 3.23607 29.95
    endloop
  endfacet
  facet normal -0.707107 0.707107 0
    outer loop
      vertex -2.35114 3.23607 29.95
      vertex -3.23607 2.35114 34.7
      vertex -2.35114 3.23607 34.7
    endloop
  endfacet
  facet normal -0.45399 0.891007 0
    outer loop
      vertex -2.35114 3.23607 29.95
      vertex -2.35114 3.23607 34.7
      vertex -1.23607 3.80423 29.95
    endloop
  endfacet
  facet normal -0.45399 0.891007 0
    outer loop
      vertex -1.23607 3.80423 29.95
      vertex -2.35114 3.23607 34.7
      vertex -1.23607 3.80423 34.7
    endloop
  endfacet
  facet normal -0.156435 0.987688 0
    outer loop
      vertex -1.23607 3.80423 29.95
      vertex -1.23607 3.80423 34.7
      vertex 0 4 29.95
    endloop
  endfacet
  facet normal -0.156435 0.987688 0
    outer loop
      vertex 0 4 29.95
      vertex -1.23607 3.80423 34.7
      vertex 0 4 34.7
    endloop
  endfacet
  facet normal 0.156435 0.987688 0
    outer loop
      vertex 0 4 29.95
      vertex 0 4 34.7
      vertex 1.23607 3.80423 29.95
    endloop
  endfacet
  facet normal 0.156435 0.987688 0
    outer loop
      vertex 1.23607 3.80423 29.95
      vertex 0 4 34.7
      vertex 1.23607 3.80423 34.7
    endloop
  endfacet
  facet normal 0.45399 0.891007 0
    outer loop
      vertex 1.23607 3.80423 29.95
      vertex 1.23607 3.80423 34.7
      vertex 2.35114 3.23607 29.95
    endloop
  endfacet
  facet normal 0.45399 0.891007 0
    outer loop
      vertex 2.35114 3.23607 29.95
      vertex 1.23607 3.80423 34.7
      vertex 2.35114 3.23607 34.7
    endloop
  endfacet
  facet normal 0.707107 0.707107 0
    outer loop
      vertex 2.35114 3.23607 29.95
      vertex 2.35114 3.23607 34.7
      vertex 3.23607 2.35114 29.95
    endloop
  endfacet
  facet normal 0.707107 0.707107 0
    outer loop
      vertex 3.23607 2.35114 29.95
      vertex 2.35114 3.23607 34.7
      vertex 3.23607 2.35114 34.7
    endloop
  endfacet
  facet normal 0.891007 0.45399 0
    outer loop
      vertex 3.80423 1.23607 29.95
      vertex 3.23607 2.35114 29.95
      vertex 3.23607 2.35114 34.7
    endloop
  endfacet
  facet normal 0.891007 0.45399 0
    outer loop
      vertex 3.80423 1.23607 34.7
      vertex 3.80423 1.23607 29.95
      vertex 3.23607 2.35114 34.7
    endloop
  endfacet
  facet normal 0.987688 0.156435 0
    outer loop
      vertex 4 0 29.95
      vertex 3.80423 1.23607 29.95
      vertex 3.80423 1.23607 34.7
    endloop
  endfacet
  facet normal 0.987688 0.156435 0
    outer loop
      vertex 4 0 34.7
      vertex 4 0 29.95
      vertex 3.80423 1.23607 34.7
    endloop
  endfacet
  facet normal 0.987688 -0.156435 0
    outer loop
      vertex 3.80423 -1.23607 34.7
      vertex 3.80423 -1.23607 29.95
      vertex 4 0 29.95
    endloop
  endfacet
  facet normal 0.987688 -0.156435 0
    outer loop
      vertex 4 0 34.7
      vertex 3.80423 -1.23607 34.7
      vertex 4 0 29.95
    endloop
  endfacet
  facet normal 0.891007 -0.45399 0
    outer loop
      vertex 3.23607 -2.35114 34.7
      vertex 3.23607 -2.35114 29.95
      vertex 3.80423 -1.23607 29.95
    endloop
  endfacet
  facet normal 0.891007 -0.45399 0
    outer loop
      vertex 3.80423 -1.23607 34.7
      vertex 3.23607 -2.35114 34.7
      vertex 3.80423 -1.23607 29.95
    endloop
  endfacet
  facet normal 0.707107 -0.707107 0
    outer loop
      vertex 2.35114 -3.23607 34.7
      vertex 2.35114 -3.23607 29.95
      vertex 3.23607 -2.35114 29.95
    endloop
  endfacet
  facet normal 0.707107 -0.707107 0
    outer loop
      vertex 3.23607 -2.35114 34.7
      vertex 2.35114 -3.23607 34.7
      vertex 3.23607 -2.35114 29.95
    endloop
  endfacet
  facet normal 0.45399 -0.891007 0
    outer loop
      vertex 1.23607 -3.80423 34.7
      vertex 1.23607 -3.80423 29.95
      vertex 2.35114 -3.23607 29.95
    endloop
  endfacet
  facet normal 0.45399 -0.891007 0
    outer loop
      vertex 2.35114 -3.23607 34.7
      vertex 1.23607 -3.80423 34.7
      vertex 2.35114 -3.23607 29.95
    endloop
  endfacet
  facet normal 0.156435 -0.987688 0
    outer loop
      vertex 0 -4 34.7
      vertex 0 -4 29.95
      vertex 1.23607 -3.80423 29.95
    endloop
  endfacet
  facet normal 0.156435 -0.987688 0
    outer loop
      vertex 1.23607 -3.80423 34.7
      vertex 0 -4 34.7
      vertex 1.23607 -3.80423 29.95
    endloop
  endfacet
  facet normal -0.156435 -0.987688 0
    outer loop
      vertex -1.23607 -3.80423 34.7
      vertex -1.23607 -3.80423 29.95
      vertex 0 -4 29.95
    endloop
  endfacet
  facet normal -0.156435 -0.987688 0
    outer loop
      vertex 0 -4 34.7
      vertex -1.23607 -3.80423 34.7
      vertex 0 -4 29.95
    endloop
  endfacet
  facet normal -0.45399 -0.891007 0
    outer loop
      vertex -2.35114 -3.23607 34.7
      vertex -2.35114 -3.23607 29.95
      vertex -1.23607 -3.80423 29.95
    endloop
  endfacet
  facet normal -0.45399 -0.891007 0
    outer loop
      vertex -1.23607 -3.80423 34.7
      vertex -2.35114 -3.23607 34.7
      vertex -1.23607 -3.80423 29.95
    endloop
  endfacet
  facet normal -0.707107 -0.707107 0
    outer loop
      vertex -3.23607 -2.35114 34.7
      vertex -3.23607 -2.35114 29.95
      vertex -2.35114 -3.23607 29.95
    endloop
  endfacet
  facet normal -0.707107 -0.707107 0
    outer loop
      vertex -2.35114 -3.23607 34.7
      vertex -3.23607 -2.35114 34.7
      vertex -2.35114 -3.23607 29.95
    endloop
  endfacet
  facet normal -0.891007 -0.45399 0
    outer loop
      vertex -3.80423 -1.23607 29.95
      vertex -3.23607 -2.35114 29.95
      vertex -3.80423 -1.23607 34.7
    endloop
  endfacet
  facet normal -0.891007 -0.45399 0
    outer loop
      vertex -3.80423 -1.23607 34.7
      vertex -3.23607 -2.35114 29.95
      vertex -3.23607 -2.35114 34.7
    endloop
  endfacet
  facet normal 0 0 1
    outer loop
      vertex -3.91259 0.831647 38.7
      vertex -4 0 38.7
      vertex -3.91259 -0.831647 38.7
    endloop
  endfacet
  facet normal 0 0 1
    outer loop
      vertex -3.23607 -2.35114 38.7
      vertex -3.91259 0.831647 38.7
      vertex -3.65418 -1.62695 38.7
    endloop
  endfacet
  facet normal 0 0 1
    outer loop
      vertex -3.65418 -1.62695 38.7
      vertex -3.91259 0.831647 38.7
      vertex -3.91259 -0.831647 38.7
    endloop
  endfacet
  facet normal 0 0 1
    outer loop
      vertex -2.67652 -2.97258 38.7
      vertex -3.91259 0.831647 38.7
      vertex -3.23607 -2.35114 38.7
    endloop
  endfacet
  facet normal 0 0 1
    outer loop
      vertex -2 -3.4641 38.7
      vertex -3.91259 0.831647 38.7
      vertex -2.67652 -2.97258 38.7
    endloop
  endfacet
  facet normal 0 0 1
    outer loop
      vertex -1.23607 -3.80423 38.7
      vertex -3.91259 0.831647 38.7
      vertex -2 -3.4641 38.7
    endloop
  endfacet
  facet normal 0 0 1
    outer loop
      vertex -0.418114 -3.97809 38.7
      vertex -3.91259 0.831647 38.7
      vertex -1.23607 -3.80423 38.7
    endloop
  endfacet
  facet normal 0 0 1
    outer loop
      vertex 0.418114 -3.97809 38.7
      vertex -3.91259 0.831647 38.7
      vertex -0.418114 -3.97809 38.7
    endloop
  endfacet
  facet normal 0 0 1
    outer loop
      vertex 1.23607 -3.80423 38.7
      vertex -3.91259 0.831647 38.7
      vertex 0.418114 -3.97809 38.7
    endloop
  endfacet
  facet normal 0 0 1
    outer loop
      vertex 2 -3.4641 38.7
      vertex -3.91259 0.831647 38.7
      vertex 1.23607 -3.80423 38.7
    endloop
  endfacet
  facet normal 0 0 1
    outer loop
      vertex -0.477458 -1.46946 38.7
      vertex -3.91259 0.831647 38.7
      vertex 2 -3.4641 38.7
    endloop
  endfacet
  facet normal 0 0 1
    outer loop
      vertex 1.25 0.908178 38.7
      vertex 4 0 38.7
      vertex 3.91259 0.831647 38.7
    endloop
  endfacet
  facet normal 0 0 1
    outer loop
      vertex 1.25 0.908178 38.7
      vertex 1.25 -0.908178 38.7
      vertex 3.65418 -1.62695 38.7
    endloop
  endfacet
  facet normal 0 0 1
    outer loop
      vertex 1.25 0.908178 38.7
      vertex 3.65418 -1.62695 38.7
      vertex 3.91259 -0.831647 38.7
    endloop
  endfacet
  facet normal 0 0 1
    outer loop
      vertex 1.25 0.908178 38.7
      vertex 3.91259 -0.831647 38.7
      vertex 4 0 38.7
    endloop
  endfacet
  facet normal 0 0 1
    outer loop
      vertex 2.67652 2.97258 38.7
      vertex -3.91259 0.831647 38.7
      vertex 3.23607 2.35114 38.7
    endloop
  endfacet
  facet normal 0 0 1
    outer loop
      vertex 2 3.4641 38.7
      vertex -3.91259 0.831647 38.7
      vertex 2.67652 2.97258 38.7
    endloop
  endfacet
  facet normal 0 0 1
    outer loop
      vertex 1.23607 3.80423 38.7
      vertex -3.91259 0.831647 38.7
      vertex 2 3.4641 38.7
    endloop
  endfacet
  facet normal 0 0 1
    outer loop
      vertex 0.418114 3.97809 38.7
      vertex -3.91259 0.831647 38.7
      vertex 1.23607 3.80423 38.7
    endloop
  endfacet
  facet normal 0 0 1
    outer loop
      vertex -0.418114 3.97809 38.7
      vertex -3.91259 0.831647 38.7
      vertex 0.418114 3.97809 38.7
    endloop
  endfacet
  facet normal 0 0 1
    outer loop
      vertex -1.23607 3.80423 38.7
      vertex -3.91259 0.831647 38.7
      vertex -0.418114 3.97809 38.7
    endloop
  endfacet
  facet normal 0 0 1
    outer loop
      vertex -2 3.4641 38.7
      vertex -3.91259 0.831647 38.7
      vertex -1.23607 3.80423 38.7
    endloop
  endfacet
  facet normal 0 0 1
    outer loop
      vertex -2.67652 2.97258 38.7
      vertex -3.91259 0.831647 38.7
      vertex -2 3.4641 38.7
    endloop
  endfacet
  facet normal 0 0 1
    outer loop
      vertex -3.23607 2.35114 38.7
      vertex -3.91259 0.831647 38.7
      vertex -2.67652 2.97258 38.7
    endloop
  endfacet
  facet normal 0 0 1
    outer loop
      vertex -3.65418 1.62695 38.7
      vertex -3.91259 0.831647 38.7
      vertex -3.23607 2.35114 38.7
    endloop
  endfacet
  facet normal 0 0 1
    outer loop
      vertex 2.67652 -2.97258 38.7
      vertex -0.477458 -1.46946 38.7
      vertex 2 -3.4641 38.7
    endloop
  endfacet
  facet normal 0 0 1
    outer loop
      vertex -0.477458 1.46946 38.7
      vertex 1.25 0.908178 38.7
      vertex 3.65418 1.62695 38.7
    endloop
  endfacet
  facet normal 0 0 1
    outer loop
      vertex 3.23607 2.35114 38.7
      vertex -0.477458 1.46946 38.7
      vertex 3.65418 1.62695 38.7
    endloop
  endfacet
  facet normal 0 0 1
    outer loop
      vertex 3.23607 2.35114 38.7
      vertex -3.91259 0.831647 38.7
      vertex -0.477458 1.46946 38.7
    endloop
  endfacet
  facet normal 0 0 1
    outer loop
      vertex 3.65418 1.62695 38.7
      vertex 1.25 0.908178 38.7
      vertex 3.91259 0.831647 38.7
    endloop
  endfacet
  facet normal 0 0 1
    outer loop
      vertex 3.65418 -1.62695 38.7
      vertex 1.25 -0.908178 38.7
      vertex 3.23607 -2.35114 38.7
    endloop
  endfacet
  facet normal 0 0 1
    outer loop
      vertex -0.477458 -1.46946 38.7
      vertex -1.54508 1.89212e-16 38.7
      vertex -3.91259 0.831647 38.7
    endloop
  endfacet
  facet normal 0 0 1
    outer loop
      vertex 1.25 -0.908178 38.7
      vertex 2.67652 -2.97258 38.7
      vertex 3.23607 -2.35114 38.7
    endloop
  endfacet
  facet normal 0 0 1
    outer loop
      vertex 1.25 -0.908178 38.7
      vertex -0.477458 -1.46946 38.7
      vertex 2.67652 -2.97258 38.7
    endloop
  endfacet
  facet normal 0 0 1
    outer loop
      vertex -1.54508 1.89212e-16 38.7
      vertex -0.477458 1.46946 38.7
      vertex -3.91259 0.831647 38.7
    endloop
  endfacet
  facet normal 0 0 -1
    outer loop
      vertex -4 0 29.95
      vertex -3.80423 1.23607 29.95
      vertex -3.80423 -1.23607 29.95
    endloop
  endfacet
  facet normal 0 0 -1
    outer loop
      vertex -3.56646 1.15881 29.95
      vertex -3.80423 1.23607 29.95
      vertex -3.23607 2.35114 29.95
    endloop
  endfacet
  facet normal 0 0 -1
    outer loop
      vertex -3.03381 2.20419 29.95
      vertex -3.23607 2.35114 29.95
      vertex -2.35114 3.23607 29.95
    endloop
  endfacet
  facet normal 0 0 -1
    outer loop
      vertex -2.20419 3.03381 29.95
      vertex -2.35114 3.23607 29.95
      vertex -1.23607 3.80423 29.95
    endloop
  endfacet
  facet normal 0 0 -1
    outer loop
      vertex -1.15881 3.56646 29.95
      vertex -1.23607 3.80423 29.95
      vertex 0 4 29.95
    endloop
  endfacet
  facet normal 0 0 -1
    outer loop
      vertex 0 3.75 29.95
      vertex 0 4 29.95
      vertex 1.23607 3.80423 29.95
    endloop
  endfacet
  facet normal 0 0 -1
    outer loop
      vertex 1.15881 3.56646 29.95
      vertex 1.23607 3.80423 29.95
      vertex 2.35114 3.23607 29.95
    endloop
  endfacet
  facet normal 0 0 -1
    outer loop
      vertex 2.20419 3.03381 29.95
      vertex 2.35114 3.23607 29.95
      vertex 3.23607 2.35114 29.95
    endloop
  endfacet
  facet normal 0 0 -1
    outer loop
      vertex 3.56646 1.15881 29.95
      vertex 3.23607 2.35114 29.95
      vertex 3.80423 1.23607 29.95
    endloop
  endfacet
  facet normal 0 0 -1
    outer loop
      vertex 3.75 0 29.95
      vertex 3.80423 1.23607 29.95
      vertex 4 0 29.95
    endloop
  endfacet
  facet normal 0 0 -1
    outer loop
      vertex 3.56646 -1.15881 29.95
      vertex 4 0 29.95
      vertex 3.80423 -1.23607 29.95
    endloop
  endfacet
  facet normal 0 0 -1
    outer loop
      vertex 3.03381 -2.20419 29.95
      vertex 3.80423 -1.23607 29.95
      vertex 3.23607 -2.35114 29.95
    endloop
  endfacet
  facet normal 0 0 -1
    outer loop
      vertex 2.20419 -3.03381 29.95
      vertex 3.23607 -2.35114 29.95
      vertex 2.35114 -3.23607 29.95
    endloop
  endfacet
  facet normal 0 0 -1
    outer loop
      vertex 1.15881 -3.56646 29.95
      vertex 2.35114 -3.23607 29.95
      vertex 1.23607 -3.80423 29.95
    endloop
  endfacet
  facet normal 0 0 -1
    outer loop
      vertex 0 -3.75 29.95
      vertex 1.23607 -3.80423 29.95
      vertex 0 -4 29.95
    endloop
  endfacet
  facet normal 0 0 -1
    outer loop
      vertex -1.15881 -3.56646 29.95
      vertex 0 -4 29.95
      vertex -1.23607 -3.80423 29.95
    endloop
  endfacet
  facet normal 0 0 -1
    outer loop
      vertex -2.20419 -3.03381 29.95
      vertex -1.23607 -3.80423 29.95
      vertex -2.35114 -3.23607 29.95
    endloop
  endfacet
  facet normal 0 0 -1
    outer loop
      vertex -3.80423 -1.23607 29.95
      vertex -2.35114 -3.23607 29.95
      vertex -3.23607 -2.35114 29.95
    endloop
  endfacet
  facet normal 0 0 -1
    outer loop
      vertex -3.80423 -1.23607 29.95
      vertex -3.80423 1.23607 29.95
      vertex -3.75 0 29.95
    endloop
  endfacet
  facet normal 0 0 -1
    outer loop
      vertex -3.03381 -2.20419 29.95
      vertex -3.80423 -1.23607 29.95
      vertex -3.56646 -1.15881 29.95
    endloop
  endfacet
  facet normal 0 0 -1
    outer loop
      vertex -1.15881 -3.56646 29.95
      vertex -1.23607 -3.80423 29.95
      vertex -2.20419 -3.03381 29.95
    endloop
  endfacet
  facet normal 0 0 -1
    outer loop
      vertex -3.80423 -1.23607 29.95
      vertex -3.03381 -2.20419 29.95
      vertex -2.35114 -3.23607 29.95
    endloop
  endfacet
  facet normal 0 0 -1
    outer loop
      vertex -3.03381 -2.20419 29.95
      vertex -2.20419 -3.03381 29.95
      vertex -2.35114 -3.23607 29.95
    endloop
  endfacet
  facet normal 0 0 -1
    outer loop
      vertex 3.56646 1.15881 29.95
      vertex 3.80423 1.23607 29.95
      vertex 3.75 0 29.95
    endloop
  endfacet
  facet normal 0 0 -1
    outer loop
      vertex 3.03381 2.20419 29.95
      vertex 3.23607 2.35114 29.95
      vertex 3.56646 1.15881 29.95
    endloop
  endfacet
  facet normal 0 0 -1
    outer loop
      vertex 3.75 0 29.95
      vertex 4 0 29.95
      vertex 3.56646 -1.15881 29.95
    endloop
  endfacet
  facet normal 0 0 -1
    outer loop
      vertex 3.56646 -1.15881 29.95
      vertex 3.80423 -1.23607 29.95
      vertex 3.03381 -2.20419 29.95
    endloop
  endfacet
  facet normal 0 0 -1
    outer loop
      vertex 3.03381 -2.20419 29.95
      vertex 3.23607 -2.35114 29.95
      vertex 2.20419 -3.03381 29.95
    endloop
  endfacet
  facet normal 0 0 -1
    outer loop
      vertex 2.20419 -3.03381 29.95
      vertex 2.35114 -3.23607 29.95
      vertex 1.15881 -3.56646 29.95
    endloop
  endfacet
  facet normal 0 0 -1
    outer loop
      vertex 1.15881 -3.56646 29.95
      vertex 1.23607 -3.80423 29.95
      vertex 0 -3.75 29.95
    endloop
  endfacet
  facet normal 0 0 -1
    outer loop
      vertex 0 -3.75 29.95
      vertex 0 -4 29.95
      vertex -1.15881 -3.56646 29.95
    endloop
  endfacet
  facet normal 0 0 -1
    outer loop
      vertex -3.75 0 29.95
      vertex -3.80423 1.23607 29.95
      vertex -3.56646 1.15881 29.95
    endloop
  endfacet
  facet normal 0 0 -1
    outer loop
      vertex -3.56646 -1.15881 29.95
      vertex -3.80423 -1.23607 29.95
      vertex -3.75 0 29.95
    endloop
  endfacet
  facet normal 0 0 -1
    outer loop
      vertex -3.56646 1.15881 29.95
      vertex -3.23607 2.35114 29.95
      vertex -3.03381 2.20419 29.95
    endloop
  endfacet
  facet normal 0 0 -1
    outer loop
      vertex -3.03381 2.20419 29.95
      vertex -2.35114 3.23607 29.95
      vertex -2.20419 3.03381 29.95
    endloop
  endfacet
  facet normal 0 0 -1
    outer loop
      vertex -2.20419 3.03381 29.95
      vertex -1.23607 3.80423 29.95
      vertex -1.15881 3.56646 29.95
    endloop
  endfacet
  facet normal 0 0 -1
    outer loop
      vertex -1.15881 3.56646 29.95
      vertex 0 4 29.95
      vertex 0 3.75 29.95
    endloop
  endfacet
  facet normal 0 0 -1
    outer loop
      vertex 0 3.75 29.95
      vertex 1.23607 3.80423 29.95
      vertex 1.15881 3.56646 29.95
    endloop
  endfacet
  facet normal 0 0 -1
    outer loop
      vertex 1.15881 3.56646 29.95
      vertex 2.35114 3.23607 29.95
      vertex 2.20419 3.03381 29.95
    endloop
  endfacet
  facet normal 0 0 -1
    outer loop
      vertex 2.20419 3.03381 29.95
      vertex 3.23607 2.35114 29.95
      vertex 3.03381 2.20419 29.95
    endloop
  endfacet
  facet normal 0.809017 0.587785 0
    outer loop
      vertex -1.54508 1.89212e-16 38.7
      vertex -0.477458 -1.46946 38.7
      vertex -0.477458 -1.46946 35.7
    endloop
  endfacet
  facet normal 0.809017 0.587785 0
    outer loop
      vertex -1.54508 1.89212e-16 35.7
      vertex -1.54508 1.89212e-16 38.7
      vertex -0.477458 -1.46946 35.7
    endloop
  endfacet
  facet normal -0.309017 0.951057 0
    outer loop
      vertex 1.25 -0.908178 38.7
      vertex 1.25 -0.908178 35.7
      vertex -0.477458 -1.46946 38.7
    endloop
  endfacet
  facet normal -0.309017 0.951057 0
    outer loop
      vertex -0.477458 -1.46946 38.7
      vertex 1.25 -0.908178 35.7
      vertex -0.477458 -1.46946 35.7
    endloop
  endfacet
  facet normal -1 1.22461e-16 0
    outer loop
      vertex 1.25 0.908178 38.7
      vertex 1.25 0.908178 35.7
      vertex 1.25 -0.908178 38.7
    endloop
  endfacet
  facet normal -1 1.22461e-16 0
    outer loop
      vertex 1.25 -0.908178 38.7
      vertex 1.25 0.908178 35.7
      vertex 1.25 -0.908178 35.7
    endloop
  endfacet
  facet normal -0.309017 -0.951057 0
    outer loop
      vertex 1.25 0.908178 35.7
      vertex 1.25 0.908178 38.7
      vertex -0.477458 1.46946 38.7
    endloop
  endfacet
  facet normal -0.309017 -0.951057 0
    outer loop
      vertex -0.477458 1.46946 35.7
      vertex 1.25 0.908178 35.7
      vertex -0.477458 1.46946 38.7
    endloop
  endfacet
  facet normal 0.809017 -0.587785 0
    outer loop
      vertex -0.477458 1.46946 35.7
      vertex -0.477458 1.46946 38.7
      vertex -1.54508 1.89212e-16 38.7
    endloop
  endfacet
  facet normal 0.809017 -0.587785 0
    outer loop
      vertex -1.54508 1.89212e-16 35.7
      vertex -0.477458 1.46946 35.7
      vertex -1.54508 1.89212e-16 38.7
    endloop
  endfacet
  facet normal 0.987688 0.156434 0
    outer loop
      vertex -3.75 0 33.95
      vertex -3.56646 -1.15881 33.95
      vertex -3.56646 -1.15881 29.95
    endloop
  endfacet
  facet normal 0.987688 0.156434 0
    outer loop
      vertex -3.75 0 29.95
      vertex -3.75 0 33.95
      vertex -3.56646 -1.15881 29.95
    endloop
  endfacet
  facet normal 0.987688 -0.156434 0
    outer loop
      vertex -3.56646 1.15881 29.95
      vertex -3.56646 1.15881 33.95
      vertex -3.75 0 33.95
    endloop
  endfacet
  facet normal 0.987688 -0.156434 0
    outer loop
      vertex -3.75 0 29.95
      vertex -3.56646 1.15881 29.95
      vertex -3.75 0 33.95
    endloop
  endfacet
  facet normal 0.891007 -0.45399 0
    outer loop
      vertex -3.03381 2.20419 29.95
      vertex -3.03381 2.20419 33.95
      vertex -3.56646 1.15881 33.95
    endloop
  endfacet
  facet normal 0.891007 -0.45399 0
    outer loop
      vertex -3.56646 1.15881 29.95
      vertex -3.03381 2.20419 29.95
      vertex -3.56646 1.15881 33.95
    endloop
  endfacet
  facet normal 0.707107 -0.707107 0
    outer loop
      vertex -2.20419 3.03381 29.95
      vertex -2.20419 3.03381 33.95
      vertex -3.03381 2.20419 33.95
    endloop
  endfacet
  facet normal 0.707107 -0.707107 0
    outer loop
      vertex -3.03381 2.20419 29.95
      vertex -2.20419 3.03381 29.95
      vertex -3.03381 2.20419 33.95
    endloop
  endfacet
  facet normal 0.45399 -0.891007 0
    outer loop
      vertex -1.15881 3.56646 29.95
      vertex -1.15881 3.56646 33.95
      vertex -2.20419 3.03381 33.95
    endloop
  endfacet
  facet normal 0.45399 -0.891007 0
    outer loop
      vertex -2.20419 3.03381 29.95
      vertex -1.15881 3.56646 29.95
      vertex -2.20419 3.03381 33.95
    endloop
  endfacet
  facet normal 0.156434 -0.987688 0
    outer loop
      vertex 0 3.75 29.95
      vertex 0 3.75 33.95
      vertex -1.15881 3.56646 33.95
    endloop
  endfacet
  facet normal 0.156434 -0.987688 0
    outer loop
      vertex -1.15881 3.56646 29.95
      vertex 0 3.75 29.95
      vertex -1.15881 3.56646 33.95
    endloop
  endfacet
  facet normal -0.156434 -0.987688 0
    outer loop
      vertex 1.15881 3.56646 29.95
      vertex 1.15881 3.56646 33.95
      vertex 0 3.75 33.95
    endloop
  endfacet
  facet normal -0.156434 -0.987688 0
    outer loop
      vertex 0 3.75 29.95
      vertex 1.15881 3.56646 29.95
      vertex 0 3.75 33.95
    endloop
  endfacet
  facet normal -0.45399 -0.891007 0
    outer loop
      vertex 2.20419 3.03381 29.95
      vertex 2.20419 3.03381 33.95
      vertex 1.15881 3.56646 33.95
    endloop
  endfacet
  facet normal -0.45399 -0.891007 0
    outer loop
      vertex 1.15881 3.56646 29.95
      vertex 2.20419 3.03381 29.95
      vertex 1.15881 3.56646 33.95
    endloop
  endfacet
  facet normal -0.707107 -0.707107 0
    outer loop
      vertex 3.03381 2.20419 29.95
      vertex 3.03381 2.20419 33.95
      vertex 2.20419 3.03381 33.95
    endloop
  endfacet
  facet normal -0.707107 -0.707107 0
    outer loop
      vertex 2.20419 3.03381 29.95
      vertex 3.03381 2.20419 29.95
      vertex 2.20419 3.03381 33.95
    endloop
  endfacet
  facet normal -0.891007 -0.45399 0
    outer loop
      vertex 3.56646 1.15881 33.95
      vertex 3.03381 2.20419 33.95
      vertex 3.56646 1.15881 29.95
    endloop
  endfacet
  facet normal -0.891007 -0.45399 0
    outer loop
      vertex 3.56646 1.15881 29.95
      vertex 3.03381 2.20419 33.95
      vertex 3.03381 2.20419 29.95
    endloop
  endfacet
  facet normal -0.987688 -0.156434 0
    outer loop
      vertex 3.75 0 33.95
      vertex 3.56646 1.15881 33.95
      vertex 3.75 0 29.95
    endloop
  endfacet
  facet normal -0.987688 -0.156434 0
    outer loop
      vertex 3.75 0 29.95
      vertex 3.56646 1.15881 33.95
      vertex 3.56646 1.15881 29.95
    endloop
  endfacet
  facet normal -0.987688 0.156434 0
    outer loop
      vertex 3.75 0 33.95
      vertex 3.75 0 29.95
      vertex 3.56646 -1.15881 33.95
    endloop
  endfacet
  facet normal -0.987688 0.156434 0
    outer loop
      vertex 3.56646 -1.15881 33.95
      vertex 3.75 0 29.95
      vertex 3.56646 -1.15881 29.95
    endloop
  endfacet
  facet normal -0.891007 0.45399 0
    outer loop
      vertex 3.56646 -1.15881 33.95
      vertex 3.56646 -1.15881 29.95
      vertex 3.03381 -2.20419 33.95
    endloop
  endfacet
  facet normal -0.891007 0.45399 0
    outer loop
      vertex 3.03381 -2.20419 33.95
      vertex 3.56646 -1.15881 29.95
      vertex 3.03381 -2.20419 29.95
    endloop
  endfacet
  facet normal -0.707107 0.707107 0
    outer loop
      vertex 3.03381 -2.20419 33.95
      vertex 3.03381 -2.20419 29.95
      vertex 2.20419 -3.03381 33.95
    endloop
  endfacet
  facet normal -0.707107 0.707107 0
    outer loop
      vertex 2.20419 -3.03381 33.95
      vertex 3.03381 -2.20419 29.95
      vertex 2.20419 -3.03381 29.95
    endloop
  endfacet
  facet normal -0.45399 0.891007 0
    outer loop
      vertex 2.20419 -3.03381 33.95
      vertex 2.20419 -3.03381 29.95
      vertex 1.15881 -3.56646 33.95
    endloop
  endfacet
  facet normal -0.45399 0.891007 0
    outer loop
      vertex 1.15881 -3.56646 33.95
      vertex 2.20419 -3.03381 29.95
      vertex 1.15881 -3.56646 29.95
    endloop
  endfacet
  facet normal -0.156434 0.987688 0
    outer loop
      vertex 1.15881 -3.56646 33.95
      vertex 1.15881 -3.56646 29.95
      vertex 0 -3.75 33.95
    endloop
  endfacet
  facet normal -0.156434 0.987688 0
    outer loop
      vertex 0 -3.75 33.95
      vertex 1.15881 -3.56646 29.95
      vertex 0 -3.75 29.95
    endloop
  endfacet
  facet normal 0.156434 0.987688 0
    outer loop
      vertex 0 -3.75 33.95
      vertex 0 -3.75 29.95
      vertex -1.15881 -3.56646 33.95
    endloop
  endfacet
  facet normal 0.156434 0.987688 0
    outer loop
      vertex -1.15881 -3.56646 33.95
      vertex 0 -3.75 29.95
      vertex -1.15881 -3.56646 29.95
    endloop
  endfacet
  facet normal 0.45399 0.891007 0
    outer loop
      vertex -1.15881 -3.56646 33.95
      vertex -1.15881 -3.56646 29.95
      vertex -2.20419 -3.03381 33.95
    endloop
  endfacet
  facet normal 0.45399 0.891007 0
    outer loop
      vertex -2.20419 -3.03381 33.95
      vertex -1.15881 -3.56646 29.95
      vertex -2.20419 -3.03381 29.95
    endloop
  endfacet
  facet normal 0.707107 0.707107 0
    outer loop
      vertex -2.20419 -3.03381 33.95
      vertex -2.20419 -3.03381 29.95
      vertex -3.03381 -2.20419 33.95
    endloop
  endfacet
  facet normal 0.707107 0.707107 0
    outer loop
      vertex -3.03381 -2.20419 33.95
      vertex -2.20419 -3.03381 29.95
      vertex -3.03381 -2.20419 29.95
    endloop
  endfacet
  facet normal 0.891007 0.45399 0
    outer loop
      vertex -3.56646 -1.15881 33.95
      vertex -3.03381 -2.20419 33.95
      vertex -3.03381 -2.20419 29.95
    endloop
  endfacet
  facet normal 0.891007 0.45399 0
    outer loop
      vertex -3.56646 -1.15881 29.95
      vertex -3.56646 -1.15881 33.95
      vertex -3.03381 -2.20419 29.95
    endloop
  endfacet
  facet normal 0 0 1
    outer loop
      vertex -0.477458 -1.46946 35.7
      vertex 1.25 -0.908178 35.7
      vertex 1.25 0.908178 35.7
    endloop
  endfacet
  facet normal 0 0 1
    outer loop
      vertex -1.54508 1.89212e-16 35.7
      vertex -0.477458 -1.46946 35.7
      vertex -0.477458 1.46946 35.7
    endloop
  endfacet
  facet normal 0 0 1
    outer loop
      vertex -0.477458 1.46946 35.7
      vertex -0.477458 -1.46946 35.7
      vertex 1.25 0.908178 35.7
    endloop
  endfacet
  facet normal 0 0 -1
    outer loop
      vertex -3.03381 2.20419 33.95
      vertex -2.20419 3.03381 33.95
      vertex -3.56646 1.15881 33.95
    endloop
  endfacet
  facet normal 0 0 -1
    outer loop
      vertex -3.56646 1.15881 33.95
      vertex -2.20419 3.03381 33.95
      vertex -1.15881 3.56646 33.95
    endloop
  endfacet
  facet normal 0 0 -1
    outer loop
      vertex -3.56646 1.15881 33.95
      vertex -1.15881 3.56646 33.95
      vertex 0 3.75 33.95
    endloop
  endfacet
  facet normal 0 0 -1
    outer loop
      vertex -3.56646 1.15881 33.95
      vertex 0 3.75 33.95
      vertex 1.15881 3.56646 33.95
    endloop
  endfacet
  facet normal 0 0 -1
    outer loop
      vertex -3.56646 1.15881 33.95
      vertex 1.15881 3.56646 33.95
      vertex 2.20419 3.03381 33.95
    endloop
  endfacet
  facet normal 0 0 -1
    outer loop
      vertex -3.56646 1.15881 33.95
      vertex 2.20419 3.03381 33.95
      vertex 3.03381 2.20419 33.95
    endloop
  endfacet
  facet normal 0 0 -1
    outer loop
      vertex -3.56646 1.15881 33.95
      vertex 3.03381 2.20419 33.95
      vertex 3.56646 1.15881 33.95
    endloop
  endfacet
  facet normal 0 0 -1
    outer loop
      vertex -3.56646 1.15881 33.95
      vertex 3.56646 1.15881 33.95
      vertex 3.75 0 33.95
    endloop
  endfacet
  facet normal 0 0 -1
    outer loop
      vertex -3.56646 1.15881 33.95
      vertex 3.75 0 33.95
      vertex 3.56646 -1.15881 33.95
    endloop
  endfacet
  facet normal 0 0 -1
    outer loop
      vertex -3.56646 1.15881 33.95
      vertex 3.56646 -1.15881 33.95
      vertex 3.03381 -2.20419 33.95
    endloop
  endfacet
  facet normal 0 0 -1
    outer loop
      vertex -3.56646 1.15881 33.95
      vertex 3.03381 -2.20419 33.95
      vertex 2.20419 -3.03381 33.95
    endloop
  endfacet
  facet normal 0 0 -1
    outer loop
      vertex -3.56646 1.15881 33.95
      vertex 2.20419 -3.03381 33.95
      vertex 1.15881 -3.56646 33.95
    endloop
  endfacet
  facet normal 0 0 -1
    outer loop
      vertex -3.56646 1.15881 33.95
      vertex 1.15881 -3.56646 33.95
      vertex 0 -3.75 33.95
    endloop
  endfacet
  facet normal 0 0 -1
    outer loop
      vertex -3.56646 1.15881 33.95
      vertex 0 -3.75 33.95
      vertex -1.15881 -3.56646 33.95
    endloop
  endfacet
  facet normal 0 0 -1
    outer loop
      vertex -3.56646 1.15881 33.95
      vertex -1.15881 -3.56646 33.95
      vertex -2.20419 -3.03381 33.95
    endloop
  endfacet
  facet normal 0 0 -1
    outer loop
      vertex -3.56646 1.15881 33.95
      vertex -2.20419 -3.03381 33.95
      vertex -3.03381 -2.20419 33.95
    endloop
  endfacet
  facet normal 0 0 -1
    outer loop
      vertex -3.56646 1.15881 33.95
      vertex -3.03381 -2.20419 33.95
      vertex -3.56646 -1.15881 33.95
    endloop
  endfacet
  facet normal 0 0 -1
    outer loop
      vertex -3.56646 1.15881 33.95
      vertex -3.56646 -1.15881 33.95
      vertex -3.75 0 33.95
    endloop
  endfacet
endsolid OpenSCAD_Model
